<svg width="24" height="24" viewBox="0 0 24 24" fill="none" xmlns="http://www.w3.org/2000/svg">
<path d="M7.5 3.66901C6.88035 3.24751 6.12474 3 5.30927 3C3.20547 3 1.5 4.6474 1.5 6.67956C1.5 8.14324 2.38473 9.40731 3.66581 10" stroke="white" stroke-width="1.6"/>
<path d="M16.4902 3.66901C17.1099 3.24751 17.8655 3 18.681 3C20.7848 3 22.4902 4.6474 22.4902 6.67956C22.4902 8.14324 21.6055 9.40731 20.3244 10" stroke="white" stroke-width="1.6"/>
<path fill-rule="evenodd" clip-rule="evenodd" d="M20 10.125C20 12.4353 19.0506 14.5204 17.5263 15.9998C17.5344 16.1238 17.5385 16.2489 17.5385 16.375C17.5385 19.4816 15.0588 22 12 22C8.94119 22 6.46154 19.4816 6.46154 16.375C6.46154 16.2489 6.46562 16.1238 6.47366 15.9998C4.94943 14.5204 4 12.4353 4 10.125C4 8.77234 4.32546 7.49689 4.90118 6.375C7.0571 4.27734 9.84402 3.81283 12 6.375C14.1566 3.95106 16.9417 4.20272 19.0988 6.375C19.6745 7.49689 20 8.77234 20 10.125Z" fill="#13F287" fill-opacity="0.3"/>
<path d="M4.90118 6.375C4.32546 7.49689 4 8.77234 4 10.125C4 12.4353 4.94943 14.5204 6.47366 15.9998C6.46562 16.1238 6.46154 16.2489 6.46154 16.375C6.46154 19.4816 8.94119 22 12 22C15.0588 22 17.5385 19.4816 17.5385 16.375C17.5385 16.2489 17.5344 16.1238 17.5263 15.9998C19.0506 14.5204 20 12.4353 20 10.125C20 8.77234 19.6745 7.49689 19.0988 6.375M4.90118 6.375C6.23537 3.77514 8.91357 2 12 2C15.0864 2 17.7646 3.77514 19.0988 6.375M4.90118 6.375C7.0571 4.27734 9.84402 3.81283 12 6.375C14.1566 3.95106 16.9417 4.20272 19.0988 6.375" stroke="white" stroke-width="1.6"/>
<ellipse cx="9.64717" cy="11.375" rx="1.17647" ry="1.25" stroke="#13F287"/>
<ellipse cx="14.3532" cy="11.375" rx="1.17647" ry="1.25" stroke="#13F287"/>
</svg>
