<svg width="16" height="16" viewBox="0 0 16 16" fill="none" xmlns="http://www.w3.org/2000/svg">
<path d="M8.00019 10.8002C9.54659 10.8002 10.8002 9.54659 10.8002 8.00019C10.8002 6.4538 9.54659 5.2002 8.00019 5.2002C6.4538 5.2002 5.2002 6.4538 5.2002 8.00019C5.2002 9.54659 6.4538 10.8002 8.00019 10.8002Z" stroke="white" stroke-width="1.6" stroke-linecap="square" stroke-linejoin="round"/>
<path d="M10.8 5.19956V8.69955C10.8 9.25651 11.0212 9.79065 11.4151 10.1845C11.8089 10.5783 12.343 10.7996 12.9 10.7996C13.4569 10.7996 13.9911 10.5783 14.3849 10.1845C14.7787 9.79065 15 9.25651 15 8.69955V7.99956C14.9999 6.41968 14.4653 4.88629 13.4833 3.64873C12.5012 2.41117 11.1294 1.54222 9.59084 1.18317C8.05231 0.824125 6.43755 0.996095 5.00914 1.67112C3.58074 2.34615 2.42268 3.48453 1.72329 4.90117C1.02389 6.3178 0.824283 7.92937 1.15692 9.47383C1.48956 11.0183 2.33489 12.4048 3.55544 13.4079C4.776 14.4111 6.3 14.9718 7.87965 14.999C9.45929 15.0261 11.0017 14.5181 12.256 13.5575" stroke="white" stroke-width="1.6" stroke-linecap="square" stroke-linejoin="round"/>
</svg>
