<svg width="16" height="16" viewBox="0 0 16 16" fill="none" xmlns="http://www.w3.org/2000/svg">
<path d="M14.8 14.9999V14H13.2V14.9999H14.8ZM2.80016 15L2.80012 14.0001L1.20012 14.0002L1.20016 15L2.80016 15ZM5.00013 11.8L11 11.8L11 10.2L5.00013 10.2L5.00013 11.8ZM2.80012 14.0001C2.80007 12.785 3.78506 11.8 5.00013 11.8L5.00013 10.2C2.90139 10.2 1.20004 11.9014 1.20012 14.0002L2.80012 14.0001ZM14.8 14C14.8 11.9014 13.0987 10.2 11 10.2L11 11.8C12.215 11.8 13.2 12.785 13.2 14H14.8Z" fill="white"/>
<path d="M8 7C9.65685 7 11 5.65685 11 4C11 2.34315 9.65685 1 8 1C6.34315 1 5 2.34315 5 4C5 5.65685 6.34315 7 8 7Z" stroke="white" stroke-width="1.6" stroke-linecap="round" stroke-linejoin="round"/>
</svg>
