<?xml version="1.0" encoding="UTF-8"?>
<svg width="163px" height="163px" viewBox="0 0 163 163" version="1.1" xmlns="http://www.w3.org/2000/svg" xmlns:xlink="http://www.w3.org/1999/xlink">
    <title>arbitrum_logo</title>
    <g id="Page-2" stroke="none" stroke-width="1" fill="none" fill-rule="evenodd">
        <g id="arbitrum_logo" transform="translate(9.000000, 0.000000)" fill-rule="nonzero">
            <g id="Symbol_-_Original_10_">
                <path d="M90.688,74.4640004 L102.623,54.2120004 L134.793,104.317 L134.808,113.933 L134.703,47.7640004 C134.627,46.1460004 133.768,44.6660004 132.398,43.7930004 L74.48,10.4790004 C73.126,9.81300036 71.407,9.82100036 70.055,10.5000004 C69.872,10.5920004 69.701,10.6910004 69.537,10.8000004 L69.335,10.9270004 L13.116,43.5050004 L12.898,43.6050004 C12.617,43.7330004 12.334,43.8980004 12.067,44.0880004 C11.001,44.8520004 10.293,45.9830004 10.064,47.2500004 C10.03,47.4420004 10.004,47.6380004 9.993,47.8360004 L10.081,101.757 L40.046,55.3140004 C43.818,49.1560004 52.038,47.1710004 59.669,47.2800004 L68.624,47.5160004 L15.857,132.139 L22.077,135.72 L75.476,47.6020004 L99.079,47.5160004 L45.818,137.858 L68.013,150.625 L70.665,152.149 C71.787,152.605 73.109,152.628 74.24,152.219 L132.972,118.183 L121.743,124.69 L90.688,74.4640004 Z M95.241,140.049 L72.824,104.864 L86.509,81.6420004 L115.95,128.047 L95.241,140.049 Z" id="Shape" fill="#2D374B"></path>
                <polygon id="Path" fill="#28A0F0" points="72.823 104.865 95.241 140.049 115.949 128.048 86.508 81.6430004"></polygon>
                <path d="M134.808,113.934 L134.793,104.318 L102.623,54.2130004 L90.688,74.4650004 L121.744,124.691 L132.973,118.184 C134.074,117.29 134.741,115.977 134.811,114.561 L134.808,113.934 Z" id="Path" fill="#28A0F0"></path>
                <path d="M0,123.002 L15.857,132.139 L68.624,47.5160004 L59.669,47.2800004 C52.039,47.1720004 43.819,49.1560004 40.046,55.3140004 L10.081,101.757 L0,117.246 L0,123.002 L0,123.002 Z" id="Path" fill="#FFFFFF"></path>
                <polygon id="Path" fill="#FFFFFF" points="99.079 47.5160004 75.476 47.6020004 22.077 135.72 40.742 146.466 45.817 137.858"></polygon>
                <path d="M144.754,47.3940004 C144.557,42.4580004 141.884,37.9400004 137.698,35.3090004 L79.021,1.56500036 C74.88,-0.51999964 69.707,-0.52299964 65.558,1.56400036 C65.068,1.81100036 8.496,34.6210004 8.496,34.6210004 C7.713,34.9960004 6.959,35.4430004 6.25,35.9510004 C2.513,38.6300004 0.235,42.7920004 3.55271368e-14,47.3640004 L3.55271368e-14,117.247 L10.081,101.758 L9.993,47.8360004 C10.005,47.6390004 10.03,47.4440004 10.064,47.2530004 C10.292,45.9840004 11.001,44.8530004 12.067,44.0880004 C12.334,43.8980004 69.871,10.5920004 70.054,10.5 C71.407,9.82100036 73.125,9.81300036 74.479,10.4790004 L132.397,43.7930004 C133.767,44.6660004 134.626,46.1460004 134.702,47.7640004 L134.702,114.559 C134.632,115.975 134.072,117.288 132.971,118.182 L121.742,124.689 L115.948,128.047 L95.24,140.048 L74.239,152.218 C73.108,152.627 71.785,152.604 70.664,152.148 L45.817,137.857 L40.741,146.465 L63.071,159.321 C63.809,159.741 64.467,160.113 65.007,160.417 C65.843,160.886 66.413,161.199 66.614,161.297 C68.201,162.068 70.484,162.516 72.542,162.516 C74.428,162.516 76.268,162.17 78.009,161.488 L139.008,126.163 C142.509,123.45 144.569,119.359 144.754,114.928 L144.754,47.3940004 Z" id="Path" fill="#96BEDC"></path>
            </g>
        </g>
    </g>
</svg>