<svg width="22" height="22" fill="none" xmlns="http://www.w3.org/2000/svg"><defs><linearGradient id="a" x1="9.013" y1="19.455" x2="18.573" y2="8.392" gradientUnits="userSpaceOnUse" gradientTransform="translate(-3 -3)"><stop offset=".08" stop-color="#9945FF"/><stop offset=".3" stop-color="#8752F3"/><stop offset=".5" stop-color="#5497D5"/><stop offset=".6" stop-color="#43B4CA"/><stop offset=".72" stop-color="#28E0B9"/><stop offset=".97" stop-color="#19FB9B"/></linearGradient></defs><circle style="opacity:1;fill:#000;fill-opacity:1;stroke:#fff;stroke-width:0;stroke-linecap:square;stroke-linejoin:round;stroke-dasharray:none;stroke-opacity:1" cx="11" cy="11" r="11"/><path d="m16.938 13.993-1.98 2.07a.459.459 0 0 1-.337.142H5.23a.234.234 0 0 1-.21-.134.219.219 0 0 1 .042-.243l1.982-2.07a.459.459 0 0 1 .336-.141h9.39a.234.234 0 0 1 .211.134.22.22 0 0 1-.043.242zm-1.98-4.167a.46.46 0 0 0-.337-.143H5.23a.235.235 0 0 0-.126.037.219.219 0 0 0-.042.34l1.982 2.07a.459.459 0 0 0 .336.142h9.39a.235.235 0 0 0 .126-.037.22.22 0 0 0 .042-.34zM5.23 8.339h9.39a.471.471 0 0 0 .337-.142l1.981-2.07a.222.222 0 0 0 .043-.242.234.234 0 0 0-.211-.135H7.38a.47.47 0 0 0-.336.142l-1.982 2.07a.222.222 0 0 0-.043.242.235.235 0 0 0 .21.135z" fill="url(#a)" style="fill:url(#a)"/></svg>