<svg version="1.1" xmlns="http://www.w3.org/2000/svg" viewBox="0 0 32 32" style="shape-rendering: crispEdges"><rect x="0" y="0" width="32" height="32" fill="hsl(338,40.154489232227206%,58.05737965274602%)"/><rect x="0" y="0" width="4" height="4" fill="hsl(258,83.16415960900486%,56.1466395505704%)"/><rect x="4" y="0" width="4" height="4" fill="hsl(258,83.16415960900486%,56.1466395505704%)"/><rect x="8" y="0" width="4" height="4" fill="hsl(90,88.51982072927058%,60.87038378464058%)"/><rect x="12" y="0" width="4" height="4" fill="hsl(258,83.16415960900486%,56.1466395505704%)"/><rect x="16" y="0" width="4" height="4" fill="hsl(258,83.16415960900486%,56.1466395505704%)"/><rect x="20" y="0" width="4" height="4" fill="hsl(90,88.51982072927058%,60.87038378464058%)"/><rect x="24" y="0" width="4" height="4" fill="hsl(258,83.16415960900486%,56.1466395505704%)"/><rect x="28" y="0" width="4" height="4" fill="hsl(258,83.16415960900486%,56.1466395505704%)"/><rect x="0" y="4" width="4" height="4" fill="hsl(258,83.16415960900486%,56.1466395505704%)"/><rect x="8" y="4" width="4" height="4" fill="hsl(258,83.16415960900486%,56.1466395505704%)"/><rect x="20" y="4" width="4" height="4" fill="hsl(258,83.16415960900486%,56.1466395505704%)"/><rect x="28" y="4" width="4" height="4" fill="hsl(258,83.16415960900486%,56.1466395505704%)"/><rect x="8" y="8" width="4" height="4" fill="hsl(258,83.16415960900486%,56.1466395505704%)"/><rect x="20" y="8" width="4" height="4" fill="hsl(258,83.16415960900486%,56.1466395505704%)"/><rect x="4" y="12" width="4" height="4" fill="hsl(258,83.16415960900486%,56.1466395505704%)"/><rect x="8" y="12" width="4" height="4" fill="hsl(258,83.16415960900486%,56.1466395505704%)"/><rect x="12" y="12" width="4" height="4" fill="hsl(258,83.16415960900486%,56.1466395505704%)"/><rect x="16" y="12" width="4" height="4" fill="hsl(258,83.16415960900486%,56.1466395505704%)"/><rect x="20" y="12" width="4" height="4" fill="hsl(258,83.16415960900486%,56.1466395505704%)"/><rect x="24" y="12" width="4" height="4" fill="hsl(258,83.16415960900486%,56.1466395505704%)"/><rect x="8" y="16" width="4" height="4" fill="hsl(90,88.51982072927058%,60.87038378464058%)"/><rect x="12" y="16" width="4" height="4" fill="hsl(258,83.16415960900486%,56.1466395505704%)"/><rect x="16" y="16" width="4" height="4" fill="hsl(258,83.16415960900486%,56.1466395505704%)"/><rect x="20" y="16" width="4" height="4" fill="hsl(90,88.51982072927058%,60.87038378464058%)"/><rect x="0" y="20" width="4" height="4" fill="hsl(90,88.51982072927058%,60.87038378464058%)"/><rect x="12" y="20" width="4" height="4" fill="hsl(258,83.16415960900486%,56.1466395505704%)"/><rect x="16" y="20" width="4" height="4" fill="hsl(258,83.16415960900486%,56.1466395505704%)"/><rect x="28" y="20" width="4" height="4" fill="hsl(90,88.51982072927058%,60.87038378464058%)"/><rect x="4" y="24" width="4" height="4" fill="hsl(258,83.16415960900486%,56.1466395505704%)"/><rect x="8" y="24" width="4" height="4" fill="hsl(258,83.16415960900486%,56.1466395505704%)"/><rect x="12" y="24" width="4" height="4" fill="hsl(258,83.16415960900486%,56.1466395505704%)"/><rect x="16" y="24" width="4" height="4" fill="hsl(258,83.16415960900486%,56.1466395505704%)"/><rect x="20" y="24" width="4" height="4" fill="hsl(258,83.16415960900486%,56.1466395505704%)"/><rect x="24" y="24" width="4" height="4" fill="hsl(258,83.16415960900486%,56.1466395505704%)"/><rect x="4" y="28" width="4" height="4" fill="hsl(258,83.16415960900486%,56.1466395505704%)"/><rect x="12" y="28" width="4" height="4" fill="hsl(90,88.51982072927058%,60.87038378464058%)"/><rect x="16" y="28" width="4" height="4" fill="hsl(90,88.51982072927058%,60.87038378464058%)"/><rect x="24" y="28" width="4" height="4" fill="hsl(258,83.16415960900486%,56.1466395505704%)"/></svg>