<svg width="770" height="770" viewBox="0 0 770 770" fill="none" xmlns="http://www.w3.org/2000/svg">
<g clip-path="url(#clip0)">
<path fill-rule="evenodd" clip-rule="evenodd" d="M258.181 435.079L243.702 410.002C234.769 394.528 234.771 375.463 243.708 359.992L369.604 142.049C369.831 141.656 370.062 141.268 370.297 140.884L384.041 117.079H50.0942C11.6093 117.079 -12.4477 158.736 6.78711 192.069L132.583 410.069C141.513 425.545 158.022 435.079 175.89 435.079H258.181ZM552.563 433.057C548.09 434.368 543.306 435.08 538.275 435.08H258.02L424.814 723.977C444.056 757.305 492.161 757.311 511.411 723.987L637.306 506.044C646.244 490.573 646.246 471.508 637.312 456.034L596.346 385.079L581.939 410.034C575.396 421.366 564.79 429.51 552.563 433.057ZM720.061 21.0578C758.546 21.0667 782.593 62.7289 763.35 96.0578L596.486 385.076L456.18 142.059C446.29 124.929 428.776 116.601 411.473 117.078H384.02L425.056 46C433.99 30.5264 450.502 20.9959 468.369 21L720.061 21.0578ZM720.062 21.0582C758.547 21.0671 782.594 62.7293 763.352 96.0582L596.487 385.076L637.454 456.032C646.387 471.505 646.385 490.57 637.448 506.042L511.552 723.984C492.302 757.309 444.198 757.303 424.955 723.974L258.161 435.078H175.87C158.003 435.078 141.493 425.544 132.563 410.068L6.76754 192.068C-12.4673 158.735 11.5897 117.078 50.0746 117.078H384.021L425.058 46.0004C433.992 30.5268 450.503 20.9963 468.371 21.0004L720.062 21.0582Z" fill="#1E1451"/>
<path fill-rule="evenodd" clip-rule="evenodd" d="M258.161 435.079L243.683 410.002C234.749 394.528 234.751 375.463 243.688 359.992L369.584 142.049C369.811 141.656 370.042 141.268 370.277 140.884L384.021 117.079H50.0746C11.5897 117.079 -12.4673 158.736 6.76754 192.069L132.563 410.069C141.493 425.545 158.003 435.079 175.87 435.079H258.161Z" fill="#5D97FE"/>
<path fill-rule="evenodd" clip-rule="evenodd" d="M552.543 433.057C548.07 434.368 543.286 435.08 538.255 435.08H258L424.794 723.977C444.037 757.305 492.141 757.311 511.391 723.987L637.287 506.044C646.224 490.573 646.226 471.508 637.293 456.034L596.327 385.079L581.919 410.034C575.377 421.366 564.77 429.51 552.543 433.057Z" fill="#3FDAFE"/>
<path fill-rule="evenodd" clip-rule="evenodd" d="M720.041 21.0578C758.526 21.0667 782.573 62.7289 763.331 96.0578L596.466 385.076L456.16 142.059C446.27 124.929 428.756 116.601 411.454 117.078H384L425.037 46C433.971 30.5264 450.482 20.9959 468.35 21L720.041 21.0578Z" fill="#A368FE"/>
</g>
<defs>
<clipPath id="clip0">
<rect width="770" height="770" fill="white"/>
</clipPath>
</defs>
</svg>
