<svg width="64" height="64" fill="none" xmlns="http://www.w3.org/2000/svg"><circle cx="32" cy="32" r="32" fill="#AB9FF2"/><path fill-rule="evenodd" clip-rule="evenodd" d="M27.963 41.362c-2.29 3.508-6.126 7.947-11.23 7.947C14.32 49.309 12 48.315 12 44c0-10.989 15.004-28 28.925-28C48.845 16 52 21.494 52 27.734 52 35.743 46.803 44.9 41.636 44.9c-1.64 0-2.444-.9-2.444-2.329 0-.372.062-.776.186-1.21-1.763 3.01-5.166 5.805-8.353 5.805-2.32 0-3.495-1.46-3.495-3.508 0-.745.154-1.521.433-2.297zm11.992-13.845c0 1.819-1.073 2.728-2.273 2.728-1.218 0-2.273-.91-2.273-2.728s1.055-2.727 2.273-2.727c1.2 0 2.273.91 2.273 2.727zm6.817 0c0 1.819-1.073 2.728-2.273 2.728-1.218 0-2.272-.91-2.272-2.727 0-1.819 1.054-2.728 2.272-2.728 1.2 0 2.273.91 2.273 2.728z" fill="#FFFDF8"/></svg>