<svg width="64" height="64" fill="none" xmlns="http://www.w3.org/2000/svg"><circle cx="32" cy="32" r="32" fill="#F7F9FB"/><path d="m53.627 10-18.76 13.878 3.498-8.181L53.627 10z" fill="#E17726" stroke="#E17726" stroke-width=".303" stroke-linecap="round" stroke-linejoin="round"/><path d="m10.371 10 18.59 13.992-3.327-8.281L10.37 10zm36.507 32.167-4.997 7.624 10.694 2.94 3.055-10.393-8.752-.171zm-38.491.17 3.04 10.395 10.666-2.941-4.969-7.624-8.737.17z" fill="#E27625" stroke="#E27625" stroke-width=".303" stroke-linecap="round" stroke-linejoin="round"/><path d="m21.52 29.29-2.97 4.483 10.566.485-.343-11.379-7.253 6.425v-.014zm20.96.014-7.368-6.568-.242 11.522 10.565-.485-2.956-4.47zM22.091 49.792l6.41-3.084-5.511-4.283-.9 7.367zm13.42-3.099 6.368 3.099-.857-7.382-5.51 4.284z" fill="#E27625" stroke="#E27625" stroke-width=".303" stroke-linecap="round" stroke-linejoin="round"/><path d="m41.878 49.79-6.368-3.083.514 4.14-.057 1.756 5.911-2.812zm-19.788 0 5.94 2.813-.044-1.756.514-4.14-6.41 3.084z" fill="#D5BFB2" stroke="#D5BFB2" stroke-width=".303" stroke-linecap="round" stroke-linejoin="round"/><path d="m28.13 39.668-5.282-1.542 3.74-1.713 1.556 3.255h-.014zm7.724 0 1.57-3.27 3.756 1.714-5.326 1.57v-.014z" fill="#233447" stroke="#233447" stroke-width=".303" stroke-linecap="round" stroke-linejoin="round"/><path d="m22.093 49.79.928-7.623-5.896.17 4.968 7.453zm18.89-7.623.899 7.623 4.997-7.452-5.897-.172zm4.468-8.395-10.565.485.97 5.425 1.571-3.284 3.755 1.714 4.269-4.34zm-22.6 4.354 3.74-1.713 1.556 3.255.985-5.425-10.565-.471 4.283 4.354z" fill="#CC6228" stroke="#CC6228" stroke-width=".303" stroke-linecap="round" stroke-linejoin="round"/><path d="m18.566 33.772 4.426 8.637-.142-4.283-4.284-4.354zm22.616 4.354-.172 4.283 4.426-8.637-4.255 4.354zm-12.05-3.87-1 5.426 1.256 6.396.286-8.437-.543-3.384zm5.739 0-.514 3.37.257 8.452 1.242-6.41-.985-5.425v.014z" fill="#E27525" stroke="#E27525" stroke-width=".303" stroke-linecap="round" stroke-linejoin="round"/><path d="m35.857 39.669-1.242 6.41.9.629 5.496-4.284.171-4.297-5.325 1.542zM22.85 38.127l.143 4.283 5.511 4.283.885-.614-1.242-6.41-5.311-1.542h.014z" fill="#F5841F" stroke="#F5841F" stroke-width=".303" stroke-linecap="round" stroke-linejoin="round"/><path d="m35.982 52.604.042-1.757-.485-.4h-7.082l-.47.4.042 1.757-5.94-2.813 2.085 1.713 4.212 2.899h7.21l4.226-2.913 2.056-1.699-5.91 2.813h.014z" fill="#C0AC9D" stroke="#C0AC9D" stroke-width=".303" stroke-linecap="round" stroke-linejoin="round"/><path d="m35.512 46.69-.9-.614h-5.225l-.885.628-.514 4.14.471-.399h7.082l.485.4-.514-4.14v-.015z" fill="#161616" stroke="#161616" stroke-width=".303" stroke-linecap="round" stroke-linejoin="round"/><path d="M54.43 24.777 56 17.139 53.63 10 35.498 23.42l6.982 5.868 9.85 2.87 2.17-2.527-.941-.685 1.499-1.37-1.142-.886 1.499-1.142-1-.771h.014zM8 17.124l1.599 7.653-1.028.757 1.528 1.142-1.142.9 1.484 1.37-.942.685 2.17 2.527 9.851-2.855 6.982-5.897L10.37 10 8 17.124z" fill="#763E1A" stroke="#763E1A" stroke-width=".303" stroke-linecap="round" stroke-linejoin="round"/><path d="m52.332 32.157-9.851-2.855 2.97 4.468-4.427 8.638 5.854-.071h8.752l-3.298-10.18zm-30.81-2.87-9.851 2.87-3.284 10.18h8.752l5.853.071-4.426-8.638 2.97-4.483h-.014zm13.349 4.969.642-10.851 2.856-7.71H25.634l2.855 7.71.642 10.85.243 3.399v8.423h5.24l.029-8.423.228-3.398z" fill="#F5841F" stroke="#F5841F" stroke-width=".303" stroke-linecap="round" stroke-linejoin="round"/></svg>