<svg width="1366" height="171" viewBox="0 0 1366 171" fill="none" xmlns="http://www.w3.org/2000/svg">
<g clip-path="url(#clip0_13866_300263)">
<mask id="mask0_13866_300263" style="mask-type:alpha" maskUnits="userSpaceOnUse" x="0" y="-1" width="1366" height="173">
<rect y="-0.444763" width="1366" height="171.445" fill="url(#paint0_linear_13866_300263)"/>
</mask>
<g mask="url(#mask0_13866_300263)">
<g opacity="0.2">
<path d="M683.325 -67.4154L683.325 170.739" stroke="#AF31C2"/>
<path d="M682.731 -67.1549L-982.524 171" stroke="#AF31C2"/>
<path d="M682.76 -67.1671L-903.197 170.987" stroke="#AF31C2"/>
<path d="M682.787 -67.1794L-823.872 170.975" stroke="#AF31C2"/>
<path d="M682.816 -67.1917L-744.545 170.963" stroke="#AF31C2"/>
<path d="M682.845 -67.2043L-665.219 170.95" stroke="#AF31C2"/>
<path d="M682.873 -67.2169L-585.892 170.938" stroke="#AF31C2"/>
<path d="M682.901 -67.2291L-506.567 170.925" stroke="#AF31C2"/>
<path d="M682.929 -67.2417L-427.241 170.913" stroke="#AF31C2"/>
<path d="M682.957 -67.254L-347.916 170.901" stroke="#AF31C2"/>
<path d="M682.986 -67.2661L-268.588 170.889" stroke="#AF31C2"/>
<path d="M683.014 -67.2786L-189.263 170.876" stroke="#AF31C2"/>
<path d="M683.043 -67.2915L-109.936 170.863" stroke="#AF31C2"/>
<path d="M683.07 -67.3037L-30.6108 170.851" stroke="#AF31C2"/>
<path d="M683.099 -67.316L48.7163 170.839" stroke="#AF31C2"/>
<path d="M683.127 -67.3286L128.042 170.826" stroke="#AF31C2"/>
<path d="M683.155 -67.3411L207.368 170.813" stroke="#AF31C2"/>
<path d="M683.183 -67.3531L286.693 170.801" stroke="#AF31C2"/>
<path d="M683.212 -67.3657L366.02 170.789" stroke="#AF31C2"/>
<path d="M683.24 -67.3783L445.346 170.776" stroke="#AF31C2"/>
<path d="M683.269 -67.3908L524.673 170.764" stroke="#AF31C2"/>
<path d="M683.297 -67.4031L603.999 170.751" stroke="#AF31C2"/>
<path d="M683.889 -67.1546L2349.14 171" stroke="#AF31C2"/>
<path d="M683.86 -67.1672L2269.82 170.987" stroke="#AF31C2"/>
<path d="M683.833 -67.1792L2190.49 170.975" stroke="#AF31C2"/>
<path d="M683.803 -67.1918L2111.17 170.963" stroke="#AF31C2"/>
<path d="M683.776 -67.2043L2031.84 170.95" stroke="#AF31C2"/>
<path d="M683.747 -67.2169L1952.51 170.938" stroke="#AF31C2"/>
<path d="M683.719 -67.2292L1873.19 170.925" stroke="#AF31C2"/>
<path d="M683.691 -67.2415L1793.86 170.913" stroke="#AF31C2"/>
<path d="M683.664 -67.2538L1714.54 170.901" stroke="#AF31C2"/>
<path d="M683.634 -67.266L1635.21 170.889" stroke="#AF31C2"/>
<path d="M683.607 -67.2786L1555.88 170.876" stroke="#AF31C2"/>
<path d="M683.578 -67.2912L1476.56 170.863" stroke="#AF31C2"/>
<path d="M683.55 -67.3034L1397.23 170.851" stroke="#AF31C2"/>
<path d="M683.522 -67.316L1317.9 170.839" stroke="#AF31C2"/>
<path d="M683.494 -67.3286L1238.58 170.826" stroke="#AF31C2"/>
<path d="M683.465 -67.3411L1159.25 170.813" stroke="#AF31C2"/>
<path d="M683.438 -67.3532L1079.93 170.801" stroke="#AF31C2"/>
<path d="M683.41 -67.3655L1000.6 170.789" stroke="#AF31C2"/>
<path d="M683.381 -67.378L921.275 170.777" stroke="#AF31C2"/>
<path d="M683.352 -67.3906L841.948 170.764" stroke="#AF31C2"/>
<path d="M683.324 -67.4029L762.622 170.752" stroke="#AF31C2"/>
</g>
<g opacity="0.2">
<line x1="-48.781" y1="113.173" x2="1416.82" y2="113.173" stroke="#AF31C2"/>
<line x1="-48.781" y1="142.105" x2="1416.82" y2="142.105" stroke="#AF31C2"/>
<line x1="-48.781" y1="90.6711" x2="1416.82" y2="90.6711" stroke="#AF31C2"/>
<line x1="-48.781" y1="71.9193" x2="1416.82" y2="71.9193" stroke="#AF31C2"/>
<line x1="-48.781" y1="41.9164" x2="1416.82" y2="41.9164" stroke="#AF31C2"/>
<line x1="-48.781" y1="54.7748" x2="1416.82" y2="54.7748" stroke="#AF31C2"/>
<line x1="-48.781" y1="19.4143" x2="1416.82" y2="19.4143" stroke="#AF31C2"/>
<line x1="-48.781" y1="29.0581" x2="1416.82" y2="29.0581" stroke="#AF31C2"/>
<line x1="-48.781" y1="6.02018" x2="1416.82" y2="6.02018" stroke="#AF31C2"/>
<line x1="-48.781" y1="11.3778" x2="1416.82" y2="11.3778" stroke="#AF31C2"/>
</g>
</g>
</g>
<defs>
<linearGradient id="paint0_linear_13866_300263" x1="683" y1="171" x2="683" y2="-0.444749" gradientUnits="userSpaceOnUse">
<stop/>
<stop offset="1" stop-opacity="0"/>
</linearGradient>
<clipPath id="clip0_13866_300263">
<rect width="1366" height="170.909" fill="white" transform="translate(0 0.0910034)"/>
</clipPath>
</defs>
</svg>
