<svg width="482" height="431" viewBox="0 0 482 431" fill="none" xmlns="http://www.w3.org/2000/svg">
<path d="M476.039 217.307C476.634 187.079 486.903 156.107 477.825 126.4C470.235 101.458 449.401 81.5051 427.227 68.9971C401.408 54.4044 371.049 56.7868 344.932 43.5343C332.506 37.2803 323.279 26.2613 311.895 18.3693C300.362 10.3285 288.233 4.81897 274.393 2.06423C250.955 -2.70074 224.763 2.51093 203.408 12.562C190.982 18.4438 178.928 24.9956 165.981 29.7606C153.257 34.5255 139.566 36.6102 126.768 41.2263C105.71 48.8949 87.4801 63.4131 73.789 80.9839C67.5388 88.9504 66.3481 99.6715 65.0832 109.425C64.8599 111.286 64.488 113.147 64.0415 114.934C50.4992 135.632 31.2276 151.639 17.1644 172.412C0.497031 197.13 -1.95843 228.028 1.1667 256.841C4.44066 286.399 24.9028 312.308 44.8442 333.08C55.7078 344.471 65.4552 356.682 76.9884 367.477C87.9264 377.677 93.5816 392.047 101.692 404.406C117.318 428.156 142.691 434.559 169.403 427.263C183.243 423.466 196.19 417.212 209.807 412.67C228.186 406.565 246.341 409.022 264.794 412.893C296.79 419.52 327 419.743 358.921 412.149C384.889 405.969 412.792 396.886 435.189 382.07C488.986 346.928 474.997 271.508 476.039 217.307Z" fill="url(#paint0_radial_16486_28084)"/>
<path opacity="0.2" d="M476.039 218.572C476.858 188.345 487.2 157.447 478.346 127.666C470.905 102.65 450.145 82.622 428.046 70.0395C402.301 55.2979 371.942 57.5315 345.9 44.13C333.548 37.8015 324.321 26.7081 313.011 18.7417C301.478 10.6264 289.349 5.0424 275.584 2.2132C252.145 -2.62621 225.954 2.36211 204.598 12.3388C192.098 18.1461 180.044 24.6234 167.097 29.3884C154.299 34.0789 140.682 36.0891 127.809 40.6307C106.752 48.1504 88.3731 62.5942 74.6076 80.0906C68.3574 88.057 67.0925 98.7782 65.7532 108.457C65.5299 110.318 65.1578 112.18 64.7113 113.966C51.0202 134.59 31.6742 150.523 17.5367 171.221C0.720466 195.79 -1.8838 226.688 1.09252 255.575C4.21766 285.133 24.5311 311.191 44.3981 332.038C55.2617 343.429 64.8603 355.788 76.3935 366.658C87.2571 376.933 92.912 391.377 100.874 403.736C116.351 427.635 141.724 434.187 168.436 426.965C182.276 423.242 195.298 417.063 208.914 412.596C227.293 406.565 245.449 409.171 263.902 413.117C295.823 419.892 326.107 420.339 358.028 412.893C384.071 406.863 411.974 397.854 434.519 383.261C488.316 348.343 474.7 272.774 476.039 218.572ZM370.231 120.667C366.213 127.368 358.549 130.421 351.703 133.399C341.509 137.866 333.548 143.226 327.223 152.756C320.898 162.361 316.136 172.858 310.63 182.984C306.463 190.653 302.148 199.885 294.781 205.022C290.242 208.223 285.034 210.01 280.42 213.137C273.798 217.53 273.575 223.337 272.012 230.261C270.226 238.153 265.911 241.653 258.098 243.365C236.148 248.204 215.09 261.159 206.459 282.527C221.117 275.901 236.817 268.009 252.964 273.146C254.601 273.742 254.675 276.05 252.964 276.571C233.32 282.75 214.42 305.831 209.435 325.561C207.277 334.197 206.831 359.213 192.544 358.096C183.987 357.426 176.696 352.066 168.66 349.609C157.647 346.184 145.519 344.546 134.581 349.162C129.149 351.47 123.568 357.65 117.318 356.756C109.207 355.565 108.835 343.206 99.46 343.504C92.6145 343.727 86.4386 345.588 80.486 341.047C74.6077 336.505 69.7711 330.996 64.5625 325.784C51.2435 312.457 35.6178 300.023 24.3078 284.91C9.64942 265.18 6.15222 238.004 9.50058 214.18C10.4679 207.33 12.0305 200.331 14.2627 193.78C19.6945 177.772 30.4836 164.222 42.3889 152.533C48.6392 146.428 56.4521 142.407 63.6697 137.419C74.4589 129.899 72.8962 120.221 72.7474 108.457C72.7474 107.042 74.7565 106 75.7238 107.191C80.9323 113.594 82.5694 121.412 84.5784 129.155C87.2571 114.637 90.4565 97.5869 104.52 90.7373C108.463 88.8015 116.946 83.5899 121.41 85.4512C127.214 87.8337 130.86 93.1198 135.325 97.3636C132.944 89.5461 129.744 82.0263 127.586 74.1344C127.288 73.1665 127.884 72.2731 128.851 71.9753C136.515 69.2205 139.268 59.5417 147.081 57.3825C150.058 56.5636 153.108 56.4147 156.233 56.5636C154.745 54.8512 153.183 53.1387 151.397 51.6497C150.281 50.6818 151.025 49.1183 152.141 48.6716C157.126 46.7358 162.632 45.1723 167.171 42.1942C164.046 42.0453 160.921 42.2687 157.721 42.3431C155.564 42.4176 155.564 39.5884 157.275 38.9183C185.327 27.2293 210.774 9.584 242.026 7.72269C252.592 7.12707 266.06 8.16942 272.384 17.9972C276.774 24.8468 272.682 39.6628 270.003 46.5125C269.482 47.9271 266.953 48.3738 266.655 46.5125C265.688 41.3008 265.316 36.0891 265.018 30.803C263.827 36.0891 262.414 41.2263 260.107 46.2147C259.661 47.1081 258.47 47.257 257.726 46.8103C251.699 43.3855 245.746 39.9607 239.868 36.3125C240.463 37.6526 241.059 38.9928 241.579 40.3329C242.175 41.7475 240.761 43.9066 239.198 42.7154C233.171 38.2482 216.801 31.9198 210.626 39.5884C205.045 46.5869 216.281 56.8614 218.811 63.1898C219.108 63.8599 218.662 64.8278 217.992 65.2001C207.352 70.4118 191.428 71.8263 185.178 82.9198C196.786 86.8658 211.146 84.1855 222.754 82.1752C228.335 81.2074 233.841 80.165 239.421 79.0482C242.1 78.5271 245.895 77.2614 248.574 78.8249C255.345 82.7709 249.988 94.1621 247.16 98.7782C242.919 105.702 238.38 112.18 235.106 119.253C235.031 119.774 234.957 120.369 234.957 120.891C247.904 116.2 254.973 102.799 265.836 94.9811C266.804 94.311 268.143 95.0555 268.441 96.0234C269.334 98.9271 269.334 102.129 269.482 105.107C269.631 107.266 269.631 109.574 270.078 111.733C270.822 115.158 273.872 114.413 274.84 111.435C276.998 105.181 277.518 98.0337 280.792 92.1519C282.429 89.0993 285.034 86.0468 288.829 87.7592C294.781 90.5139 298.129 95.5023 304.752 96.2468C303.487 92.6731 301.329 89.8439 298.799 86.7913C297.311 85.0789 299.543 82.8453 301.255 84.3344C312.416 93.9388 324.991 101.98 339.128 106.372C349.545 109.574 360.632 111.956 369.636 118.434C370.305 118.806 370.752 119.774 370.231 120.667Z" fill="#484A56"/>
<path opacity="0.6" d="M73.863 132.356C65.7525 138.461 59.5022 146.353 51.3173 152.384C44.5462 157.372 38.4447 163.031 32.9385 169.359C20.1403 183.952 13.8901 201.82 12.2531 220.88C10.4674 241.28 16.1223 261.085 26.9859 278.209C33.0129 287.664 40.6769 295.407 48.341 303.523C54.368 309.926 59.6511 317.147 67.0175 321.987C67.5383 322.359 68.7288 321.242 68.2824 320.647C43.3557 293.472 18.3546 265.924 16.792 227.134C15.9735 206.213 23.0423 187.004 35.9149 170.774C41.4955 163.701 48.6387 157.968 55.5587 152.235C62.553 146.353 67.5382 138.759 74.3838 132.877C74.9046 132.431 74.3838 131.91 73.863 132.356Z" fill="#A7ABC1"/>
<path opacity="0.7" d="M157.87 42.4175C156.159 43.0131 150.43 42.4175 146.412 43.2364C145.147 40.5562 138.748 42.8642 136.664 43.6832C125.057 48.0014 113.598 52.3197 103.106 59.0204C98.0463 62.2963 94.0283 65.7211 90.4567 69.5926C84.4297 74.7299 78.0306 81.5051 77.8073 87.908C77.8073 87.908 77.8073 87.908 77.8073 87.9824C77.5841 89.397 77.8073 90.8861 77.9561 92.2262C78.1793 94.2364 77.4354 96.2467 77.8818 98.3313C78.105 99.2248 79.4443 98.0335 79.5188 97.5124C79.6676 95.5766 80.4861 93.4919 81.0069 91.7051C81.1557 91.1839 81.2302 90.5883 81.2302 90.0671C83.388 89.9182 86.141 89.0992 88.3732 88.2802C88.4477 88.8759 88.5965 89.5459 88.7453 90.216C89.1917 92.3007 89.3406 94.3109 89.5638 96.3956C89.7871 98.2569 90.6055 101.309 90.0847 103.245C89.787 104.436 91.424 103.841 91.7216 103.171C92.9865 100.416 92.7634 96.6189 93.061 93.6408C93.2842 91.7051 93.2842 89.9182 93.061 87.9824C92.9866 87.3868 93.061 86.8656 93.061 86.27C100.279 83.2175 107.273 78.8992 113.895 74.2087C114.044 74.4321 114.193 74.6554 114.342 74.8788C115.383 76.5912 116.425 78.1547 117.318 79.9415C117.69 80.6861 118.955 79.7182 118.732 79.0481C118.137 77.3357 117.467 75.5489 116.648 73.9109C116.425 73.5386 116.276 73.0919 116.053 72.6452C116.425 72.3474 116.797 72.0496 117.244 71.8262C118.062 73.3153 119.029 74.7299 119.699 76.07C121.41 79.5693 122.973 83.2919 125.28 86.4189C125.726 87.0145 126.842 85.9722 126.693 85.3766C125.503 81.5051 124.908 77.5591 123.42 73.762C122.899 72.4218 122.229 70.4861 121.336 68.7737C122.899 67.5824 124.387 66.4656 125.875 65.2744C127.214 64.2321 128.479 63.1897 129.744 62.0729C133.539 59.3182 137.185 56.3401 140.533 53.2131C140.831 52.9153 141.054 52.6919 141.203 52.3941C142.17 52.543 143.286 52.543 144.179 52.6919C146.412 53.0642 148.644 53.8087 150.876 54.4043C151.471 54.5532 152.662 53.2875 151.918 52.9153C149.537 51.8729 146.412 49.7138 143.51 49.2671C143.659 49.1182 143.807 48.9693 143.956 48.8204C144.254 48.8204 144.626 48.7459 144.923 48.7459C146.56 48.5226 148.197 49.1927 149.76 49.3416C150.058 49.416 150.727 48.6715 150.281 48.5226C148.867 48.0759 147.453 47.4058 145.965 47.0335C149.983 45.9167 154.522 45.6934 158.094 43.4598C158.614 43.3109 158.912 42.1197 157.87 42.4175ZM141.649 47.3313C141.352 47.3313 140.905 47.7036 141.054 48.0014C140.087 46.2145 107.868 64.6043 105.71 66.0934C98.6416 71.0073 90.2336 76.2934 84.2065 82.6963C84.2065 81.8029 84.2065 80.7605 84.3553 79.5693C84.4297 79.4948 84.5041 79.4204 84.5785 79.3459C95.0701 67.1357 107.124 58.2759 122.229 52.2452C127.437 50.1605 132.72 48.2248 138.003 46.289C142.096 44.651 142.691 45.47 141.649 47.3313Z" fill="#1C1D26"/>
<path opacity="0.7" d="M171.561 391.674C168.882 379.166 151.917 366.509 139.268 369.86C139.193 369.86 139.119 369.934 139.119 369.934C132.943 369.339 126.842 370.381 126.321 376.188C125.279 388.845 145.667 399.12 155.563 401.874C165.162 404.555 174.091 402.917 171.561 391.674Z" fill="#1C1D26"/>
<path opacity="0.7" d="M407.137 174.571C388.833 182.016 368.743 198.619 366.659 219.615C365.99 218.498 365.32 217.604 364.501 216.785C364.725 211.202 365.022 205.692 366.659 200.257C366.882 199.587 365.841 200.034 365.692 200.406C363.98 205.022 362.864 209.936 362.343 214.924C358.623 212.318 354.01 211.574 348.652 211.797C344.783 211.499 341.063 211.797 337.342 212.616C336.524 209.266 335.929 205.915 335.929 202.118C335.929 196.683 336.97 186.26 340.914 181.942C341.509 181.272 340.691 180.974 340.17 181.421C334.961 185.664 333.697 194.748 332.729 201.002C332.357 203.533 331.836 209.191 332.58 213.882C326.776 215.743 321.196 218.498 315.69 221.848C308.323 226.241 301.329 231.08 294.855 236.515C294.483 236.143 294.037 235.771 293.665 235.324C292.4 233.984 291.135 232.718 289.945 231.378C288.754 230.038 287.489 228.772 286.075 227.73C284.81 226.762 283.322 226.092 282.206 224.975C281.685 224.529 280.569 225.496 281.016 226.018C281.834 227.06 282.876 227.73 283.843 228.623C285.331 230.112 286.671 231.527 288.01 233.24C289.2 234.803 290.465 236.367 291.73 237.856C291.954 238.153 292.251 238.451 292.4 238.675C291.73 239.27 291.135 239.866 290.465 240.461C290.019 240.089 289.573 239.717 289.201 239.345C288.084 238.228 287.117 237.037 285.852 236.143C285.48 235.845 284.513 236.739 284.885 237.111C286.075 238.228 286.968 239.642 287.935 240.908C288.233 241.28 288.531 241.653 288.828 242.025C286.299 244.482 283.769 247.013 281.388 249.619C276.7 247.907 270.152 248.353 266.134 248.577C255.568 249.023 247.309 251.853 238.008 256.543C237.636 256.767 237.487 257.511 238.082 257.288C248.127 253.267 256.982 251.331 267.845 251.629C271.342 251.704 274.84 252.299 278.262 253.342C278.114 253.565 277.965 253.714 277.816 253.937C271.64 261.829 266.357 271.731 264.571 281.931C259.14 283.048 253.112 286.25 249.615 289.079C246.044 292.057 242.993 295.258 240.24 298.981C238.082 301.885 237.115 307.245 234.585 309.628C234.287 309.851 234.287 310.447 234.808 310.223C238.529 308.66 241.43 301.215 243.886 298.385C249.615 291.759 256.387 288.409 264.051 285.803C263.976 287.218 263.902 288.632 263.976 289.972C264.05 292.802 264.72 295.258 265.836 297.343C264.274 297.939 262.711 299.428 261.818 300.321C259.809 302.48 258.321 305.012 256.386 307.171C255.717 307.915 256.684 308.362 257.279 307.841C258.767 306.426 260.107 304.714 261.446 303.15C262.265 302.257 263.083 301.438 264.051 300.619C264.869 299.949 265.985 299.651 266.952 299.204C268.217 301.066 269.929 302.555 271.789 303.821C270.598 304.491 269.408 305.831 268.887 306.948C268.589 307.469 268.292 307.99 267.92 308.511C267.696 308.809 267.25 309.181 267.548 309.553C267.622 309.702 267.845 309.702 267.994 309.628C268.813 309.479 269.482 308.437 269.929 307.766C270.822 306.501 272.012 305.607 273.128 304.565C278.411 307.469 285.182 308.586 291.135 308.586C302.445 308.586 315.169 307.32 327 303.895C327.223 305.458 327.967 306.873 328.786 308.288C329.976 310.372 330.646 312.68 332.357 314.467C332.804 314.914 333.994 314.021 333.696 313.499C332.58 311.564 332.357 309.33 331.911 307.171C331.687 305.98 331.092 304.788 330.72 303.597C330.646 303.299 330.571 303.002 330.497 302.778C345.602 297.641 358.921 288.707 365.32 273.816C368.743 265.85 370.528 257.362 370.975 248.726C371.645 248.353 372.314 247.981 372.984 247.758C374.026 247.385 375.067 247.162 376.183 246.939C376.704 246.79 377.597 245.524 376.555 245.599C374.621 245.896 372.686 245.971 371.049 246.864C371.124 244.11 371.049 241.28 370.826 238.526C372.389 236.962 374.695 235.994 376.63 235.25C378.044 234.654 379.383 233.984 380.797 233.388C381.541 233.091 382.285 232.793 383.029 232.495C382.434 232.718 387.94 230.931 385.261 232.272C385.112 232.346 385.038 232.644 385.336 232.569C386.526 232.048 386.154 232.272 387.345 231.602C387.493 231.527 387.791 231.155 387.493 231.006C384.071 228.847 378.118 232.048 374.844 233.388C373.802 233.835 372.165 234.58 370.528 235.548C370.231 233.016 369.859 230.485 369.338 227.953C369.189 227.358 369.04 226.837 368.891 226.241C372.017 215.966 373.951 206.288 380.425 197.353C387.419 187.675 397.315 182.388 406.988 175.985C407.881 175.39 408.105 174.199 407.137 174.571ZM361.674 270.912C353.117 297.715 320.452 301.587 296.418 303.746C283.694 304.863 270.375 301.14 268.664 287.069C268.813 287.218 269.036 287.366 269.259 287.515C274.468 293.546 288.828 294.365 295.227 294.663C306.389 295.258 317.327 288.707 326.553 283.197C335.408 277.911 348.355 270.838 354.084 261.904C357.879 255.948 359.367 249.619 360.93 242.769C362.12 237.483 361.823 231.453 362.641 226.092C363.311 227.879 363.757 229.666 364.204 231.155C367.701 244.184 365.766 258.181 361.674 270.912Z" fill="#1C1D26"/>
<path opacity="0.7" d="M454.238 116.87C454.387 111.733 449.401 105.255 447.244 101.607C440.993 90.8859 431.99 81.5049 420.903 75.8465C416.513 73.6129 407.882 70.5604 402.376 72.794C398.209 72.7195 393.372 74.5064 389.429 75.102C382.955 75.9954 376.184 74.7298 369.71 74.283C369.487 74.283 368.743 74.8042 369.115 75.0276C376.333 80.686 388.164 78.8246 397.465 76.2188C396.423 77.8567 396.423 79.9414 397.018 82.175C392.628 83.3662 388.238 85.7487 383.774 86.3443C383.476 86.4188 382.806 87.2378 383.401 87.2378C388.238 87.3122 393.075 85.6743 397.837 84.483C399.399 88.2801 402.227 92.0772 403.715 94.2363C405.277 96.5443 407.138 98.7035 409.072 100.788C408.7 101.086 408.403 101.458 408.031 101.756C407.882 101.905 407.659 102.054 407.435 102.128C407.435 102.128 406.914 102.426 407.212 102.277C406.989 102.352 406.84 102.575 406.84 102.798C406.989 103.468 408.477 102.575 409.816 101.607C410.114 101.979 410.486 102.277 410.858 102.649C410.04 103.245 409.221 103.841 408.328 104.213C407.733 104.511 407.361 105.702 408.328 105.33C409.444 104.809 410.635 104.138 411.677 103.394C412.569 104.213 413.388 105.032 414.281 105.851C412.272 107.042 410.337 108.308 408.477 109.574C406.691 110.765 405.054 112.179 403.492 113.594C402.003 114.86 400.441 117.242 398.73 118.136C398.581 118.21 398.209 118.731 398.655 118.731C399.399 118.731 399.474 118.508 400.143 117.987C402.227 116.051 404.533 114.264 406.766 112.477C409.519 110.244 412.718 108.829 415.843 107.117C417.778 108.755 419.713 110.318 421.722 111.733C421.424 112.03 421.126 112.328 420.903 112.626C418.001 115.753 415.62 119.327 413.239 122.826C412.793 123.422 413.537 123.645 413.909 123.124C416.215 120.146 418.448 117.242 421.052 114.562C421.722 113.892 422.391 113.222 423.061 112.626C425.442 114.264 427.823 115.753 430.204 117.093C428.567 119.699 427.6 122.901 426.186 125.357C425.74 126.102 426.856 125.879 427.153 125.432C428.27 123.72 429.237 121.858 430.204 120.071C430.651 119.252 431.097 118.582 431.618 117.838C433.032 118.582 434.371 119.327 435.785 119.997C437.719 120.965 440.324 122.007 442.928 122.603C439.208 126.623 437.422 133.398 436.678 138.685C436.603 139.503 437.868 138.759 438.017 138.312C438.91 135.26 440.249 132.356 441.737 129.601C442.779 127.517 444.491 125.357 445.011 123.049C446.351 123.198 447.69 123.273 448.881 123.049C446.574 129.899 446.648 138.312 447.02 144.79C447.095 145.683 448.36 144.864 448.434 144.268C449.178 134.813 452.378 126.549 454.461 117.54C454.312 117.317 454.312 117.093 454.238 116.87ZM446.5 119.029C446.574 118.657 446.723 118.284 446.797 117.987C446.872 117.689 446.797 117.391 446.5 117.168C446.425 117.093 446.351 117.093 446.276 117.093C446.648 111.658 429.014 93.9385 427.228 92.5239C424.4 90.2903 406.989 77.7078 402.524 80.4626C402.45 77.7823 403.789 75.8465 408.551 76.6655C415.769 77.9312 421.945 81.356 427.674 85.8232C436.826 92.9706 443.746 103.617 448.732 113.966C450.666 118.061 449.178 119.178 446.5 119.029Z" fill="#1C1D26"/>
<path opacity="0.7" d="M324.693 82.6965C314.276 78.8249 304.156 74.5811 293.665 71.1563C294.186 69.0716 292.846 66.9125 290.837 64.9023C291.507 64.6789 292.102 64.53 292.623 64.3811C300.585 62.5198 308.77 61.5519 316.508 58.9461C317.029 58.7972 317.55 57.5315 316.731 57.7549C309.96 59.5417 302.817 60.0629 295.897 61.1797C293.293 61.6264 290.763 62.1476 288.158 62.5943C285.777 60.733 283.173 59.2439 281.759 58.4249C282.727 57.6804 283.694 56.8614 284.289 56.4892C286.968 54.7023 289.944 53.1388 292.251 50.8308C292.772 50.3096 292.325 49.7884 291.73 50.2351C288.233 53.2877 283.62 54.7768 279.825 57.3826C279.155 57.0848 278.411 56.787 277.667 56.5636C277.816 56.3403 277.964 56.1914 278.113 55.968C279.081 54.7768 280.122 53.5855 281.015 52.3943C281.611 51.5753 280.569 51.3519 280.048 51.9476C278.932 53.3622 277.592 54.7023 276.402 56.1169C275.509 55.8191 274.542 55.5957 273.575 55.3724C271.268 54.33 268.589 53.5111 265.762 52.9154C265.836 50.0862 265.315 47.0337 265.166 44.5023C264.869 38.7695 265.613 32.8132 264.05 27.2293C263.901 26.7081 262.934 27.3782 263.008 27.8994C263.901 32.9621 262.934 38.3972 262.562 43.46C262.339 46.3636 262.488 49.3417 262.339 52.2454C260.404 51.9476 258.47 51.7242 256.609 51.5753C256.163 49.3417 254.6 47.1826 253.782 45.1724C253.484 44.5023 252.294 45.3957 252.517 45.9914C252.889 47.1081 253.261 48.2249 253.707 49.3417C254.005 50.0118 254.228 50.7563 254.452 51.4264C250.359 51.2775 246.564 51.5753 243.588 52.1709C242.844 51.6497 242.1 51.0541 241.356 50.5329C238.528 48.5227 233.915 46.7359 232.278 43.3855C231.98 42.7154 230.79 43.6089 230.939 44.2045C231.98 47.4059 235.775 50.0862 238.305 52.0965C238.751 52.4687 239.198 52.9154 239.644 53.3622C238.528 53.8833 237.635 54.4045 236.891 54.9257C235.18 54.4045 233.245 54.2556 231.534 53.8833C227.739 53.1388 223.944 52.841 220.15 51.7986C219.777 51.6497 219.108 52.3943 219.554 52.5432C222.382 53.5855 225.284 54.2556 228.26 54.8512C230.641 55.2979 233.022 56.2658 235.403 56.7125C234.287 59.4673 236.966 62.4454 240.463 64.9768C240.016 65.1257 239.57 65.2746 239.198 65.4979C237.635 66.168 235.626 66.7636 234.436 68.1038C233.989 68.6249 234.436 69.0716 235.031 68.7738C237.338 67.5826 239.868 66.987 242.397 66.3169C242.918 66.6147 243.439 66.987 243.96 67.2103C240.835 68.476 237.784 69.8906 234.733 71.0819C228.26 73.5388 221.042 77.5592 214.346 78.9738C213.825 79.0483 213.155 80.1651 214.048 80.0906C219.257 79.495 224.465 76.8147 229.451 75.1767C235.403 73.241 241.356 71.3052 247.16 68.9227C247.904 69.295 248.573 69.5928 249.169 69.8906C252.963 71.5286 256.981 72.7943 260.999 73.6877C260.553 75.0278 260.181 76.4424 259.809 77.857C258.842 81.803 257.726 85.749 257.205 89.7695C257.056 90.7373 258.767 89.9184 258.842 89.3227C259.958 84.1111 262.041 79.2717 263.753 74.2833C267.547 74.9534 271.342 75.2512 275.137 75.3257C275.732 76.2935 276.476 77.2614 277.072 78.1549C277.369 78.676 278.411 77.7826 278.188 77.3359C277.89 76.6658 277.593 75.9957 277.295 75.3257C277.593 75.3257 277.89 75.3257 278.188 75.3257C278.56 75.3257 279.081 75.3257 279.601 75.3257C280.122 75.7724 280.643 76.2191 281.09 76.6658C282.652 78.2293 284.289 79.6439 285.926 81.1329C286.521 81.6541 287.861 80.4629 287.34 79.8673C286.075 78.3782 284.885 76.8892 283.62 75.4001C285.777 75.3257 288.084 75.1768 289.87 74.5067C293.888 75.4001 297.906 76.1446 301.775 77.2614C309.067 79.2717 316.21 82.0264 323.577 83.8877C324.395 83.9622 325.288 82.8454 324.693 82.6965Z" fill="#1C1D26"/>
<path opacity="0.7" d="M410.039 362.415C403.045 365.095 396.199 368.222 389.428 371.572C382.583 374.923 374.993 378.645 368.445 383.336C363.162 385.644 357.879 389.664 355.424 394.131C351.331 401.651 363.683 400.981 367.924 400.534C381.467 399.045 395.009 393.015 406.84 386.686C415.769 381.921 429.237 373.806 434.371 364.797C442.704 349.981 414.355 360.702 410.039 362.415Z" fill="#0C0E16"/>
<g opacity="0.7">
<path d="M116.797 197.428C108.092 199.736 97.2281 202.267 88.2248 201.969C81.9001 201.746 75.9474 201.15 69.6228 201.299C69.3251 194.449 67.9857 187.823 65.3071 182.016C67.6881 181.346 70.0692 181.122 72.5991 180.825C75.5754 180.452 78.6261 179.41 81.528 178.74C82.1233 178.591 82.9418 177.251 81.9001 177.4C78.6261 177.921 75.4265 178.666 72.1526 179.038C69.5483 179.336 66.9441 179.261 64.6375 180.676C64.4886 180.378 64.3398 180.08 64.1909 179.708C64.935 179.633 65.6791 179.484 66.4232 179.336C67.6137 179.038 68.8043 178.666 69.846 177.995C70.5901 177.623 70.4412 176.506 69.5483 177.028C68.1345 177.772 66.4233 178.07 64.8607 178.07C64.3399 178.07 63.819 178.144 63.3726 178.293C62.8517 177.474 62.2564 176.73 61.6611 176.06C62.2564 176.06 62.9261 176.06 63.5213 175.911C66.5721 175.39 69.3995 173.305 72.1526 172.039C76.3194 170.029 80.9327 166.828 82.7929 162.435C83.0162 161.839 82.1978 162.063 81.9746 162.36C78.7006 166.902 67.9858 171.22 62.554 170.774C59.2056 170.476 56.5269 170.997 54.3691 173.007C52.8065 173.23 51.2439 174.049 49.8301 175.613C46.1097 179.782 43.7288 184.473 42.0918 189.461C31.8979 207.404 28.2519 233.388 31.749 251.703C32.6419 256.32 35.0229 266.222 41.2732 266.371C43.7287 268.009 47.5979 269.2 48.714 269.647C52.2856 271.136 55.7829 272.922 59.2056 274.709C64.191 277.39 65.9767 281.485 69.5483 285.505C69.9203 285.952 70.8132 285.133 70.6644 284.686C69.6227 281.41 68.4322 278.283 66.6464 275.305C65.1583 272.848 60.4705 271.136 58.015 269.944C54.5179 268.157 50.872 266.892 47.1516 265.626C46.9283 265.552 46.4819 265.403 45.8867 265.254C49.9047 263.393 53.1042 259.223 55.5597 254.979C56.9735 255.426 58.3872 255.873 59.8009 256.32C62.9261 257.362 65.3072 259.298 68.2091 260.787C68.7299 261.085 69.7715 259.968 69.1762 259.595C66.4231 257.809 64.3398 255.873 61.2146 254.533C59.8009 253.863 58.3128 253.267 56.8246 252.671C57.8663 250.736 58.7592 248.8 59.5777 247.236C59.8753 246.641 60.1729 245.971 60.4705 245.375C62.2563 245.747 64.1166 246.194 65.9024 246.566C71.4086 247.683 77.138 249.47 82.7187 250.14C83.4627 250.214 84.5787 248.8 83.537 248.576C80.6351 247.981 77.9564 246.417 75.1289 245.449C72.6734 244.63 70.0692 244.184 67.5393 243.514C65.9023 243.067 63.8933 242.322 61.9587 241.727C64.2653 236.068 66.2743 229.666 67.6881 223.039C68.0601 222.741 68.6554 222.071 68.0601 221.922C67.9857 221.922 67.9857 221.848 67.9113 221.848C68.581 218.423 69.0276 214.924 69.3252 211.425C70.8878 211.425 72.3759 211.499 73.9385 211.648C76.9148 211.946 79.7423 212.765 82.7187 212.839C83.3139 212.839 84.2811 211.648 83.3883 211.574C80.5607 211.276 77.8076 210.233 74.9801 209.712C73.1943 209.34 71.3342 209.266 69.474 209.266C69.5484 208 69.6228 206.66 69.6228 205.394C70.6645 205.543 71.8551 205.543 73.4176 205.617C78.403 205.99 83.6115 206.734 88.5968 206.66C97.377 206.436 108.538 201.895 116.574 198.693C117.095 198.395 117.616 197.204 116.797 197.428ZM62.4795 184.547C57.1221 196.534 50.3511 207.255 47.3748 220.21C44.7705 231.75 46.7051 245.822 49.3838 257.287C45.7378 260.936 41.571 262.127 38.4459 255.128C36.288 250.214 35.9904 244.482 35.9904 238.972C36.1392 238.972 36.288 238.898 36.4368 238.749C37.8505 238.823 39.6363 238.451 40.4548 238.302C41.0501 238.153 41.5709 237.706 41.7197 237.185C41.7941 236.813 41.7198 236.59 41.4222 236.441C39.7108 235.92 37.5529 236.366 35.9904 235.324C35.9159 235.324 35.9159 235.324 35.8415 235.249C35.8415 233.388 35.8415 231.378 35.9159 229.293C37.2552 228.995 38.5945 228.474 39.7851 227.953C40.5291 227.655 41.1245 226.092 39.8595 226.464C38.669 226.836 37.3297 227.283 36.0647 227.283C36.3624 220.88 37.032 214.179 38.3714 207.553C38.4458 207.925 39.1155 207.553 39.1899 207.255C41.4222 199.214 44.1752 191.769 47.4491 184.026C52.1368 173.007 58.8336 177.847 62.7773 184.101C62.7028 184.249 62.5539 184.398 62.4795 184.547Z" fill="#1C1D26"/>
<path d="M42.3151 217.53C41.6454 217.53 40.9013 217.604 40.2316 217.604C39.3387 217.53 39.0411 217.158 38.3714 216.86C37.925 216.636 37.3297 217.232 37.1808 217.604C36.5112 219.838 40.6781 219.093 41.7198 219.019C42.2407 218.87 43.1336 217.53 42.3151 217.53Z" fill="#1C1D26"/>
</g>
<path opacity="0.7" d="M212.04 384.006C211.593 377.975 201.92 374.178 198.051 379.836C196.489 382.145 197.158 384.304 198.87 385.867C199.911 387.803 201.846 389.366 203.781 390.26C206.98 391.6 210.552 389.59 211.668 386.388C211.891 385.793 211.965 385.272 211.965 384.676C212.189 384.453 212.337 384.155 212.04 384.006Z" fill="#1C1D26"/>
<path opacity="0.7" d="M110.695 364.648C107.421 361.223 104.296 356.905 99.0128 358.394C95.6645 359.362 94.3995 362.489 95.2924 365.318C95.218 365.988 95.2924 366.658 95.6645 367.328C98.3431 371.87 107.421 377.752 112.332 373.657C115.755 370.828 113.076 367.105 110.695 364.648Z" fill="#1C1D26"/>
<path opacity="0.7" d="M416.811 280.814C414.802 280.963 412.941 282.378 411.528 283.718C410.04 285.133 408.775 286.845 408.551 288.93C408.477 289.451 408.775 290.121 409.295 290.27C411.081 290.791 412.718 290.344 414.281 289.376C415.546 288.558 418.001 286.324 417.629 284.463C417.927 283.867 418.224 283.197 418.373 282.601C418.671 281.41 418.001 280.74 416.811 280.814Z" fill="#1C1D26"/>
<path opacity="0.7" d="M458.33 217.679C455.8 213.509 450.368 214.105 447.168 217.083C444.341 219.689 442.778 222.742 441.439 225.943C438.686 230.187 436.826 235.324 436.528 238.302C436.305 240.61 436.454 243.439 437.272 245.971C437.347 246.417 437.347 246.79 437.495 247.236C438.388 252.001 443.82 255.352 448.136 252.374C451.633 251.704 454.609 249.619 457.065 246.715C463.315 239.196 463.389 225.869 458.33 217.679Z" fill="#0C0E16"/>
<path opacity="0.7" d="M447.615 189.982C447.168 189.312 446.35 189.312 445.606 189.461C444.341 189.759 443.076 190.876 443.15 192.29C443.002 192.663 442.927 193.109 442.853 193.631C442.778 194.301 443.522 194.598 444.043 194.524C444.862 194.375 445.457 193.779 445.903 193.109C445.978 193.035 446.052 192.886 446.052 192.812C446.201 192.737 446.35 192.663 446.499 192.514C447.317 192.067 448.285 190.95 447.615 189.982Z" fill="#1C1D26"/>
<path opacity="0.7" d="M355.87 88.1313C353.787 85.8233 349.992 85.3766 347.76 87.6102C347.388 87.5357 346.792 88.1313 346.941 88.5036C346.941 88.578 346.941 88.5781 346.941 88.6525C346.346 89.6948 346.272 90.8861 347.537 91.6306C347.983 91.9284 348.429 92.0773 348.876 92.2262C349.918 93.343 351.406 94.0875 353.043 94.162C356.168 94.162 357.879 90.4394 355.87 88.1313Z" fill="#1C1D26"/>
<path opacity="0.6" d="M262.414 13.7533C231.534 6.38254 199.762 20.6774 172.901 35.1957C172.305 35.4935 172.157 36.5358 173.049 36.3125C187.113 31.622 200.506 25.0701 214.643 20.4541C230.418 15.3168 245.448 13.2322 261.893 14.7957C262.339 14.7957 263.009 13.9022 262.414 13.7533Z" fill="#A7ABC1"/>
<defs>
<radialGradient id="paint0_radial_16486_28084" cx="0" cy="0" r="1" gradientUnits="userSpaceOnUse" gradientTransform="translate(132.436 -95.5324) scale(563.268 563.605)">
<stop stop-color="#C4C5CE"/>
<stop offset="0.2199" stop-color="#9192A0"/>
<stop offset="0.6059" stop-color="#737995"/>
<stop offset="1" stop-color="#303034"/>
</radialGradient>
</defs>
</svg>
