<svg width="387" height="294" viewBox="0 0 387 294" fill="none" xmlns="http://www.w3.org/2000/svg">
<path d="M17.7961 158.557C15.4895 160.567 13.1828 162.652 11.025 164.811C7.08139 169.725 3.50982 175.086 1.64962 181.042C-1.3267 190.646 -0.0618213 200.176 3.73299 209.408C7.67662 218.938 12.0667 227.798 13.406 238.221C14.7454 248.719 14.4478 260.706 20.326 269.938C29.7014 284.754 46.8897 289.147 63.5571 288.7C79.1828 288.254 93.7667 283.861 109.02 281.181C125.539 278.277 142.206 277.086 158.948 278.128C176.881 279.245 194.664 281.925 212.299 285.276C230.678 288.775 249.205 293.242 268.03 293.54C287.525 293.838 306.723 289.594 322.423 277.458C337.23 266.067 349.582 251.995 362.38 238.445C367.291 233.233 372.871 228.245 377.038 222.363C378.601 219.013 380.089 215.737 381.503 212.461C383.065 208.813 384.181 205.165 385.149 201.516C385.521 199.059 385.744 196.528 385.893 193.997C386.265 183.797 385.67 173.671 386.116 163.546C385.223 157.664 383.958 151.782 382.544 145.975C379.271 132.797 375.104 119.693 371.904 106.962C364.314 76.4361 359.701 61.3967 328.524 49.5587C312.452 43.4536 297.124 35.3383 282.763 25.9573C270.188 17.693 258.655 6.82295 243.848 2.72806C229.561 -1.21793 212.894 0.494488 198.31 1.76018C182.61 3.17478 166.91 6.22732 151.731 10.3967C138.04 14.1193 124.795 19.4054 112.294 26.404C99.1241 33.7748 88.5582 44.1237 78.0667 54.7704C63.7059 69.3631 63.1851 89.0186 58.1997 107.632C52.0983 129.893 34.91 144.039 17.7961 158.557Z" fill="url(#paint0_radial_16486_28003)"/>
<path opacity="0.2" d="M385.967 163.546C385.074 157.664 383.809 151.782 382.396 145.975C379.122 132.797 374.955 119.693 371.755 106.962C364.166 76.4361 359.552 61.3967 328.375 49.5587C312.303 43.4536 296.975 35.3383 282.614 25.9573C270.039 17.693 258.506 6.82295 243.699 2.72806C229.413 -1.21793 212.745 0.494488 198.161 1.76018C182.461 3.17478 166.761 6.22732 151.582 10.3967C137.891 14.1193 124.646 19.4054 112.146 26.404C98.9754 33.7748 88.4094 44.1237 77.9179 54.7704C63.5571 69.3631 63.0362 89.0186 58.0509 107.632C52.0982 129.819 34.91 143.965 17.7961 158.483C15.4895 160.493 13.1828 162.578 11.025 164.737C7.08139 169.651 3.50982 175.011 1.64962 180.967C-1.3267 190.572 -0.0618213 200.102 3.73299 209.334C7.67662 218.864 12.0667 227.724 13.406 238.147C14.7454 248.645 14.4478 260.632 20.326 269.864C29.7014 284.68 46.8897 289.073 63.5571 288.626C79.1828 288.179 93.7667 283.786 109.02 281.106C125.539 278.202 142.206 277.011 158.948 278.054C176.881 279.17 194.664 281.851 212.299 285.201C230.678 288.7 249.205 293.168 268.03 293.465C287.525 293.763 306.723 289.519 322.423 277.383C337.23 265.992 349.582 251.921 362.38 238.37C367.291 233.159 372.871 228.17 377.038 222.289C378.601 218.938 380.089 215.662 381.503 212.386C383.065 208.738 384.181 205.09 385.149 201.442C385.521 198.985 385.744 196.454 385.893 193.922C386.116 183.797 385.521 173.671 385.967 163.546ZM362.826 136.668C360.073 137.04 351.888 134.732 351.144 139.2C350.698 141.88 350.698 144.56 350.772 147.315C350.995 154.388 349.73 161.759 348.838 168.757C348.689 170.097 347.275 170.47 346.457 169.427C343.48 165.556 341.471 161.163 338.941 157.068C339.537 161.238 341.322 165.258 341.62 169.576C341.694 170.246 341.025 170.916 340.355 170.842C332.021 170.097 323.836 165.928 315.428 166.821C309.029 167.492 313.643 182.68 313.643 186.626C313.568 200.251 298.538 206.132 293.255 217.673C292.734 218.864 290.799 218.268 290.874 217.002C291.246 205.09 296.157 194.518 302.184 184.541C294.148 187.519 288.865 195.411 282.986 201.442C282.242 202.186 281.201 201.74 280.829 200.846C279.117 196.751 278.82 192.433 278.596 188.115C276.215 192.657 274.281 197.422 271.156 201.591C270.56 202.41 269.519 202.41 268.923 201.591C266.989 198.911 266.021 196.007 265.054 192.954C262.747 195.411 260.515 198.166 258.134 200.251C255.604 202.484 257.465 204.867 257.613 207.473C257.837 211.568 253.893 214.024 250.768 216.035C246.08 219.087 242.881 220.576 237.449 218.343C234.919 217.3 232.761 215.513 231.124 213.28C231.124 213.875 231.199 214.397 231.124 214.918C231.124 215.662 230.306 216.481 229.487 216.184C228.52 215.811 227.552 215.588 226.511 215.365C227.255 220.502 228.817 225.416 229.115 230.627C229.189 231.297 228.52 231.967 227.85 231.967C222.493 231.744 217.359 230.33 212.15 229.436C218.624 233.01 226.883 237.924 224.576 244.327C223.609 247.007 221.302 249.017 219.963 251.548C218.847 253.708 218.028 256.462 216.466 258.324C213.564 261.674 208.802 262.046 204.635 261.525C190.2 259.962 175.244 255.271 161.478 250.878C153.293 248.273 145.108 245.592 136.7 243.582C133.798 242.912 129.259 242.465 127.846 239.264C125.613 234.052 126.953 229.957 127.92 224.597C128.515 221.47 129.483 216.854 124.944 215.588C123.828 215.29 122.563 214.992 121.447 214.471C119.661 213.578 118.024 212.684 116.61 211.27C111.104 206.058 122.786 200.846 123.456 196.454C124.348 189.827 113.931 186.105 113.187 179.553C113.039 177.989 112.89 176.798 113.113 175.235C113.41 173.076 114.75 170.767 113.113 170.916C110.806 170.991 108.5 171.14 106.193 171.289C103.812 171.363 98.2312 172.48 96.2966 170.47C93.99 168.162 94.8085 165.109 94.4364 162.503C92.4274 162.205 90.4184 162.28 88.1861 162.801C75.2391 165.779 65.8637 172.182 58.795 183.424C55.4466 188.711 52.8423 190.572 47.1129 190.87C48.7499 197.347 48.229 204.271 51.3541 210.302C51.6518 210.823 51.5774 211.493 51.131 211.865C49.3452 213.578 47.2617 215.067 45.6248 216.854C44.3598 218.268 43.9878 219.459 44.1366 220.427C46.5177 222.959 52.4703 223.778 55.3722 224.894C56.0419 225.192 56.7115 225.49 57.3068 225.862C58.9438 226.235 60.5808 226.756 62.0689 227.575C63.4827 227.5 64.8965 226.979 66.459 226.607C67.2031 226.458 68.1704 226.979 68.096 227.873C67.9471 228.915 67.8728 229.957 67.9472 231C71.5188 230.553 75.0159 230.404 78.5131 229.585C79.5548 229.362 80.2245 230.255 80.0757 231.148C78.8852 238.743 75.2391 246.188 69.9562 251.772C65.0452 256.909 61.4737 264.205 55.3722 268.151C54.7025 268.598 53.5864 268.151 53.4376 267.407C51.6518 256.462 49.7916 244.699 43.0949 235.541C39.6721 230.851 30.6688 220.502 24.6417 227.724C22.1119 230.702 20.6981 234.35 18.8379 237.7C18.3914 238.519 17.0521 238.594 16.6056 237.7C14.5222 233.382 13.7781 228.84 13.1829 224.15C12.29 217.151 10.653 210.525 9.16481 203.675C7.1558 194.294 5.59319 184.02 11.9179 175.905C13.4804 173.895 15.2663 171.959 17.2009 170.023C20.1772 166.747 23.7488 163.918 27.3204 161.312C28.4365 160.419 29.5526 159.525 30.6688 158.706C32.7522 157.068 35.5797 154.462 38.6304 152.899C44.9551 147.464 50.4613 140.912 54.777 133.69C58.423 125.649 61.2505 117.236 63.4827 108.451C66.9055 95.0492 68.9145 78.6696 76.9505 66.9806C82.0103 58.1207 90.1208 50.9733 98.3057 45.0916C111.625 35.4872 126.209 27.5952 142.058 23.0536C157.832 18.4375 175.318 12.1836 191.985 13.5982C193.474 13.7471 193.697 15.6083 192.357 16.1295C183.726 19.6288 174.499 22.1602 166.315 26.7018C156.865 31.9879 149.722 39.5821 143.843 48.6653C141.239 52.6857 139.23 56.8551 136.923 61.0989C136.254 62.3646 134.84 65.566 133.203 66.0127C129.929 66.9062 128.292 67.204 126.283 70.331C125.613 71.4478 124.944 72.7134 124.125 73.6813C121 77.7018 112.964 86.0405 122.265 89.3164C126.06 90.6565 131.12 92.4434 131.12 97.3573C131.194 100.857 130.227 104.058 129.483 107.408C128.664 111.205 129.111 114.556 129.408 118.353C129.855 123.639 129.929 129 125.093 132.35C119.735 135.998 111.922 137.338 107.532 142.327C112.741 144.411 118.247 145.677 123.604 147.24C130.748 148.506 138.04 149.027 145.183 150.442C145.852 150.591 146.299 151.41 146.076 152.005C144.587 156.175 153.07 155.877 154.558 159.376C155.749 162.131 154.558 164.886 153.74 167.641C160.957 166.077 169.589 163.992 170.63 174.043C170.928 177.394 170.705 180.819 170.854 184.169C170.854 184.988 170.779 191.763 173.681 188.487C174.5 187.594 175.169 186.626 175.69 185.509C177.327 181.935 178.146 177.84 181.271 175.235C184.173 172.852 189.009 173.969 192.432 174.49C195.036 174.862 198.831 174.192 200.914 176.128C208.058 182.903 202.923 196.751 203.667 205.835C211.48 198.985 214.085 188.189 219.591 179.553C219.665 179.478 219.665 179.404 219.74 179.33C222.121 173.522 225.618 170.246 230.975 166.97C237.821 162.801 245.485 155.207 253.447 153.569C260.664 152.08 267.063 155.132 273.016 158.93C272.867 155.579 271.974 152.229 271.751 148.804C271.676 147.985 272.644 147.315 273.388 147.538C277.555 148.804 295.487 154.835 296.678 147.762C297.273 144.039 298.017 137.115 294.892 134.211C292.585 132.127 289.534 131.084 287.228 129.074C279.117 122.001 291.097 106.217 293.552 98.5485C293.701 98.0273 294.222 97.5806 294.817 97.5806C300.472 97.8784 305.234 96.8361 308.434 91.8478C310.666 88.4974 312.601 84.9237 314.982 81.7222C316.172 80.1587 317.735 78.7441 318.702 77.1062C320.339 74.3514 314.238 73.6069 312.824 73.2346C309.327 72.2667 305.755 71.2989 302.481 69.5864C288.344 62.2901 309.625 54.5471 317.14 54.9193C319.595 55.0682 321.902 56.6317 323.762 58.0463C327.334 60.9499 330.831 63.7792 334.774 66.1616C341.248 69.9587 348.317 73.6069 353.079 79.5631C357.99 85.7427 356.427 95.0492 357.171 102.42C358.287 113.662 363.198 124.086 364.017 135.403C364.166 136.147 363.496 136.594 362.826 136.668Z" fill="#484A56"/>
<path d="M302.63 80.6055C298.091 76.8828 292.659 74.5004 287.376 72.0434C284.4 70.6288 281.275 69.4376 278.224 68.0974C275.62 66.9806 274.504 58.4186 273.313 55.9617C272.346 53.877 269.742 52.0901 268.105 50.6011C263.566 46.2828 269.146 37.6463 271.825 33.9981C273.685 31.4668 276.141 28.9354 276.513 25.7339C276.587 24.9894 275.694 24.9149 275.248 25.0638C269.072 27.4463 258.208 39.0609 251.884 35.4872C247.345 32.9558 243.401 31.169 238.341 29.8288C233.505 28.4887 228.594 27.9675 227.329 22.3836C226.436 18.4376 222.567 20.8945 221.451 23.2025C221.302 23.5003 219.888 26.3295 219.591 27.0741C219.516 27.0741 219.516 27.0741 219.442 27.0741C218.623 25.3617 218.251 23.277 217.805 21.4157C217.21 18.8099 217.954 15.2361 215.126 13.8215C214.754 13.5982 214.233 13.8215 213.935 14.0449C212.001 15.3106 211.257 17.3208 210.438 19.4799C209.694 21.4157 209.322 23.4259 208.801 25.4361C208.578 26.2551 207.983 26.8507 207.09 27.3719C201.584 27.8186 196.152 28.6376 190.869 29.6055C186.628 29.4566 183.726 28.4886 180.154 30.8711C177.624 32.5835 175.764 27.9675 173.011 27.4463C172.49 27.3719 171.895 27.8186 171.597 28.1909C169.812 30.35 169.067 33.2536 168.398 36.0828C167.654 36.3806 166.91 36.7529 166.24 37.0507C165.347 36.3062 164.529 35.6361 163.71 34.8916C162.445 33.2536 159.097 30.7223 159.022 30.7223C158.948 30.6478 158.948 30.6478 158.874 30.6478C158.055 29.9777 156.716 31.169 156.939 32.0624C157.609 34.966 158.502 37.8697 159.543 40.6989C151.507 45.7617 144.885 52.6113 140.569 61.8434C138.337 66.6828 136.774 71.8201 135.882 77.1062C129.334 77.1062 120.628 77.0318 118.544 78.3719C117.875 78.8186 129.482 85.6682 134.319 89.8376C134.542 90.0609 134.765 90.2843 134.989 90.5077C135.063 94.1558 135.435 97.7295 135.956 101.229C135.137 104.356 134.245 107.483 134.765 110.089C135.286 112.62 139.751 113.811 135.882 117.013C134.765 117.906 133.203 119.246 132.831 120.735C131.789 124.086 134.84 126.096 137.667 127.213C131.715 131.68 123.083 134.211 119.214 140.391C116.312 145.007 146.596 146.198 152.326 145.454C158.13 144.709 155.674 147.613 156.195 150.367C156.492 151.782 159.543 151.41 160.362 151.41C162.147 151.41 159.022 157.44 158.874 158.632C158.799 158.93 159.022 159.302 159.32 159.451C161.924 160.716 164.975 159.227 167.654 158.483C171.895 157.217 172.044 159.078 173.011 163.099C173.606 165.63 173.755 168.162 174.648 170.619C174.946 171.438 175.987 171.14 176.508 170.842C180.601 168.608 183.726 165.407 186.702 161.982C194.217 163.769 202.03 163.694 209.843 162.652C210.141 165.035 210.215 167.492 210.29 168.236C210.736 172.108 211.108 175.979 211.629 179.851C211.852 181.34 214.159 179.627 214.456 179.032C216.763 174.788 217.805 169.948 219.07 165.332C219.665 163.248 220.855 161.535 222.418 160.195C225.99 159.302 229.487 158.259 232.91 157.068C236.035 156.026 239.011 154.76 241.987 153.271C242.508 153.197 242.955 153.048 243.476 152.899C247.196 151.857 251.735 150.219 254.265 147.166C255.306 145.9 256.05 144.784 256.72 143.518C257.464 142.848 258.208 142.252 258.952 141.582C261.482 142.029 265.872 145.975 267.137 146.868C268.179 147.613 270.039 145.677 269.742 144.635C268.7 141.21 267.36 137.859 266.393 134.36C273.983 137.264 281.126 141.135 288.418 144.411C289.385 144.858 291.543 143.294 290.948 142.178C288.864 138.008 284.102 134.062 280.456 131.382C277.852 129.521 275.248 127.659 273.016 125.277C272.792 125.054 272.643 124.681 272.569 124.309C272.792 123.862 273.09 123.416 273.388 122.895C274.206 121.331 274.95 119.693 275.62 118.13C277.034 115.449 278.15 112.62 279.043 109.791C281.052 106.366 285.07 102.271 284.4 98.2507C284.326 97.8784 282.763 96.5383 281.572 95.5704C281.572 95.0493 281.647 94.5281 281.647 94.0069C284.921 93.0391 289.013 93.3368 292.287 93.039C293.106 92.9646 294.966 91.3266 293.999 90.4332C290.725 87.3806 286.483 84.7748 282.317 82.6901C288.492 82.2434 294.519 82.839 300.77 82.9879C301.365 83.0624 303.746 81.4989 302.63 80.6055Z" fill="url(#paint1_radial_16486_28003)"/>
<path opacity="0.6" d="M267.956 29.4566C265.649 31.0201 263.342 32.6581 260.813 33.9982C259.548 34.6683 258.283 35.1895 256.943 35.6362C255.604 36.0085 254.19 36.0829 252.851 35.7106L251.884 35.3384L250.916 34.8172L249.056 33.7749C247.791 33.1048 246.526 32.5092 245.187 31.9136C243.848 31.4668 242.583 30.7968 241.169 30.4245C239.83 30.0522 238.416 29.5311 237.076 29.2333C235.737 28.861 234.323 28.5632 233.058 28.042C231.793 27.5953 230.529 26.9252 229.561 25.9574C228.594 24.9895 227.999 23.7982 227.627 22.4581C227.478 22.0858 227.478 21.788 227.255 21.4158C227.106 21.0435 226.883 20.6712 226.51 20.3734C225.841 19.7778 224.799 19.7778 224.055 20.0012C222.567 20.5968 221.451 21.7135 220.781 23.0537L219.367 26.0318C219.219 25.734 219.144 25.4362 219.07 25.0639C218.846 24.4683 218.698 23.8727 218.549 23.2026L218.102 21.3413C217.954 20.7457 217.879 20.0756 217.805 19.48C217.73 18.8844 217.73 18.2143 217.656 17.5442C217.656 17.2464 217.582 16.8742 217.507 16.5764C217.433 16.2041 217.358 15.9063 217.209 15.534C217.061 15.2362 216.912 14.8639 216.689 14.5661C216.465 14.2683 216.242 13.9705 215.945 13.7471L215.498 13.4493L215.275 13.3004C215.2 13.3004 215.349 13.3749 215.2 13.3004H215.126H214.977C214.903 13.226 214.382 13.3004 214.233 13.3004C214.01 13.3749 213.787 13.4493 213.638 13.5238C213.266 13.7471 213.117 13.896 212.819 14.1194C212.596 14.4172 212.299 14.6406 212.075 14.8639C211.629 15.3851 211.257 15.9807 210.959 16.5764C210.662 17.172 210.364 17.7676 210.141 18.3632C209.992 18.661 209.917 18.9588 209.769 19.3311L209.471 20.299C209.099 21.4902 208.727 22.7559 208.429 24.0216L208.206 24.9895L208.132 25.2128C208.132 25.1384 208.057 25.2873 208.057 25.3617C207.983 25.5107 207.908 25.734 207.834 25.734C207.611 26.0318 207.239 26.4041 206.792 26.7019L198.756 27.5953L190.72 28.9355L188.934 28.861L187.074 28.7121C186.479 28.6377 185.809 28.6376 185.14 28.6376C184.47 28.7121 183.8 28.6377 183.205 28.861C182.535 28.9355 181.94 29.2333 181.27 29.4566C180.675 29.68 180.005 30.1267 179.559 30.3501L179.187 30.5734C179.113 30.5734 179.038 30.5734 178.964 30.5734C178.74 30.5734 178.592 30.5734 178.369 30.4989C177.922 30.35 177.476 29.9778 177.029 29.6056C176.136 28.861 175.243 27.8931 174.053 27.1486C173.458 26.8508 172.714 26.4041 171.597 27.0741C171.225 27.2975 170.928 27.5208 170.704 27.8931L170.184 28.6376L169.663 29.3822C169.514 29.68 169.365 29.9778 169.216 30.2756C168.919 30.8712 168.621 31.4668 168.472 32.1369C168.1 33.2537 167.803 34.3705 167.579 35.4128L166.091 36.0829L163.933 34.2216L164.008 34.2961L162.892 33.1048C162.52 32.7325 162.073 32.3603 161.701 31.988C161.329 31.6157 160.883 31.318 160.511 30.9457L159.915 30.4245C159.841 30.3501 159.618 30.2011 159.469 30.1267L159.022 29.8289L159.32 29.9778L159.171 29.8289L159.022 29.7544H158.948L158.874 29.68C158.799 29.68 158.799 29.6056 158.65 29.6056C158.502 29.5311 158.353 29.5311 158.204 29.5311C157.906 29.5311 157.683 29.6056 157.534 29.6056C157.311 29.68 157.162 29.7544 157.013 29.8289C156.716 30.0523 156.418 30.2756 156.269 30.5734C156.046 30.8712 155.897 31.2435 155.972 31.7646C155.972 32.0625 156.046 32.1369 156.046 32.2858L156.12 32.6581L156.344 33.4026L156.716 34.8917C156.939 35.8595 157.237 36.9019 157.609 37.8698L158.427 40.2523L156.567 41.518C155.748 42.0391 155.079 42.6347 154.26 43.2304C153.516 43.826 152.772 44.4216 152.028 45.0172C151.358 45.6873 150.614 46.2085 149.945 46.953L147.936 48.9632L146.075 51.1223C145.406 51.8668 144.885 52.6114 144.364 53.3559C143.769 54.1004 143.248 54.845 142.727 55.6639L141.239 58.1209L139.899 60.6522C139.453 61.4712 139.081 62.4391 138.709 63.2581C138.337 64.1515 137.965 64.9705 137.667 65.8639L136.774 68.5442C136.477 69.4377 136.254 70.4055 136.03 71.299C135.807 72.1924 135.509 73.0858 135.361 74.0537L134.914 76.2128C131.938 76.2128 129.036 76.2128 126.06 76.2873C124.497 76.3617 122.86 76.4362 121.223 76.6595C120.851 76.6595 120.405 76.8085 120.033 76.8829C119.586 76.9574 119.214 76.9573 118.768 77.1807L118.098 77.4785L117.949 77.553H117.875H117.8C117.652 77.7019 118.098 77.2552 117.503 77.8508C117.503 77.8508 117.503 77.9253 117.428 77.9997C117.354 78.2231 117.428 78.4464 117.503 78.6698C117.577 78.8187 117.577 78.8186 117.726 78.8931C118.098 79.2654 118.396 79.4888 118.768 79.7121C121.372 81.6479 124.051 83.2858 126.655 85.0727C127.994 85.9661 129.259 86.8595 130.524 87.753C131.194 88.1997 131.789 88.7209 132.384 89.1676L133.277 89.9121C133.426 90.061 133.649 90.2844 133.872 90.5077L134.17 95.6449L134.84 100.931C134.245 103.388 133.426 105.919 133.5 108.674C133.5 109.046 133.575 109.419 133.649 109.716V110.014C133.724 110.238 133.724 110.238 133.724 110.312C133.798 110.461 133.798 110.61 133.947 110.833C134.319 111.578 134.765 112.099 135.212 112.62C135.658 113.067 136.03 113.588 136.254 114.035C136.402 114.481 136.402 114.779 136.105 115.226C135.807 115.673 135.435 116.045 134.914 116.492C134.393 116.864 133.947 117.385 133.426 117.832C133.203 118.055 132.98 118.353 132.756 118.651C132.533 118.949 132.31 119.246 132.161 119.544C132.012 119.916 131.789 120.14 131.715 120.661L131.566 121.629C131.566 122.001 131.64 122.448 131.715 122.82C131.789 123.192 132.012 123.565 132.087 123.862C132.459 124.533 132.905 125.128 133.5 125.575C133.724 125.873 134.021 126.022 134.319 126.245C134.617 126.468 134.914 126.617 135.212 126.766C135.435 126.915 135.733 127.064 135.956 127.138C135.361 127.511 134.84 127.957 134.244 128.255C133.277 128.851 132.384 129.372 131.417 129.893C129.557 131.01 127.622 131.978 125.762 133.169C124.795 133.765 123.902 134.36 123.009 135.03C122.042 135.626 121.297 136.445 120.479 137.189C120.033 137.562 119.735 138.008 119.363 138.455C118.991 138.902 118.693 139.274 118.321 139.87L118.172 140.242C118.098 140.391 118.098 140.689 118.098 140.987C118.247 141.433 118.47 141.731 118.693 141.954C119.214 142.401 119.735 142.624 120.256 142.922C122.414 143.741 124.571 144.114 126.729 144.486C128.887 144.858 131.119 145.081 133.277 145.23C137.667 145.603 141.983 145.826 146.373 145.826C148.531 145.826 150.763 145.752 152.921 145.454C153.888 145.379 155.153 145.379 155.376 146.198C155.6 147.092 155.302 148.208 155.376 149.4C155.376 149.698 155.376 149.921 155.451 150.293L155.525 150.517C155.6 150.591 155.6 150.74 155.674 150.74C155.823 150.889 155.897 151.038 156.046 151.112C156.641 151.41 157.162 151.484 157.757 151.484C158.353 151.484 158.874 151.484 159.394 151.484H159.766C159.692 151.484 160.064 151.484 159.99 151.559C159.99 151.559 160.064 151.857 160.064 152.08C159.841 154.165 158.725 156.1 158.129 158.26C158.129 158.334 158.129 158.334 158.055 158.557V158.781C158.055 158.93 158.204 159.153 158.278 159.227C158.353 159.376 158.502 159.451 158.725 159.525L159.097 159.674C159.618 159.897 160.138 159.972 160.734 159.972C161.85 159.972 162.966 159.749 164.008 159.451L167.133 158.408C168.175 158.111 169.291 157.813 170.258 158.185C171.225 158.632 171.523 159.897 171.821 160.865C172.118 161.908 172.341 162.95 172.565 164.067C173.011 166.226 173.309 168.385 174.053 170.47C173.383 168.385 173.086 166.226 172.714 164.067C172.49 163.025 172.267 161.908 172.044 160.865C171.746 159.823 171.523 158.632 170.407 158.036C169.365 157.589 168.175 157.887 167.133 158.111L164.008 159.079C162.966 159.376 161.924 159.525 160.808 159.525C160.287 159.451 159.766 159.451 159.246 159.153C158.65 159.004 158.427 158.781 158.501 158.26C159.097 156.249 160.287 154.314 160.585 152.006C160.585 151.857 160.585 151.708 160.585 151.559C160.511 151.41 160.511 151.187 160.287 151.038C160.064 150.889 160.064 150.963 159.766 150.889H159.394C158.874 150.889 158.278 150.963 157.757 150.889C157.237 150.889 156.716 150.814 156.344 150.517C155.972 150.293 155.972 149.846 155.897 149.325C155.823 148.283 156.269 147.241 155.972 145.975C155.823 145.305 155.079 144.858 154.484 144.784C153.888 144.635 153.293 144.709 152.772 144.709C150.614 145.007 148.456 145.007 146.299 145.007C141.983 144.933 137.593 144.709 133.277 144.337C131.119 144.114 128.962 143.89 126.804 143.518C124.72 143.146 122.562 142.773 120.628 141.954C120.181 141.731 119.735 141.508 119.437 141.21C119.288 141.061 119.214 140.912 119.14 140.763C119.214 140.763 119.14 140.763 119.14 140.689L119.288 140.316C119.512 140.093 119.884 139.572 120.181 139.2C120.553 138.753 120.777 138.381 121.223 138.008C122.042 137.338 122.711 136.519 123.679 135.924C124.571 135.254 125.39 134.658 126.357 134.137C128.217 133.02 130.152 131.978 132.012 130.935C132.98 130.414 133.947 129.819 134.84 129.298C135.807 128.702 136.7 128.106 137.593 127.436C137.667 127.362 137.742 127.287 137.816 127.138C137.965 126.841 137.816 126.468 137.518 126.319H137.444C136.849 126.096 136.254 125.798 135.733 125.5C135.435 125.352 135.212 125.203 134.989 125.054C134.765 124.905 134.468 124.681 134.244 124.458C133.798 124.086 133.426 123.639 133.203 123.192C133.128 122.895 132.98 122.671 132.905 122.448C132.905 122.224 132.831 122.001 132.831 121.703L132.98 120.735C132.98 120.587 133.203 120.289 133.277 120.065C133.352 119.842 133.575 119.619 133.724 119.321C133.947 119.098 134.096 118.874 134.319 118.651C134.765 118.204 135.212 117.757 135.733 117.385C136.179 116.938 136.774 116.492 137.221 115.822C137.667 115.226 137.891 114.109 137.518 113.365C137.221 112.62 136.7 112.099 136.254 111.578C135.807 111.131 135.435 110.61 135.212 110.163C135.137 110.089 135.137 109.94 135.063 109.791C135.063 109.716 134.989 109.568 134.989 109.642V109.419C134.989 109.121 134.914 108.823 134.914 108.525C134.84 106.143 135.658 103.611 136.254 101.08C136.254 101.006 136.254 100.931 136.254 100.782L135.584 95.4961L135.286 90.1355C135.286 89.9121 135.212 89.7632 135.063 89.6887C134.765 89.3909 134.542 89.0931 134.17 88.7953L133.203 88.0508C132.607 87.5296 131.938 87.0829 131.268 86.6362C130.003 85.6683 128.664 84.7749 127.325 83.8814C124.72 82.0946 122.042 80.3822 119.512 78.5208C119.437 78.5208 119.437 78.4464 119.363 78.372C119.586 78.2975 119.884 78.2975 120.181 78.2231C120.553 78.1486 120.925 78.0742 121.297 77.9997C122.786 77.7764 124.423 77.7019 125.985 77.6274C129.11 77.553 132.31 77.553 135.435 77.553C135.807 77.553 136.105 77.3296 136.179 76.9574L136.7 74.2771C136.849 73.3837 137.072 72.4902 137.37 71.5968C137.593 70.7033 137.816 69.8099 138.114 68.9165L139.007 66.3106C139.304 65.4917 139.676 64.5982 140.048 63.7048C140.42 62.8114 140.718 61.9924 141.164 61.1734L142.429 58.7165L143.843 56.334C144.29 55.515 144.885 54.7705 145.406 54.1004C145.927 53.3559 146.447 52.6114 147.043 51.9413L148.828 49.8566L150.763 47.8464C151.358 47.1764 152.102 46.5807 152.772 45.9851C153.442 45.315 154.186 44.7939 154.856 44.1982C155.6 43.6026 156.269 43.007 157.088 42.5603L159.394 40.9968C159.692 40.7734 159.841 40.4756 159.692 40.1033L158.725 37.1997C158.353 36.2318 158.055 35.3384 157.832 34.2961L157.46 32.807L157.237 32.0625L157.162 31.6902C157.162 31.5413 157.088 31.3924 157.088 31.3924C157.088 31.3924 157.088 31.2435 157.162 31.0946C157.237 30.9457 157.385 30.8712 157.46 30.7968C157.534 30.7223 157.757 30.6479 157.683 30.6479C157.683 30.6479 157.609 30.6479 157.609 30.5734C157.609 30.5734 157.683 30.5734 157.757 30.6479H157.832L157.906 30.7223L158.204 30.8712C158.278 30.9457 158.278 31.0201 158.353 31.0201L158.576 31.169L159.171 31.6157C159.618 31.9135 159.99 32.2858 160.362 32.5837C160.734 32.9559 161.18 33.2537 161.478 33.626L162.52 34.6683L162.594 34.7428L165.124 36.9763C165.347 37.1997 165.645 37.1997 165.868 37.0508L168.026 36.0829C168.249 36.0084 168.398 35.7851 168.398 35.6362C168.695 34.445 168.993 33.2537 169.365 32.0625C169.514 31.4669 169.812 31.0201 170.035 30.4245C170.184 30.1267 170.258 29.9033 170.407 29.68L170.928 28.9355L171.449 28.1909C171.523 28.042 171.746 27.8931 171.895 27.7442C171.969 27.6698 171.969 27.7442 171.969 27.6698C171.969 27.6698 172.118 27.6698 172.193 27.6698H172.267C172.49 27.7442 172.713 27.8187 172.937 27.8931C173.904 28.4143 174.723 29.3077 175.69 30.1267C176.211 30.5734 176.731 31.0201 177.476 31.2435C177.848 31.3924 178.294 31.4668 178.741 31.3924C178.964 31.3179 179.187 31.2435 179.41 31.169L179.857 30.9457C180.526 30.5734 180.898 30.35 181.419 30.1267C181.94 29.9033 182.461 29.68 183.056 29.6056C183.577 29.4566 184.172 29.4566 184.768 29.3822C185.363 29.3822 185.958 29.3822 186.553 29.4566L188.414 29.6056L190.348 29.68H190.423H190.497L198.533 28.2654L206.644 27.2975H206.718C206.792 27.2975 206.867 27.2975 206.941 27.2231C207.536 26.7763 208.132 26.4041 208.578 25.6595C208.727 25.4362 208.727 25.3617 208.801 25.2128C208.876 25.1384 208.876 25.1384 208.876 24.915L208.95 24.6917L209.173 23.7238C209.471 22.4581 209.769 21.2668 210.215 20.0012L210.513 19.0333L210.81 18.1398C211.034 17.5442 211.257 16.9486 211.554 16.4274C211.852 15.8318 212.15 15.3851 212.522 14.9384C212.671 14.715 212.894 14.5661 213.117 14.3428C213.34 14.1939 213.712 13.8961 213.861 13.8216C213.936 13.7471 214.084 13.7471 214.159 13.6727C214.233 13.6727 214.233 13.6727 214.233 13.6727C214.233 13.6727 214.233 13.5982 214.382 13.6727H214.531L214.68 13.7471L214.977 13.9705C215.275 14.1194 215.349 14.3428 215.573 14.5661C215.796 14.7895 215.87 15.0128 216.019 15.3107C216.168 15.534 216.242 15.8318 216.317 16.1296C216.391 16.4274 216.465 16.7252 216.465 17.0231C216.54 17.6187 216.614 18.2887 216.689 18.9588C216.763 19.6289 216.837 20.2245 216.986 20.8946L217.433 22.7559C217.582 23.426 217.73 24.0216 217.954 24.6172C218.102 25.2873 218.4 25.8829 218.698 26.4785C218.772 26.6274 218.921 26.7019 219.07 26.7763H219.144H219.293C219.516 26.7763 219.665 26.7019 219.739 26.4785L221.525 22.607C222.046 21.4902 223.088 20.4479 224.278 20.0012C224.874 19.7778 225.469 19.8523 225.841 20.1501C226.064 20.299 226.213 20.5968 226.362 20.8201C226.511 21.0435 226.585 21.4902 226.659 21.788C227.031 23.2026 227.775 24.6172 228.817 25.6595C229.933 26.7019 231.273 27.372 232.612 27.8187C233.951 28.2654 235.365 28.6377 236.779 28.9355C238.193 29.2333 239.458 29.68 240.871 30.1267C242.211 30.4989 243.476 31.0946 244.815 31.5413C246.08 32.1369 247.419 32.6581 248.684 33.3282L250.544 34.2961L251.512 34.7428L252.553 35.115C253.967 35.4873 255.455 35.4128 256.869 34.9661C258.208 34.5194 259.548 33.9238 260.813 33.2537C263.268 31.8391 265.575 30.2012 267.881 28.5632C270.188 26.9252 272.495 25.2128 275.099 24.096C272.644 26.1807 270.337 27.8187 267.956 29.4566Z" fill="#A7ABC1"/>
<path d="M269.741 116.194C261.184 111.429 250.99 108.078 239.829 104.877C232.909 102.867 226.51 100.112 220.037 97.3574C220.334 96.6128 220.632 95.8683 220.781 95.1238C234.174 95.3471 247.716 94.4537 261.11 94.1559C261.556 94.1559 262.226 93.188 261.631 93.188C248.163 92.9646 234.621 92.6668 221.078 92.5924C221.078 92.2946 221.004 92.0712 221.004 91.7734C224.501 90.7311 227.998 89.9121 230.454 88.9442C237.597 86.0405 244.74 82.988 251.735 79.7865C252.107 79.6376 252.33 78.8187 251.735 79.1165C242.061 83.2114 232.165 87.3807 222.046 90.3588C221.599 90.5077 221.153 90.5821 220.706 90.7311C220.558 90.2099 220.334 89.7632 220.111 89.3164C234.1 78.6697 248.684 68.1719 260.663 55.515C261.184 54.9938 260.44 54.6215 260.068 55.0683C252.181 62.4391 242.657 68.6187 234.249 75.3938C229.784 78.9676 224.799 82.0946 220.037 85.5194C220.632 84.7004 221.227 83.9559 221.823 83.2114C229.04 74.426 236.481 65.715 243.252 56.6318C243.698 56.0362 242.954 55.9617 242.657 56.334C234.695 64.8216 226.51 73.1603 218.549 81.7223C218.251 82.0201 217.953 82.3924 217.581 82.7646C218.995 79.9354 220.334 77.1062 221.748 74.3515C225.766 66.534 231.123 59.3865 234.993 51.4946C235.29 50.8989 234.472 51.0479 234.249 51.4201C230.156 58.4931 225.096 65.0449 220.632 71.8201C219.962 72.788 219.367 73.8303 218.772 74.7982C220.111 70.4055 221.45 65.9383 222.939 61.5456C226.213 51.2712 230.603 41.369 233.579 31.0201C233.802 30.2756 232.76 30.7968 232.612 31.169C226.287 47.7719 218.251 63.6303 212.894 80.531C212.819 77.7019 212.745 74.9471 212.819 72.1179C213.042 63.0347 213.489 53.9515 213.414 44.8683C213.414 44.3471 212.596 44.8683 212.521 45.2406C211.852 54.5471 210.81 63.8537 210.215 73.1603C209.992 76.734 209.768 80.3077 209.62 83.8814C209.173 83.8814 208.727 83.8814 208.355 83.8814C207.61 81.35 206.866 78.8931 206.271 76.5851C203.816 66.8318 202.03 57.0041 198.905 47.4741C198.756 47.0274 197.937 47.623 198.086 47.9953C200.319 57.004 201.509 66.2362 202.923 75.3938C203.22 77.2552 203.593 79.1165 203.965 80.9778C198.012 69.7355 192.059 58.4931 185.288 47.623C184.99 47.1763 184.023 47.9953 184.246 48.3675C190.646 60.2799 195.928 72.9369 202.03 84.9982C198.309 82.0201 194.589 79.1165 191.092 75.9895C183.726 69.4376 176.806 62.2157 169.588 55.4405C169.29 55.1427 168.621 55.7384 168.844 56.0362C175.541 63.3325 182.014 70.7778 189.083 77.6274C189.827 78.3719 195.408 83.0625 200.393 87.1573C200.17 87.3807 200.021 87.5296 199.872 87.753C188.264 79.4887 175.243 72.788 163.561 64.9705C163.263 64.7471 162.594 65.4172 162.891 65.715C173.68 73.9792 184.842 81.8712 196.003 89.6143C194.217 88.9442 192.431 88.3486 191.092 87.6785C183.874 84.1048 175.764 81.6478 169.29 76.8084C168.918 76.5106 168.1 77.2551 168.472 77.5529C173.16 81.5734 179.261 84.477 184.693 87.3807C188.339 89.242 192.803 90.8055 196.896 92.6668C196.673 93.3369 196.524 94.007 196.449 94.677C183.205 92.2201 169.886 90.1354 156.715 87.0084C156.418 86.934 155.897 87.6041 156.269 87.6785C168.844 91.3267 182.089 94.8259 195.184 97.134C189.306 97.8785 183.279 99.442 177.698 100.335C166.537 102.048 155.45 104.132 144.289 106.068C143.992 106.143 143.62 106.813 144.066 106.738C161.478 104.505 178.889 101.825 196.3 99.5909C193.25 100.782 190.199 102.048 187.148 103.239C181.27 105.622 175.392 108.153 169.662 110.833C165.868 112.62 160.51 116.715 156.12 116.715C155.823 116.715 155.227 117.385 155.748 117.46C158.278 117.757 160.213 116.641 162.594 115.747C168.769 113.514 174.945 111.206 181.27 109.121C187 107.185 192.729 105.026 198.384 102.941C198.682 103.314 198.979 103.611 199.351 103.909C183.13 114.854 167.728 127.138 150.837 136.966C150.465 137.189 150.54 137.711 150.986 137.487C168.695 128.181 184.767 116.045 201.658 105.324C199.872 107.111 198.086 108.897 196.3 110.684C191.39 115.822 187.223 122.597 181.717 127.064C181.344 127.362 181.568 127.957 182.014 127.66C187.446 123.862 191.613 117.981 196.3 113.365C197.789 111.95 199.351 110.535 200.988 109.121C200.691 109.791 200.393 110.238 200.319 110.535C197.565 115.822 194.961 121.257 192.208 126.617C187.595 135.403 184.47 144.933 179.707 153.569C179.335 154.239 180.303 154.016 180.526 153.643C185.511 146.049 189.009 137.413 193.547 129.521C196.97 123.565 200.914 117.534 204.485 111.354C200.244 127.138 197.491 143.667 194.738 159.6C194.664 160.195 195.482 159.823 195.556 159.451C199.723 141.731 204.337 124.011 208.95 106.366C209.099 106.366 209.247 106.292 209.396 106.292C212.075 123.788 215.126 141.21 216.465 158.855C216.539 159.302 217.284 158.93 217.209 158.557C216.912 146.422 215.572 134.36 214.233 122.299C213.638 117.46 213.117 112.62 212.373 107.781C212.224 107.036 212.149 106.217 212.075 105.398C212.819 106.589 213.563 107.781 214.307 108.823C217.656 113.811 220.93 118.874 224.278 123.788C224.501 124.086 225.171 123.565 225.022 123.192C222.492 118.353 219.813 113.588 217.209 108.749C216.316 107.111 215.275 105.473 214.233 103.909C214.382 103.835 214.456 103.76 214.53 103.686C216.688 105.994 218.921 108.227 220.855 110.61C225.692 116.417 230.9 123.192 236.853 128.032C237.151 128.255 237.82 127.734 237.523 127.436C232.463 122.671 228.519 116.343 224.204 110.908C222.12 108.302 220.037 105.622 218.028 103.016C224.724 108.6 232.463 113.365 239.532 117.981C239.829 118.204 240.499 117.534 240.201 117.236C234.323 112.322 228.37 107.408 222.418 102.569C237.82 107.781 254.041 110.461 268.923 117.236C269.369 117.385 270.262 116.492 269.741 116.194Z" fill="#78787D"/>
<path d="M120.033 194.518C118.322 193.103 116.239 192.21 114.23 191.242C113.113 190.721 111.923 190.274 110.732 189.753C109.765 189.306 109.319 186.105 108.872 185.137C108.5 184.392 107.533 183.648 106.863 183.127C105.152 181.489 107.235 178.213 108.277 176.798C108.947 175.83 109.914 174.862 110.063 173.671C110.063 173.373 109.765 173.373 109.542 173.448C107.161 174.341 103.068 178.734 100.613 177.394C98.9016 176.426 97.339 175.756 95.4788 175.235C93.6186 174.713 91.7584 174.49 91.3119 172.405C90.9399 170.916 89.5262 171.81 89.0797 172.703C89.0053 172.778 88.4844 173.894 88.41 174.192H88.3356C88.038 173.522 87.8891 172.703 87.7403 172.033C87.5171 171.065 87.8147 169.725 86.6986 169.129C86.5498 169.055 86.401 169.129 86.2522 169.204C85.5081 169.651 85.2105 170.47 84.9129 171.289C84.6152 172.033 84.4664 172.778 84.3176 173.522C84.2432 173.82 84.0199 174.043 83.6479 174.267C81.5645 174.416 79.4811 174.713 77.4721 175.16C75.8351 175.086 74.719 174.713 73.3796 175.607C72.4123 176.277 71.6682 174.49 70.6265 174.267C70.4032 174.192 70.1801 174.416 70.1056 174.564C69.436 175.383 69.1384 176.5 68.9151 177.543C68.6175 177.691 68.3198 177.766 68.0966 177.915C67.7989 177.617 67.427 177.394 67.1293 177.096C66.6085 176.5 65.3435 175.532 65.3435 175.532C65.3435 175.532 65.3435 175.532 65.2691 175.458C64.9715 175.235 64.4506 175.681 64.525 176.054C64.7483 177.17 65.1203 178.287 65.4923 179.329C62.4416 181.265 59.9117 183.871 58.2747 187.445C57.3819 189.306 56.861 191.242 56.4889 193.252C53.9591 193.252 50.6851 193.252 49.8666 193.699C49.6434 193.848 54.0335 196.528 55.8937 198.091C55.9681 198.166 56.0425 198.24 56.1169 198.315C56.1169 199.729 56.2657 201.07 56.4889 202.41C56.1913 203.601 55.8193 204.792 56.0425 205.76C56.2657 206.728 57.9027 207.175 56.4889 208.366C56.0425 208.738 55.4472 209.185 55.2984 209.781C54.9264 211.046 56.0425 211.791 57.1586 212.237C54.852 213.95 51.578 214.918 50.0899 217.3C48.9737 219.087 60.507 219.534 62.7392 219.236C64.9715 218.938 64.0042 220.055 64.2274 221.097C64.3018 221.618 65.4923 221.47 65.7899 221.47C66.4596 221.47 65.2691 223.778 65.1947 224.224C65.1947 224.373 65.2691 224.448 65.3435 224.522C66.3108 224.969 67.5014 224.448 68.5431 224.15C70.1801 223.703 70.18 224.373 70.5521 225.937C70.7753 226.905 70.8497 227.873 71.1474 228.84C71.2962 229.138 71.6682 229.064 71.8915 228.915C73.454 228.096 74.6445 226.83 75.7606 225.564C78.6626 226.235 81.6389 226.235 84.5408 225.862C84.6896 226.756 84.6896 227.724 84.764 228.021C84.9128 229.51 85.0617 231 85.2849 232.414C85.3593 233.01 86.2522 232.34 86.401 232.116C87.2939 230.478 87.6659 228.617 88.1124 226.83C88.3356 226.011 88.7821 225.416 89.3774 224.894C90.7167 224.522 92.056 224.15 93.3953 223.703C94.5858 223.331 95.702 222.81 96.8926 222.289C97.1158 222.214 97.2646 222.214 97.4134 222.14C98.8271 221.767 100.539 221.097 101.506 219.981C101.878 219.534 102.176 219.087 102.473 218.566C102.771 218.343 103.068 218.119 103.292 217.821C104.259 217.97 105.896 219.534 106.417 219.832C106.789 220.129 107.533 219.385 107.384 219.013C107.012 217.747 106.491 216.407 106.119 215.067C109.021 216.183 111.774 217.672 114.527 218.938C114.899 219.087 115.718 218.491 115.495 218.119C114.676 216.556 112.89 214.992 111.477 214.024C110.509 213.28 109.467 212.61 108.649 211.716C108.575 211.642 108.5 211.493 108.5 211.344C108.575 211.121 108.723 210.972 108.798 210.823C109.095 210.227 109.393 209.632 109.616 208.962C110.137 207.919 110.584 206.877 110.956 205.76C111.7 204.42 113.262 202.931 112.965 201.367C112.965 201.218 112.295 200.697 111.923 200.325C111.923 200.102 111.923 199.953 111.923 199.729C113.188 199.357 114.75 199.506 116.015 199.357C116.313 199.357 117.057 198.687 116.685 198.389C115.42 197.272 113.858 196.23 112.221 195.411C114.602 195.262 116.834 195.486 119.289 195.486C119.587 195.486 120.48 194.816 120.033 194.518Z" fill="url(#paint2_radial_16486_28003)"/>
<path opacity="0.6" d="M109.467 173.373C109.244 173.448 108.947 173.597 108.723 173.746C108.203 174.043 107.756 174.341 107.31 174.639C106.417 175.235 105.449 175.905 104.556 176.426C103.589 176.947 102.547 177.468 101.506 177.394C100.985 177.319 100.538 177.022 100.018 176.798L98.5294 176.054C98.0086 175.756 97.4877 175.681 96.9669 175.458C96.446 175.235 95.9252 175.086 95.4043 174.862C94.3626 174.565 93.2465 174.341 92.5024 173.671C92.1303 173.373 91.9071 172.927 91.7583 172.405C91.6095 172.033 91.6095 171.884 91.3863 171.587C91.0886 171.214 90.6422 171.14 90.2701 171.214C89.6005 171.438 89.154 171.884 88.782 172.48L88.4099 173.225C88.3355 173.001 88.2612 172.852 88.2612 172.629L88.1123 171.884C88.0379 171.661 88.0379 171.438 88.0379 171.214C87.9635 170.768 87.9635 170.246 87.7402 169.651C87.6658 169.353 87.4426 169.055 87.2194 168.906C87.0706 168.832 87.0706 168.683 86.773 168.608C86.773 168.608 86.4754 168.608 86.401 168.608C86.3265 168.608 86.1777 168.683 86.1033 168.757C85.8057 168.981 85.7312 169.055 85.508 169.278C85.3592 169.502 85.136 169.8 84.9872 170.023C84.8384 170.246 84.7639 170.47 84.6895 170.768C84.6151 170.991 84.4663 171.289 84.4663 171.512L84.0198 172.927C83.9454 173.15 83.8711 173.373 83.7967 173.597C83.7967 173.671 83.6478 173.746 83.499 173.895L77.472 174.639H76.8023L76.1326 174.565C75.6862 174.49 75.0909 174.49 74.5701 174.639C74.2724 174.713 74.0492 174.788 73.7516 174.862C73.6028 174.937 73.5284 175.011 73.3795 175.086L73.2307 175.16L73.1563 175.235L72.8586 175.309C72.8586 175.309 72.8586 175.309 72.8586 175.235C72.7842 175.235 72.7099 175.16 72.6355 175.16L72.4122 174.937C72.1146 174.639 71.7425 174.267 71.2217 173.969C70.9241 173.895 70.7009 173.597 70.0312 173.969C69.8824 174.118 69.7335 174.192 69.5847 174.341L69.3615 174.639C69.2127 174.862 69.1383 175.011 68.9894 175.309C68.915 175.607 68.7662 175.83 68.6918 176.054C68.543 176.426 68.4686 176.798 68.3941 177.17L68.0965 177.319L67.4269 176.724L67.5013 176.798L66.6083 175.905C66.3851 175.607 65.8643 175.309 65.4178 175.011L65.6411 175.086L65.5667 175.011L65.4922 174.937C65.4922 174.937 65.4922 174.937 65.4178 174.862C65.3434 174.862 65.2691 174.788 65.1947 174.788C64.8226 174.788 64.7482 174.862 64.5994 175.011C64.4505 175.086 64.3017 175.235 64.2273 175.384C64.1529 175.532 64.0785 175.756 64.0785 175.979C64.0785 176.128 64.1529 176.203 64.1529 176.203L64.2273 176.351L64.3017 176.649L64.4506 177.245L64.9714 179.106L63.5576 180.149C62.9624 180.521 62.4415 181.116 61.9207 181.563L61.1022 182.308C60.879 182.605 60.6557 182.903 60.4325 183.127C59.9861 183.722 59.4652 184.243 59.0931 184.914L57.977 186.849L57.8282 187.073C57.7538 187.222 57.7538 187.296 57.6794 187.37L57.4562 187.892L57.0842 188.86L56.7121 189.902C56.5633 190.274 56.5633 190.646 56.4145 190.944L56.0424 192.657C55.0007 192.657 53.959 192.657 52.8428 192.657C52.2476 192.657 51.5779 192.731 50.9826 192.805C50.685 192.88 50.3874 192.88 50.0154 193.029L49.7177 193.178H49.6434C49.5689 193.252 49.8665 192.954 49.4201 193.401C49.4201 193.476 49.4201 193.327 49.3457 193.55C49.3457 193.699 49.3457 193.848 49.4201 193.997C49.4945 194.071 49.4945 194.071 49.4945 194.146C49.7177 194.369 49.7922 194.443 49.941 194.518C50.9827 195.262 51.95 195.932 52.9917 196.603L54.4799 197.645L55.224 198.166L55.5216 198.464C55.5216 198.464 55.596 198.538 55.6704 198.613L56.0424 202.41C55.8936 202.857 55.8192 203.303 55.7448 203.824C55.6704 204.048 55.6704 204.346 55.596 204.569C55.596 204.792 55.5216 205.09 55.596 205.388V205.835V205.909C55.6704 206.132 55.6704 205.984 55.6704 206.058L55.7448 206.207C55.8192 206.43 56.1169 206.803 56.2657 206.951C56.4145 207.175 56.5633 207.324 56.6377 207.398C56.7121 207.473 56.6377 207.473 56.6377 207.473C56.6377 207.473 56.5632 207.547 56.5632 207.622C56.4888 207.77 56.34 207.919 56.1912 208.068C56.0424 208.217 55.8192 208.366 55.596 208.589C55.4472 208.813 55.2239 208.962 55.0751 209.334C55.0007 209.483 54.9263 209.557 54.8519 209.781L54.7775 210.153C54.7775 210.525 54.8519 210.898 55.0007 211.195C55.1495 211.493 55.3728 211.716 55.596 211.865C55.8192 212.014 56.0424 212.163 56.1912 212.312C55.7448 212.61 55.2984 212.908 54.8519 213.131C54.1078 213.578 53.3637 213.95 52.6941 214.397C51.95 214.843 51.2803 215.365 50.6106 215.96C50.313 216.258 50.0898 216.63 49.7921 217.003C49.7177 217.151 49.7177 217.152 49.7177 217.226C49.7177 217.3 49.6433 217.449 49.7177 217.598C49.7922 217.822 49.8666 217.97 50.0154 218.045C50.2386 218.268 50.4619 218.343 50.6851 218.417C51.5036 218.789 52.322 218.864 53.2149 219.013C54.0334 219.162 54.8519 219.236 55.7448 219.311C57.3818 219.459 59.0932 219.534 60.7302 219.534C61.5487 219.534 62.4415 219.46 63.26 219.385C63.7064 219.311 64.0041 219.385 64.0785 219.608C64.1529 219.832 64.0785 220.353 64.0785 220.8C64.0785 222.214 66.2364 221.395 65.9387 221.768C65.8643 222.512 65.4923 223.257 65.1947 224.076V224.15C65.1947 224.299 65.1947 224.224 65.1947 224.299C65.1947 224.373 65.1946 224.373 65.269 224.448C65.3435 224.522 65.4178 224.597 65.4922 224.597L65.6411 224.671C65.7899 224.746 66.0876 224.746 66.3108 224.82C66.7572 224.82 67.2036 224.746 67.5757 224.597L68.7662 224.225C69.1382 224.15 69.5847 224.001 69.9567 224.15C70.3287 224.299 70.4032 224.746 70.552 225.118C70.7008 225.49 70.7752 225.937 70.8497 226.309C70.9985 227.128 71.2216 227.947 71.4449 228.766C71.2216 227.947 71.0729 227.128 70.924 226.309C70.8496 225.937 70.7752 225.49 70.7008 225.118C70.552 224.746 70.4776 224.299 70.1056 224.001C69.2127 223.703 68.3941 224.224 67.6501 224.373C67.278 224.448 66.8316 224.597 66.4596 224.522C66.2363 224.522 66.0875 224.448 65.8643 224.373L65.7155 224.299C65.7155 224.299 65.7155 224.225 65.6411 224.225V224.15C65.8643 223.405 66.3107 222.661 66.4596 221.768C66.4596 221.619 66.5339 221.47 66.2363 221.321C66.0875 221.246 66.1619 221.321 66.0131 221.246H65.8643C65.641 221.246 65.4923 221.246 65.269 221.246C65.0458 221.246 64.897 221.172 64.8226 221.172C64.8226 221.172 64.7482 221.097 64.6737 221.023C64.6737 221.023 64.6737 220.874 64.6737 220.8C64.6737 220.427 64.8226 220.055 64.6737 219.46C64.4505 218.864 63.6321 218.864 63.3345 218.864C62.516 218.938 61.6974 218.938 60.879 218.938C59.242 218.938 57.605 218.864 55.8936 218.641C55.0752 218.566 54.2566 218.492 53.4381 218.343C52.6197 218.194 51.8012 218.045 51.1315 217.747C50.9827 217.673 50.8339 217.598 50.7595 217.524C50.6851 217.524 50.6851 217.449 50.6851 217.524C50.6851 217.449 50.7595 217.449 50.6851 217.524C50.9083 217.226 51.1315 216.928 51.4292 216.63C51.95 216.109 52.6197 215.588 53.3638 215.216C54.7775 214.397 56.2656 213.727 57.6794 212.684C57.7538 212.61 57.8282 212.61 57.8282 212.461C57.9026 212.238 57.8282 211.94 57.5306 211.865C57.0841 211.716 56.7121 211.493 56.4145 211.195C56.2657 211.046 56.1168 210.897 56.0424 210.749C55.968 210.6 55.9681 210.451 55.8936 210.376L55.968 210.004C55.968 210.004 56.0424 209.855 56.0424 209.781C56.1168 209.632 56.2657 209.483 56.4145 209.334C56.5633 209.185 56.7121 209.036 56.9353 208.887C57.0841 208.738 57.3818 208.515 57.5306 208.217C57.605 207.994 57.6794 207.845 57.7538 207.622C57.7538 207.398 57.7538 207.175 57.6794 207.026C57.5306 206.654 57.3074 206.505 57.1585 206.281C56.9353 206.058 56.9353 206.058 56.7865 205.835L56.7121 205.686V205.611V205.314C56.7121 205.09 56.7121 204.867 56.7121 204.643C56.7121 204.42 56.7865 204.197 56.8609 203.973C56.9353 203.527 57.0841 203.005 57.2329 202.559C57.2329 202.484 57.2329 202.41 57.2329 202.41V202.335L56.8609 198.315V198.241C56.8609 198.092 56.7865 198.017 56.7121 197.868C56.5633 197.794 56.5633 197.645 56.3401 197.496L55.968 197.198L55.224 196.603L53.7358 195.56C52.9173 194.965 52.0244 194.443 51.2803 193.848H51.3547C51.9499 193.773 52.5452 193.773 53.1405 193.699C54.331 193.625 55.5216 193.699 56.7121 193.699C57.0098 193.699 57.2329 193.476 57.3073 193.252V193.178L57.7538 191.168C57.8283 190.795 57.9026 190.497 57.977 190.125L58.3491 189.157L58.7211 188.189L58.9444 187.668C58.9444 187.594 59.0188 187.445 59.0188 187.445L59.1675 187.222L60.1349 185.435C60.4325 184.839 60.9533 184.318 61.3254 183.797C61.5486 183.499 61.7718 183.276 61.9951 182.978L62.7392 182.233C63.26 181.787 63.7064 181.265 64.3017 180.893L66.0131 179.702H66.0875C66.3107 179.553 66.3852 179.33 66.3108 179.106L65.6411 176.873L65.4922 176.277L65.4178 175.979V175.905L65.4922 175.979C65.7154 176.203 65.8643 176.352 66.1619 176.575L66.9804 177.319L67.0549 177.394L68.0221 178.213C68.1709 178.362 68.3942 178.436 68.543 178.287L69.3615 177.915C69.5103 177.841 69.6591 177.692 69.6591 177.543C69.7335 177.096 69.8824 176.649 70.0312 176.203C70.1056 175.979 70.1799 175.83 70.2544 175.607C70.3288 175.458 70.4032 175.235 70.552 175.011L70.7753 174.714L70.8497 174.639C70.9241 174.639 70.924 174.714 70.9984 174.714C71.2961 174.862 71.5937 175.16 71.9658 175.533L72.2634 175.83C72.4122 175.905 72.561 175.979 72.7099 176.054C72.9331 176.128 73.2307 176.128 73.4539 176.128L73.7516 175.979L73.9748 175.83L74.1236 175.756C74.198 175.681 74.2724 175.681 74.4212 175.607C74.6444 175.533 74.7933 175.458 75.0165 175.458C75.3885 175.384 75.8349 175.384 76.2814 175.384L77.0255 175.458L77.7695 175.533H77.844H77.9184L84.0198 174.639H84.0942C84.1686 174.639 84.1687 174.639 84.2431 174.565C84.4663 174.341 84.6896 174.267 84.9128 173.82C85.0616 173.597 85.136 173.299 85.136 173.076L85.508 171.661C85.5824 171.438 85.6569 171.214 85.7313 170.991C85.8057 170.768 85.8801 170.544 86.0289 170.321C86.1033 170.097 86.2521 170.023 86.3265 169.8C86.4009 169.651 86.6986 169.427 86.773 169.353H86.8474C86.8474 169.353 86.9218 169.427 86.9962 169.427C87.145 169.502 87.2194 169.651 87.2938 169.874C87.4426 170.246 87.4427 170.693 87.5171 171.214C87.5171 171.512 87.5914 171.735 87.6659 171.959L87.8146 172.703C87.889 173.15 88.1123 173.671 88.2612 174.192C88.3356 174.267 88.4099 174.416 88.5587 174.416H88.7076C88.8564 174.416 89.0052 174.341 89.0052 174.192L89.6748 172.703C89.8981 172.331 90.2701 171.884 90.6422 171.81C90.791 171.81 91.0142 171.81 91.0142 171.884C91.163 171.959 91.2375 172.331 91.3119 172.554C91.4607 173.15 91.8327 173.671 92.2791 174.043C93.2464 174.862 94.437 175.011 95.4787 175.235C95.9996 175.384 96.5204 175.607 97.0413 175.756C97.5621 175.979 98.0829 176.054 98.6038 176.351L100.092 177.096C100.613 177.319 101.059 177.617 101.655 177.692C102.845 177.766 103.887 177.17 104.854 176.649C105.821 176.054 106.714 175.384 107.607 174.788C108.054 174.49 108.5 174.118 108.947 173.82C108.947 173.671 109.244 173.522 109.467 173.373C109.691 173.299 110.137 173.225 110.137 173.597C110.137 173.225 109.616 173.224 109.467 173.373ZM64.9714 175.905C64.9714 175.83 64.9714 175.83 64.9714 175.905V175.905Z" fill="#A7ABC1"/>
<path opacity="0.5" d="M108.872 208.366C105.151 206.282 100.761 204.867 95.9247 203.452C92.9484 202.559 90.1209 201.368 87.3678 200.176C87.5166 199.879 87.591 199.506 87.6655 199.209C93.4693 199.283 99.3475 198.911 105.077 198.762C105.226 198.762 105.523 198.39 105.3 198.39C99.4219 198.315 93.6181 198.166 87.7398 198.092C87.7398 197.943 87.7399 197.868 87.6655 197.72C89.1536 197.273 90.7162 196.901 91.7579 196.528C94.883 195.263 97.9338 193.997 100.985 192.582C101.133 192.508 101.282 192.136 100.985 192.285C96.8177 194.071 92.502 195.858 88.1119 197.124C87.9631 197.198 87.7399 197.198 87.5167 197.273C87.4423 197.049 87.3678 196.826 87.219 196.677C93.2461 192.061 99.5707 187.52 104.779 182.084C105.003 181.861 104.705 181.712 104.482 181.861C101.059 185.063 96.9664 187.743 93.3204 190.647C91.3858 192.21 89.2281 193.55 87.1446 195.039C87.3679 194.667 87.6655 194.369 87.8887 194.071C91.0139 190.274 94.2134 186.477 97.1897 182.531C97.3385 182.308 97.0409 182.233 96.8921 182.382C93.3949 186.03 89.8977 189.679 86.4006 193.401C86.2517 193.55 86.1029 193.699 86.0285 193.848C86.6238 192.657 87.219 191.391 87.8142 190.2C89.5256 186.849 91.8323 183.723 93.5437 180.298C93.6925 180 93.3205 180.074 93.2461 180.298C91.4603 183.35 89.3024 186.179 87.3678 189.157C87.0702 189.604 86.847 189.977 86.5493 190.423C87.1446 188.487 87.7399 186.552 88.3351 184.69C89.7489 180.223 91.6835 175.979 92.9484 171.438C93.0228 171.14 92.5764 171.363 92.502 171.512C89.7489 178.66 86.3261 185.584 83.9451 192.88C83.9451 191.689 83.8707 190.423 83.8707 189.232C83.9451 185.286 84.1683 181.34 84.1683 177.394C84.1683 177.171 83.7963 177.394 83.7963 177.543C83.4986 181.563 83.0522 185.584 82.7545 189.679C82.6801 191.242 82.6057 192.806 82.5313 194.369C82.3081 194.369 82.1593 194.369 82.0105 194.369C81.7128 193.252 81.3407 192.21 81.1175 191.242C80.0758 186.998 79.2574 182.755 77.918 178.585C77.8436 178.362 77.546 178.66 77.546 178.809C78.5133 182.755 79.0341 186.701 79.6293 190.647C79.7782 191.465 79.9271 192.285 80.0759 193.103C77.546 188.19 74.9417 183.35 71.9654 178.66C71.8166 178.436 71.4445 178.809 71.5189 179.032C74.272 184.169 76.5786 189.679 79.2573 194.89C77.6947 193.55 76.0578 192.359 74.4953 191.019C71.2957 188.19 68.3194 185.063 65.1943 182.159C65.0454 182.01 64.7478 182.308 64.8966 182.457C67.7985 185.658 70.626 188.86 73.6767 191.838C73.9743 192.136 76.4299 194.22 78.5877 195.933C78.5133 196.007 78.4389 196.082 78.3644 196.23C73.3791 192.657 67.7241 189.753 62.6644 186.403C62.5155 186.328 62.2179 186.626 62.3667 186.701C67.0544 190.274 71.891 193.699 76.7275 197.05C75.909 196.752 75.1649 196.528 74.644 196.23C71.5189 194.667 68.0218 193.625 65.1943 191.54C65.0454 191.391 64.6734 191.763 64.8222 191.838C66.8312 193.625 69.5099 194.816 71.891 196.082C73.4536 196.901 75.3881 197.571 77.1739 198.39C77.0995 198.687 77.0251 198.985 76.9507 199.283C71.2213 198.241 65.4174 197.347 59.7624 196.007C59.6136 196.007 59.3904 196.231 59.5392 196.305C64.971 197.868 70.7004 199.432 76.4299 200.4C73.9 200.772 71.2956 201.442 68.8402 201.814C64.0037 202.559 59.1672 203.452 54.4051 204.271C54.2563 204.271 54.1074 204.569 54.3306 204.569C61.8458 203.601 69.4355 202.485 76.9507 201.517C75.6113 202.038 74.3464 202.559 73.0071 203.08C70.4772 204.122 67.9473 205.239 65.4174 206.356C63.7804 207.101 61.4738 208.887 59.5392 208.887C59.3904 208.887 59.1672 209.185 59.3904 209.185C60.5065 209.334 61.325 208.813 62.3667 208.441C65.0454 207.473 67.7241 206.505 70.4772 205.537C72.9327 204.718 75.3882 203.75 77.8436 202.857C77.9924 203.006 78.1412 203.155 78.2901 203.303C71.2957 207.994 64.5989 213.355 57.3069 217.598C57.1581 217.673 57.1582 217.971 57.3814 217.822C65.0454 213.801 72.0398 208.515 79.3318 203.899C78.5877 204.644 77.7691 205.463 77.0251 206.207C74.9416 208.441 73.0814 211.344 70.7004 213.28C70.5516 213.429 70.626 213.652 70.8492 213.504C73.1559 211.866 75.016 209.334 77.0251 207.324C77.6947 206.654 78.3645 206.133 79.0341 205.463C78.8853 205.686 78.8109 205.909 78.7365 206.058C77.546 208.366 76.4299 210.749 75.2393 212.982C73.2303 216.779 71.8909 220.949 69.8075 224.671C69.6587 224.969 70.0307 224.895 70.1796 224.671C72.3374 221.395 73.8255 217.598 75.8346 214.248C77.3227 211.642 79.0341 209.036 80.5223 206.356C78.6621 213.206 77.4715 220.353 76.281 227.203C76.2066 227.501 76.5786 227.277 76.653 227.128C78.4388 219.46 80.4479 211.791 82.4569 204.123C82.5313 204.123 82.6057 204.122 82.6802 204.048C83.8707 211.642 85.1356 219.162 85.7309 226.831C85.7309 227.054 86.1029 226.83 86.0285 226.682C85.8797 221.395 85.3588 216.258 84.6891 210.972C84.4659 208.887 84.1683 206.728 83.8707 204.644C83.7963 204.346 83.7962 203.974 83.7218 203.601C84.0194 204.122 84.3915 204.644 84.6891 205.09C86.1773 207.249 87.5911 209.409 89.0048 211.568C89.0792 211.717 89.3768 211.419 89.3024 211.344C88.2607 209.26 87.0702 207.175 85.954 205.09C85.582 204.346 85.1356 203.676 84.6891 203.006C84.7635 202.931 84.7635 202.931 84.8379 202.931C85.7308 203.974 86.6982 204.941 87.5911 205.909C89.6745 208.441 91.9067 211.344 94.511 213.429C94.6598 213.504 94.9574 213.28 94.8086 213.206C92.6508 211.121 90.9394 208.366 89.0792 206.058C88.1863 204.941 87.2934 203.75 86.4006 202.633C89.3025 205.09 92.6508 207.175 95.7016 209.111C95.8504 209.185 96.1479 208.887 95.9991 208.813C93.4692 206.728 90.865 204.569 88.2608 202.484C94.9575 204.718 101.952 205.909 108.351 208.813C108.723 208.887 109.095 208.441 108.872 208.366Z" fill="#78787D"/>
<path d="M295.264 193.103C295.785 192.508 295.041 192.135 294.594 192.657C289.237 197.868 283.061 207.175 282.689 215.439C280.68 214.248 278.299 213.578 275.769 213.354C275.843 213.205 275.918 213.057 275.918 212.982C275.918 212.163 275.918 211.419 275.843 210.6C276.513 205.314 277.555 200.4 279.936 195.337C280.085 195.039 279.713 195.039 279.638 195.262C279.489 195.486 279.266 195.784 279.117 196.007C278.969 196.007 278.745 196.081 278.596 196.305C277.108 198.538 275.695 201.07 274.653 203.825C274.578 204.048 274.504 204.346 274.504 204.569C274.504 204.643 274.504 204.643 274.504 204.718C273.834 206.505 273.388 208.366 273.165 210.302C273.09 210.525 273.016 210.674 272.941 210.898C272.941 210.972 272.867 210.972 272.867 211.046C272.793 211.791 272.718 212.61 272.718 213.429C272.495 213.429 272.272 213.429 272.049 213.429C272.049 212.461 271.974 211.568 271.9 210.674C271.751 208.366 272.049 206.058 272.421 203.825C272.495 203.378 271.825 203.75 271.677 203.973C270.56 206.356 269.593 208.813 269.295 211.493C269.221 212.238 269.072 212.982 268.998 213.727C267.807 213.876 266.617 214.025 265.501 214.248C265.129 212.982 264.533 211.791 264.087 210.525C263.268 208.143 262.748 205.76 262.748 203.229C262.748 202.484 261.631 203.154 261.557 203.676C261.408 207.026 262.003 211.27 263.566 214.62C263.492 214.62 263.343 214.695 263.194 214.695C255.604 216.258 248.461 220.576 243.029 226.235C242.36 225.565 241.616 224.895 241.02 224.15C238.863 221.842 236.705 219.46 234.845 216.928C234.547 216.556 233.654 217.3 233.952 217.747C235.737 220.353 237.821 222.735 239.83 225.267C240.425 226.011 241.169 226.83 241.839 227.649C240.723 228.915 239.681 230.255 238.714 231.67C237.97 232.787 237.3 233.903 236.63 235.02C232.463 233.084 227.85 231.893 223.534 230.702C223.162 230.627 222.418 231.372 222.865 231.521C227.478 232.861 231.719 234.35 235.961 236.286C234.696 238.519 233.654 240.976 232.91 243.284C232.538 243.21 232.166 243.21 231.719 243.061C230.678 242.838 229.636 242.614 228.743 242.093C228.371 241.87 227.701 242.614 228.073 242.912C229.338 243.582 231.05 244.178 232.612 244.327C232.464 244.922 232.315 245.518 232.166 246.188C227.999 245.444 223.535 246.262 219.591 247.603C219.144 247.751 218.847 248.645 219.591 248.422C223.46 247.305 227.999 246.635 232.017 247.528C231.719 250.432 232.017 253.187 233.356 255.643C229.264 256.611 225.246 259.068 222.195 261.6C221.674 262.046 222.121 262.568 222.642 262.121C226.213 259.292 229.934 257.877 234.1 256.835C235.514 258.77 237.598 260.483 240.648 261.897C256.497 269.119 280.829 255.122 286.335 239.711C288.79 232.712 290.799 223.331 285.07 217.598C285.963 213.876 286.335 210.153 287.525 206.43C289.088 201.219 291.99 196.9 295.264 193.103ZM285.368 230.702C284.475 247.9 264.087 261.525 247.866 259.887C241.913 259.292 236.556 256.165 234.696 250.804C234.919 250.581 235.142 250.283 235.217 250.134C235.291 249.762 235.365 249.464 235.44 249.092C239.235 251.176 245.336 247.751 248.61 246.039C257.018 241.646 264.013 234.648 268.775 226.458C269.668 224.969 271.9 218.789 271.081 216.332C279.192 216.407 285.888 220.353 285.368 230.702Z" fill="#1C1D26"/>
<path d="M373.839 188.041C372.5 188.711 370.863 188.413 369.3 188.413C370.342 184.169 370.267 179.776 368.333 176.5C368.854 175.533 369.226 174.416 369.97 173.448C371.012 172.033 372.276 170.916 373.616 169.8C374.286 169.204 373.69 168.608 373.021 169.13C371.384 170.395 369.821 171.735 368.482 173.373C368.11 173.82 367.663 174.416 367.291 175.011C366.249 173.895 364.91 173.001 363.124 172.405C363.199 171.81 363.273 171.289 363.422 170.693C363.72 169.651 364.464 168.608 364.612 167.566L365.803 156.473C365.877 155.877 364.836 156.398 364.836 156.77C364.092 161.014 363.868 165.854 362.008 169.725C361.71 170.395 361.413 171.14 361.115 171.884C360.966 171.884 360.818 171.81 360.669 171.81C359.181 171.587 357.692 171.587 356.353 171.884C356.204 171.512 356.13 171.14 356.055 170.842C355.237 167.641 354.121 164.588 353.972 161.238C353.898 160.419 352.633 161.163 352.633 161.759C352.707 164.365 353.228 166.822 353.898 169.353C354.121 170.246 354.344 171.289 354.493 172.331C350.326 173.895 347.127 177.617 344.671 181.861C344.299 181.563 343.927 181.34 343.629 181.116C343.034 180.67 342.513 180.074 342.067 179.478C341.844 179.181 341.323 179.702 341.471 180C341.844 180.67 342.364 181.265 342.885 181.787C343.257 182.159 343.704 182.606 344.076 182.978C343.406 184.318 342.811 185.658 342.216 186.998C341.844 187.668 341.471 188.413 341.174 189.157C339.909 188.934 338.272 188.711 337.602 187.668C337.379 187.296 336.412 187.966 336.635 188.338C337.156 189.306 338.272 189.679 339.239 190.051C339.537 190.125 340.058 190.349 340.579 190.423C340.058 191.614 339.611 192.88 339.239 194.146C338.495 194.22 337.751 194.22 337.007 194.295C334.849 194.518 332.84 195.411 330.682 195.635C330.31 195.635 329.715 196.528 330.31 196.528C332.617 196.528 334.775 195.784 337.081 195.784C337.677 195.784 338.272 195.858 338.793 195.858C338.198 198.464 337.974 201.144 338.346 203.676C338.421 204.048 338.495 204.42 338.644 204.792C337.528 205.239 336.337 205.462 335.221 205.537C334.924 205.537 334.403 206.356 334.849 206.356C336.189 206.356 337.677 206.133 338.942 205.686C339.239 206.281 339.611 206.877 339.983 207.398C338.272 207.919 336.561 208.292 335.072 209.26C332.171 211.046 329.715 213.354 327.334 215.737C326.888 216.184 327.26 216.63 327.78 216.184C330.087 214.397 332.543 212.982 334.849 211.344C336.858 209.93 339.537 210.004 341.546 208.887C341.992 209.185 342.513 209.483 343.034 209.706C339.686 210.972 336.337 213.95 334.7 216.705C334.477 217.151 335.072 217.152 335.221 216.854C337.677 213.28 341.546 212.238 345.192 210.376C346.754 210.674 348.466 210.6 350.028 210.004C354.344 208.515 358.437 205.76 361.711 202.41C362.306 203.08 362.975 203.75 363.571 204.346C364.464 205.239 365.356 205.909 366.026 206.951C366.547 207.696 367.142 208.738 368.11 208.887C368.63 208.962 369.598 207.994 369.002 207.547C368.556 207.249 368.184 205.537 367.961 205.016C367.663 204.197 367.142 203.452 366.621 202.782C365.952 201.74 365.059 200.846 364.389 199.804C364.315 199.73 364.24 199.581 364.166 199.506C364.687 198.836 365.133 198.166 365.58 197.422C366.77 195.56 367.812 193.327 368.556 191.019C370.416 190.572 372.351 190.646 373.988 189.455C374.509 188.934 374.881 187.594 373.839 188.041ZM364.91 188.562C364.538 190.572 363.868 192.731 362.901 194.741C362.603 194.443 362.231 194.071 361.934 193.773C361.636 193.401 360.743 194.22 361.041 194.518C361.487 194.965 361.859 195.486 362.38 195.784C361.041 198.241 359.329 200.623 357.246 202.484C356.725 201.74 356.204 200.995 355.981 200.027C355.907 199.581 355.014 200.176 355.088 200.549C355.311 201.591 355.907 202.335 356.427 203.154C355.535 203.899 354.493 204.569 353.526 205.09C353.302 204.569 353.079 204.048 352.856 203.601C352.335 202.41 351.889 201.219 351.219 200.102C351.07 199.804 350.698 200.325 350.698 200.474C350.921 201.74 351.368 203.006 351.814 204.271C351.963 204.718 352.112 205.314 352.261 205.76C350.698 206.43 349.136 206.803 347.424 206.803C344.225 206.877 342.439 205.016 341.695 202.187C342.29 201.814 342.811 201.368 343.332 200.921C351.814 197.943 358.065 187.296 357.395 178.362C357.767 178.064 358.064 177.617 358.213 177.17C358.288 176.798 358.362 176.575 358.362 176.352C360.222 176.575 361.934 177.394 363.347 178.808C365.803 181.265 365.431 185.509 364.91 188.562Z" fill="#1C1D26"/>
<path d="M45.2526 243.582C44.5085 242.093 43.6156 240.678 42.4995 239.338C39.0768 235.169 32.5288 230.925 28.1387 236.211C23.8975 241.274 29.4037 248.347 32.9009 252.07C35.8772 255.271 41.7554 258.77 45.4758 254.527C48.1545 251.4 47.4848 247.305 45.2526 243.582Z" fill="#292B34"/>
<path opacity="0.6" d="M110.583 41.5924C99.1243 49.5588 86.9957 57.153 79.5549 69.4376C70.2539 84.7749 69.0634 102.941 65.1942 120.14C62.8876 130.34 59.3904 139.721 51.5031 146.868C45.0296 152.75 38.1096 157.738 31.2641 163.099C28.883 164.96 25.9811 167.343 23.3768 170.023C19.2844 173.224 15.7128 176.947 13.4061 182.308C9.16488 191.987 12.5133 207.249 16.6801 216.407C16.9033 216.928 17.7218 216.332 17.7218 215.886C17.1266 207.175 16.6801 198.389 18.1683 189.679C19.6564 181.116 24.1954 175.607 30.5945 170.023C44.8064 157.589 61.3994 146.496 67.7985 127.808C73.2303 112.099 73.5279 95.1237 79.0341 79.4142C84.7635 62.8858 97.8593 52.388 110.881 41.8902C111.03 41.7413 110.881 41.369 110.583 41.5924Z" fill="#A7ABC1"/>
<path opacity="0.6" d="M318.033 116.268C318.256 115.822 318.405 115.375 318.479 114.928C318.479 114.854 318.554 114.779 318.554 114.705C318.851 113.662 319.298 111.429 318.33 110.535C318.182 110.461 318.033 110.312 317.958 110.238C317.363 109.344 316.321 108.749 314.982 108.972C312.452 109.27 310.741 111.578 310.443 113.96C310.22 115.673 310.592 117.46 311.485 118.949C312.824 121.182 315.652 119.544 316.917 118.13C317.214 117.757 317.437 117.385 317.661 117.013C317.735 116.938 317.735 116.789 317.81 116.715C317.884 116.566 317.958 116.417 318.033 116.268Z" fill="#53597D"/>
<path opacity="0.6" d="M323.242 126.692C323.018 126.394 322.498 126.319 322.126 126.394C321.158 126.692 320.34 127.138 319.744 127.883C319.149 128.181 318.554 128.702 318.331 129.223C317.587 130.712 318.331 132.722 320.042 133.169C321.754 133.541 323.093 131.978 323.688 130.638C324.135 129.372 323.911 127.808 323.242 126.692Z" fill="#53597D"/>
<path opacity="0.6" d="M336.189 111.354C336.114 111.28 336.04 111.205 335.891 111.131C335.891 111.131 335.891 111.131 335.817 111.131C335.817 111.056 335.817 110.908 335.817 110.833C335.817 110.312 335.296 110.237 334.85 110.386C334.403 110.535 334.031 110.982 333.882 111.429C333.436 111.801 333.064 112.248 332.915 112.62C332.841 112.769 332.766 112.918 332.766 113.067C332.32 114.109 333.51 114.63 334.329 114.258C334.924 113.96 335.37 113.662 335.742 113.141C336.263 112.694 336.635 111.95 336.189 111.354Z" fill="#53597D"/>
<path opacity="0.6" d="M88.3347 127.734C86.7722 123.862 82.1589 126.021 80.1499 128.255C77.6944 131.01 76.4295 136.817 78.2153 140.167C79.1082 141.805 80.8939 141.88 82.3821 141.21C84.3167 140.689 86.1024 138.902 87.0697 137.413C88.7067 134.881 89.4509 130.638 88.3347 127.734Z" fill="#53597D"/>
<path opacity="0.6" d="M99.6448 125.724C99.496 125.724 99.3472 125.724 99.1984 125.724C98.9008 125.724 98.6031 125.947 98.5287 126.245C98.4543 126.468 98.4544 127.138 98.3056 127.287C97.7847 128.032 98.9007 128.181 99.3472 127.734C99.7936 127.287 100.166 126.84 100.166 126.17C100.017 125.947 99.8681 125.724 99.6448 125.724Z" fill="#53597D"/>
<path opacity="0.6" d="M98.454 143.667C98.2308 143.22 97.8588 143.071 97.3379 143.146C96.073 143.22 95.1057 144.114 94.436 145.23C92.5014 147.389 91.4596 151.41 93.7663 152.676C95.7753 153.792 97.4867 150.665 98.0076 149.251C98.5285 147.762 99.1981 145.156 98.454 143.667Z" fill="#53597D"/>
<path d="M96.1479 259.887C92.874 261.376 89.4512 265.173 89.5256 268.97C89.6 270.683 90.9393 272.172 92.6507 272.47C93.6924 272.619 94.7342 272.47 95.7015 272.097C95.9247 272.097 96.0735 272.097 96.2967 272.023C99.7195 271.502 103.142 267.407 103.44 264.057C103.886 259.515 99.7195 258.175 96.1479 259.887Z" fill="#1C1D26"/>
<path d="M112.741 251.251C112.741 251.102 112.666 250.953 112.592 250.804C111.55 249.762 109.467 251.698 108.872 252.516C108.276 253.484 107.681 255.42 109.318 255.718C110.36 255.867 111.104 254.973 111.699 254.229C112.146 253.633 112.741 252.889 112.89 252.144C112.964 251.846 112.89 251.474 112.741 251.251Z" fill="#1C1D26"/>
<path d="M105.374 242.242C103.514 240.232 100.538 242.019 99.1241 243.656C97.636 245.294 96.6686 247.602 96.5198 249.836C96.4454 250.953 96.8918 251.623 97.4871 252.07C97.7103 252.442 98.1568 252.74 98.9009 252.665C99.7938 252.591 100.687 252.144 101.505 251.548C101.728 251.4 102.026 251.176 102.249 250.953C103.068 250.208 103.812 249.389 104.333 248.645C105.523 246.932 107.086 244.103 105.374 242.242Z" fill="#1C1D26"/>
<path d="M302.928 269.491C301.366 264.801 292.809 266.886 289.832 268.598C287.377 270.013 283.136 274.405 284.177 277.607C284.177 278.128 284.252 278.649 284.475 279.096C286.335 283.786 292.585 281.851 295.71 280.064C299.059 278.277 304.416 273.959 302.928 269.491Z" fill="#1C1D26"/>
<path d="M315.8 254.899C315.726 254.899 315.577 254.973 315.428 254.973C315.354 254.527 315.056 254.229 314.535 254.229C312.229 254.08 310.368 255.941 309.327 257.877C308.955 258.473 308.806 259.589 309.624 259.962C311.559 260.781 313.94 259.44 314.833 257.654C314.982 257.281 315.131 256.835 315.131 256.462C315.279 256.388 315.428 256.388 315.577 256.314C316.098 256.165 316.842 254.75 315.8 254.899Z" fill="#1C1D26"/>
<defs>
<radialGradient id="paint0_radial_16486_28003" cx="0" cy="0" r="1" gradientUnits="userSpaceOnUse" gradientTransform="translate(116.013 -169.516) scale(471.317 471.599)">
<stop stop-color="#C4C5CE"/>
<stop offset="0.2199" stop-color="#9192A0"/>
<stop offset="0.6059" stop-color="#737995"/>
<stop offset="1" stop-color="#303034"/>
</radialGradient>
<radialGradient id="paint1_radial_16486_28003" cx="0" cy="0" r="1" gradientUnits="userSpaceOnUse" gradientTransform="translate(306.557 218.254) scale(245.215 245.361)">
<stop stop-color="#C4C5CE"/>
<stop offset="0.2199" stop-color="#9192A0"/>
<stop offset="0.6059" stop-color="#737995"/>
<stop offset="1" stop-color="#303034"/>
</radialGradient>
<radialGradient id="paint2_radial_16486_28003" cx="0" cy="0" r="1" gradientUnits="userSpaceOnUse" gradientTransform="translate(106.367 263.827) scale(83.6935 83.7435)">
<stop stop-color="#C4C5CE"/>
<stop offset="0.2199" stop-color="#9192A0"/>
<stop offset="0.6059" stop-color="#737995"/>
<stop offset="1" stop-color="#303034"/>
</radialGradient>
</defs>
</svg>
