<?xml version="1.0" encoding="UTF-8" standalone="no"?>
<svg
   width="1920"
   height="847.09955"
   viewBox="0 0 1920 847.09955"
   version="1.1"
   id="svg47"
   xmlns="http://www.w3.org/2000/svg"
   xmlns:svg="http://www.w3.org/2000/svg"
   xmlns:rdf="http://www.w3.org/1999/02/22-rdf-syntax-ns#"
   xmlns:cc="http://creativecommons.org/ns#"
   xmlns:dc="http://purl.org/dc/elements/1.1/">
  <defs
     id="defs12">
    <clipPath
       id="clip-path">
      <rect
         width="1920"
         height="1080"
         style="fill:none"
         id="rect1"
         x="0"
         y="0" />
    </clipPath>
    <linearGradient
       id="linear-gradient"
       x1="955.54999"
       y1="1304.9"
       x2="955.54999"
       y2="120.33"
       gradientUnits="userSpaceOnUse"
       gradientTransform="translate(0,-188)">
      <stop
         offset="0.05"
         stop-color="#868b9c"
         id="stop1" />
      <stop
         offset="0.2"
         stop-color="#8180a9"
         id="stop2" />
      <stop
         offset="0.46"
         stop-color="#7e8496"
         id="stop3" />
      <stop
         offset="0.51"
         stop-color="#858a9c"
         id="stop4" />
      <stop
         offset="0.58"
         stop-color="#989bab"
         id="stop5" />
      <stop
         offset="0.62"
         stop-color="#a8a8b8"
         id="stop6" />
      <stop
         offset="0.67"
         stop-color="#8b8d9f"
         id="stop7" />
      <stop
         offset="0.74"
         stop-color="#656a7f"
         id="stop8" />
      <stop
         offset="0.81"
         stop-color="#484e66"
         id="stop9" />
      <stop
         offset="0.87"
         stop-color="#333b54"
         id="stop10" />
      <stop
         offset="0.94"
         stop-color="#262f4a"
         id="stop11" />
      <stop
         offset="1"
         stop-color="#222b46"
         id="stop12" />
    </linearGradient>
  </defs>
  <title
     id="title12">Moon surface-Hero Section_JumperXBerachain</title>
  <g
     style="isolation:isolate"
     id="g47"
     transform="translate(0,-232.4)">
    <g
       id="Layer_1"
       data-name="Layer 1">
      <g
         clip-path="url(#clip-path)"
         id="g46">
        <path
           d="M 1820.51,460.53 A 4577.77,4577.77 0 0 1 1146,513.81 c -231.91,1.18 -461.79,-17.3 -692,-43 -233.45,-26 -467.75,-53.42 -696.77,-107 -105.32,-24.72 -210.31,-53.4 -314.02,-83.81 -48.47,-14.18 -96.85,-29.54 -144.11,-47.6 V 891.9 H 2612 V 262.46 q -35.37,10.8 -70.86,21.1 a 4260.57,4260.57 0 0 1 -720.63,176.97 z"
           style="fill:url(#linear-gradient)"
           id="path12" />
        <path
           d="m 6.57,431.88 c -27.47,1.46 -55.06,3.7 -82.1,8.89 -19.83,3.78 -40.71,8.65 -58.18,19.21 -12,7.26 -22.85,18.3 -22.28,33.32 1.07,28.54 29.65,50 52.14,62.75 34.58,19.59 73.23,31.25 111.46,41.42 40.16,10.65 80.4,21.66 120.86,31.14 61.34,14.32 123.36,25.43 185.07,38.12 44,9 87.35,20.55 131.43,29.06 33.34,6.4 67.81,12.7 99.11,26.44 16.83,7.37 52.62,28.16 34.73,51.24 -6.29,8.13 -15.79,15.25 -11,26.71 3.49,8.44 10.78,14.42 18.66,18.64 16.54,8.83 35,12.74 53.09,17.17 46.76,11.38 94.75,18.16 142.62,23 107,10.76 216.3,11.18 322.86,-4.84 47.78,-7.16 97.07,-16.47 142.15,-34.43 16.79,-6.64 56.51,-22.9 43.59,-48 -10.93,-21.21 -37.85,-34.18 -57.93,-44.77 -27.54,-14.56 -56.12,-27 -84,-40.86 -22.07,-11 -92.7,-46.78 -50.3,-75.94 19.27,-13.25 44.37,-18.44 66.89,-22.87 28,-5.54 56.29,-9.06 84.59,-12.11 18.39,-2 37.32,-2.77 55.5,-6.36 q 22.58,-4.41 45.06,-9.24 c 55.19,-12 111,-25.33 163.56,-46.16 13.88,-5.5 29.45,-11.55 42.66,-20.16 Q 1352,512.76 1146,513.81 c -231.91,1.18 -461.79,-17.3 -692,-43 C 344.94,458.66 235.7,446.21 126.93,430.92 86.71,429.74 46.6,429.81 6.57,431.88 Z"
           style="opacity:0.3;mix-blend-mode:screen;fill:#9294a0"
           id="path13" />
        <path
           d="m 626,537.93 a 464.66,464.66 0 0 0 -60.82,2.83 c -8.43,0.94 -16.89,2 -25.33,2.94 12.25,2.11 24.69,4 36.73,6.89 13.75,3.25 26.43,9.06 39.33,14.63 16.27,7 31.89,12 49.74,12.46 16.83,0.45 33.56,-0.94 50.34,-1.94 a 361.7,361.7 0 0 1 48.94,0.45 c 12.71,0.93 25.44,1.56 38,-0.73 -37.74,-10.51 -76.77,-15.6 -114.6,-25.91 -20.86,-5.67 -40.6,-11.07 -62.33,-11.62 z"
           style="opacity:0.4;mix-blend-mode:screen;fill:#9294a0"
           id="path14" />
        <path
           d="m 472.63,542 c 11.89,0.45 23.7,0.9 35.6,0.45 A 149.42,149.42 0 0 0 472.63,542 Z"
           style="opacity:0.4;mix-blend-mode:screen;fill:#9294a0"
           id="path15" />
        <path
           d="m 956.93,584.42 c -6.31,1.53 -12.51,3.33 -18.7,5.2 8.6,-0.18 17.09,0.1 24.91,0.44 17.14,0.76 34.06,2.29 51.26,1.63 13.77,-0.48 27.5,-1.59 41.24,-2.73 -32.96,-3.91 -66.08,-12.39 -98.71,-4.54 z"
           style="opacity:0.4;mix-blend-mode:screen;fill:#9294a0"
           id="path16" />
        <path
           d="m 715.72,795.4 c -12.36,-2.7 -24.76,-2.63 -37.21,-3.32 17.19,8.37 33.83,22.07 47.72,28.75 17.82,8.65 39.62,6.47 58.58,3.32 a 302,302 0 0 0 46.13,-11.38 446.25,446.25 0 0 1 -54.64,-4.36 C 755.73,805.36 736,799.9 715.72,795.4 Z"
           style="opacity:0.4;mix-blend-mode:screen;fill:#9294a0"
           id="path17" />
        <path
           d="m 2541.14,283.56 c -185.2727,63.00024 -374.6554,113.19513 -566.81,150.23 6.54,14 1.89,27.71 -10.17,38.26 -28.2,24.64 -69.34,35.4 -104.76,44.56 -25,6.47 -50.5,12.35 -76.1,16.06 -70.22,10 -140.83,16.53 -210.84,28.16 -39,6.43 -78.14,13.7 -116.09,24.87 -23.91,7.06 -56.12,15.4 -72.76,35.64 -26.26,32 40.37,61.27 61.69,69.89 56,22.56 115,31.24 174.71,37 35.17,3.39 70.39,7 104.83,15.26 17.06,4.12 38,8.51 51.8,20.27 19.7,16.78 -4.6,33.94 -19.72,41.83 -32.8,17.13 -69.58,27.23 -105.3,36.16 -50.72,12.66 -134.2599,-38.22916 -186.0199,-31.37916 -111.54,14.7 -192.1501,79.53916 -304.5601,81.57916 H 2612 V 262.46 c -23.58,7.2 -47.2,14.23333 -70.86,21.1 z"
           style="opacity:0.5;mix-blend-mode:multiply;fill:#747f88"
           id="path18" />
        <path
           d="m 2541.14,283.56 q -13.65,4.68 -27.36,9.17 c 20.79,4.12 32.74,14.88 23.92,36.85 -12.68,31.48 -46.55,53.42 -74.94,69.09 -37,20.45 -76.63,35.57 -116.07,50.58 -45.17,17.2 -88.76,37.57 -132.65,57.81 -53.49,24.71 -106.8,50.1 -157.66,80 -23.49,13.8 -46.21,28.68 -68.73,44 -17.4,11.8 -34.89,24.32 -49,40 -14.3,15.92 -27.14,37.13 -21.79,59.44 4.55,19.06 17.78,34.91 33.9,45.6 32.89,21.87 74.2,29 112.79,32.73 a 1124,1124 0 0 0 124.85,4.88 c 111,-1.73 226.66,-19.55 335.47,10.66 29,8 71.28,26.32 65.57,63.65 -0.19,1.35 -0.45,2.63 -0.73,4 H 2612 V 262.46 q -35.37,10.8 -70.86,21.1 z"
           style="opacity:0.5;mix-blend-mode:multiply;fill:#747f88"
           id="path19" />
        <path
           d="m 568.88,886.29 c -74.09,-5.19 -148.21,-13.94 -220.73,-30.38 -24.36,-5.5 -49.79,-9.86 -73.76,-16.78 -12.41,-3.56 -34.93,-10.65 -34.34,-27.29 0.59,-16.64 18.06,-25 31.5,-31 18.54,-8.3 43.53,-12.7 58,-27.54 3.61,-3.7 13.32,-12.28 9,-18.4 -3.2,-4.54 -8.77,-7.17 -13.69,-9.42 a 419.08,419.08 0 0 0 -48.75,-18.57 c -34.73,-11 -70.3,-18.58 -105.9,-26 C 19.3,649.3 -129.89,603.7 -274.87,551.38 c -49.59,-17.88 -99.69,-35.91 -147.49,-58.33 -18.39,-8.61 -37,-18.06 -52.85,-30.89 -11.14,-9 -23.71,-21.14 -25.11,-36.3 -4.12,-44.38 60.46,-57.29 92.15,-60.23 27.26,-2.6 54.51,-1.11 81.79,-2.63 q 34.56,-1.87 69.17,-2.7 C -357.64,336.46 -457.79,309 -556.79,280 -605.26,265.82 -653.64,250.46 -700.9,232.4 V 891.9 H 685.24 C 646.4,890.79 607.6,889 568.88,886.29 Z"
           style="opacity:0.5;mix-blend-mode:multiply;fill:#747f88"
           id="path20" />
        <path
           d="m 808,569 c -20.91,-0.73 -40.17,-0.1 -60.51,-5.71 -18,-5 -36.6,-8.27 -54.89,-12.11 -39.21,-8.27 -79.85,-19.06 -120.22,-18.09 -20,0.48 -39.88,3.49 -59.86,4.56 -22.8,1.21 -45.24,0.11 -68,-1.55 -20.82,-1.53 -41.34,-4.12 -62,-6.82 -16.35,-2.14 -33.94,-3.74 -47,-14.77 -0.25,-0.21 -0.83,0.27 -0.58,0.52 9.34,9.09 21.71,12.73 34.14,15.53 19.31,4.33 38.72,8.34 58.23,11.49 20.73,3.35 41.21,6.71 62.21,7.09 21.71,0.38 43.14,-2.35 64.71,-4 44.72,-3.6 87.42,1.66 131.13,10.59 20.76,4.22 41.72,8 62.17,13.42 19.45,5.19 38.47,4.33 58.45,3.7 1.66,-0.08 4.55,-3.75 2.02,-3.85 z"
           style="opacity:0.5;mix-blend-mode:multiply;fill:#83858f"
           id="path21" />
        <path
           d="m 1096.83,580.2 c -16.61,-1.62 -33,2.22 -49.65,-0.76 -17.26,-3 -34.53,-5.91 -51.83,-8.82 -15.67,-2.66 -31.29,1.56 -46.13,6.3 C 941.1,579.55 933,582 925,585 c -8.52,3.22 -17.55,8 -26.85,7.89 -0.66,0 -1.82,1.35 -0.8,1.48 12.54,1.84 26.66,-4.53 38.7,-7.54 17.51,-4.36 35.31,-7.82 53.35,-5.29 17.71,2.45 34.75,6.78 52.76,7.13 18.01,0.35 35.64,-3.22 53.42,-5.51 1.09,-0.16 3.17,-2.78 1.25,-2.96 z"
           style="opacity:0.5;mix-blend-mode:multiply;fill:#83858f"
           id="path22" />
        <path
           d="m 205.83,748.59 c -21,-1.25 -41.19,-3.36 -61.08,-10.62 -19.39,-7.13 -36.59,-14.7 -57.26,-17.64 -19.69,-2.77 -39.75,-1.46 -59.39,1.07 -21.81,2.77 -43,8.92 -65,3.84 -0.75,-0.18 -2.2,1.49 -1.25,1.83 15.38,5.54 31.5,5.12 47.57,4.08 22.68,-1.45 45.24,-3.18 67.92,-1 21.42,2.08 41.53,10.18 62.24,15.5 20.55,5.37 43.52,6.75 64.65,5.85 1.26,0 3.59,-2.81 1.6,-2.91 z"
           style="opacity:0.5;mix-blend-mode:multiply;fill:#83858f"
           id="path23" />
        <path
           d="m 863.57,811.39 c -20.86,-0.77 -41.69,-1.56 -62.54,-1.84 -22.19,-0.31 -42.53,-5.91 -63.62,-12.42 -19.77,-6.09 -36.62,-10.41 -57.54,-9.62 -22.38,0.83 -45,2.25 -67.24,-1 -0.53,-0.07 -1.38,1 -0.66,1.18 20,4.94 40.29,5.64 60.76,5.6 a 203.62,203.62 0 0 1 28.27,1.42 c 11.85,1.56 23.47,7.13 34.89,10.62 19.18,5.85 37.38,10.83 57.59,10.48 23.06,-0.38 46.17,-2 69.23,-2.83 0.67,-0.04 1.88,-1.56 0.86,-1.59 z"
           style="opacity:0.5;mix-blend-mode:multiply;fill:#83858f"
           id="path24" />
        <path
           d="m 1670.79,775.51 c -28.27,4.77 -55.24,10 -84.11,8.4 -28.61,-1.52 -57.17,-7.43 -85.92,-5.81 -29.27,1.7 -57.47,11.11 -84.53,21.9 -14.27,5.71 -29.23,8.9 -44.16,12.42 -6.68,1.56 -13.22,3.64 -19.91,5.23 -3.69,0.86 -14.88,4.7 -17.89,3.39 -0.66,-0.28 -1.88,0.93 -1.12,1.38 5.77,3.36 15.65,-1.11 21.66,-2 13.45,-1.94 27,-4.74 40.35,-7.3 30,-5.78 58.16,-18.23 88.63,-23 16.24,-2.56 32.74,-0.52 49,0 16.78,0.58 33.39,0.9 50.16,0.52 30.26,-0.66 58,-6.34 87.28,-13.53 0.77,-0.11 1.82,-1.81 0.56,-1.6 z"
           style="opacity:0.5;mix-blend-mode:multiply;fill:#83858f"
           id="path25" />
        <path
           d="m 1869.41,676.07 c -26.64,0.21 -52.69,-0.83 -78.28,7.86 -13.13,4.43 -26.12,9.44 -39.21,14 -9.6,3.35 -30.07,10.76 -39.27,5.15 -0.29,-0.17 -1,0.49 -0.71,0.73 5.83,5.26 13.68,4.5 21,3.57 a 179.24,179.24 0 0 0 33.87,-7.17 c 16.17,-5.29 31.93,-12.52 48.56,-16.29 17.63,-4.08 35.25,-3.7 53.12,-5.57 0.85,-0.06 2.36,-2.35 0.92,-2.28 z"
           style="opacity:0.5;mix-blend-mode:multiply;fill:#83858f"
           id="path26" />
        <path
           d="m 2080.25,843.15 c -19.15,5.32 -36.64,4.29 -56.19,3 -18.54,-1.21 -37.15,-1.66 -55.73,-2.63 -18.58,-0.97 -35.14,-2.56 -53.7,0.73 -17.18,3 -33.18,11.83 -50.37,13.7 -0.66,0.07 -1.75,1.69 -0.7,1.69 15.33,-0.27 29.72,-7 45,-8.64 21.73,-2.32 42.09,0.76 63.72,2.14 19,1.18 38.1,-0.76 57.1,-0.8 17.09,-0.06 35,0.83 50.81,-6.57 1.3,-0.65 2.38,-3.28 0.06,-2.62 z"
           style="opacity:0.5;mix-blend-mode:multiply;fill:#83858f"
           id="path27" />
        <path
           d="m 1384.3,725.31 a 39.08,39.08 0 0 0 -4.65,-1.35 c -11.89,-2.67 -22.42,-1.7 -33.94,1.42 -8.1,2.18 -19.81,7.68 -15.11,17.71 4,8.44 22.89,5.19 29.71,4.33 9.84,-1.25 22,0.93 29.87,-6.82 7.87,-7.75 1.44,-12.66 -5.88,-15.29 z"
           style="opacity:0.8;mix-blend-mode:multiply;fill:#878893"
           id="path28" />
        <path
           d="m 1431.54,735.41 c -7.33,-2.46 -17.33,-2.25 -23.84,2.49 -2.68,1.14 -5.62,3.08 -5,5.53 1,4.05 7.85,3.85 11,4.09 a 78.55,78.55 0 0 0 15.32,-0.38 c 3.27,-0.45 6.89,-1.94 8.29,-5.19 1.62,-3.74 -3.05,-5.61 -5.77,-6.54 z"
           style="opacity:0.8;mix-blend-mode:multiply;fill:#878893"
           id="path29" />
        <path
           d="m 1834.61,804.54 c -1.23,-0.42 -2.53,-0.8 -3.72,-1.08 -9.53,-2.14 -18,-1.35 -27.2,1.14 -6.47,1.73 -15.86,6.16 -12.09,14.19 3.17,6.78 18.34,4.15 23.79,3.46 7.9,-1 17.62,0.76 24,-5.43 6.38,-6.19 1.11,-10.14 -4.78,-12.28 z"
           style="opacity:0.8;mix-blend-mode:multiply;fill:#878893"
           id="path30" />
        <path
           d="m 1872.47,812.66 c -5.88,-2 -13.89,-1.79 -19.11,2 -2.15,0.9 -4.5,2.49 -4,4.46 0.81,3.25 6.29,3 8.82,3.25 a 63.89,63.89 0 0 0 12.28,-0.34 c 2.63,-0.31 5.52,-1.49 6.64,-4.12 1.27,-3 -2.45,-4.52 -4.63,-5.25 z"
           style="opacity:0.8;mix-blend-mode:multiply;fill:#878893"
           id="path31" />
        <path
           d="m 1900.29,561.56 a 31.74,31.74 0 0 0 -3.72,-1.08 c -9.51,-2.14 -18,-1.35 -27.18,1.11 -6.48,1.76 -15.86,6.16 -12.11,14.19 3.19,6.81 18.36,4.18 23.81,3.49 7.89,-1 17.63,0.76 24,-5.43 6.37,-6.19 1.08,-10.17 -4.8,-12.28 z"
           style="opacity:0.8;mix-blend-mode:multiply;fill:#878893"
           id="path32" />
        <path
           d="m 1938.16,569.65 c -5.87,-2 -13.88,-1.8 -19.12,2 -2.13,0.9 -4.48,2.46 -4,4.46 0.79,3.22 6.29,3 8.82,3.25 a 68.88,68.88 0 0 0 12.26,-0.31 c 2.63,-0.34 5.52,-1.55 6.65,-4.15 1.29,-3 -2.43,-4.49 -4.61,-5.25 z"
           style="opacity:0.8;mix-blend-mode:multiply;fill:#878893"
           id="path33" />
        <path
           d="m 1009.66,813.5 c -1.52,-0.52 -3.1,-1 -4.6,-1.32 -11.75,-2.63 -22.13,-1.66 -33.51,1.38 -8,2.15 -19.58,7.62 -14.95,17.51 3.93,8.37 22.65,5.12 29.36,4.29 9.76,-1.24 21.74,0.94 29.55,-6.75 7.66,-7.5 1.41,-12.48 -5.85,-15.11 z"
           style="opacity:0.8;mix-blend-mode:multiply;fill:#878893"
           id="path34" />
        <path
           d="m 1056.38,823.53 c -7.26,-2.46 -17.16,-2.25 -23.58,2.42 -2.64,1.11 -5.57,3.08 -4.94,5.5 1,4 7.76,3.77 10.88,4 a 76.64,76.64 0 0 0 15.13,-0.42 c 3.26,-0.38 6.82,-1.87 8.19,-5.09 1.57,-3.64 -3.06,-5.54 -5.68,-6.41 z"
           style="opacity:0.8;mix-blend-mode:multiply;fill:#878893"
           id="path35" />
        <path
           d="M 15.63,822.32 A 32.69,32.69 0 0 0 11.05,821 c -11.75,-2.66 -22.15,-1.69 -33.53,1.35 -8,2.15 -19.56,7.61 -14.94,17.51 3.91,8.37 22.64,5.12 29.35,4.29 9.74,-1.25 21.75,0.93 29.55,-6.75 7.66,-7.5 1.42,-12.49 -5.85,-15.08 z"
           style="opacity:0.8;mix-blend-mode:multiply;fill:#878893"
           id="path36" />
        <path
           d="m 62.36,832.32 c -7.27,-2.46 -17.15,-2.25 -23.58,2.45 -2.65,1.08 -5.55,3 -5,5.47 1,4 7.77,3.77 10.88,4 a 79.08,79.08 0 0 0 15.14,-0.45 c 3.23,-0.38 6.81,-1.87 8.2,-5 1.62,-3.7 -3,-5.57 -5.64,-6.47 z"
           style="opacity:0.8;mix-blend-mode:multiply;fill:#878893"
           id="path37" />
        <path
           d="m 518,610.06 c 7,6.92 17.89,5 26.69,6.06 6.07,0.79 23,3.7 26.52,-3.85 4.21,-8.95 -6.24,-13.9 -13.49,-15.8 -10.29,-2.77 -19.69,-3.67 -30.31,-1.29 a 41.54,41.54 0 0 0 -4.13,1.22 c -6.59,2.35 -12.23,6.85 -5.28,13.66 z"
           style="opacity:0.8;mix-blend-mode:multiply;fill:#878893"
           id="path38" />
        <path
           d="m 475.9,611.27 c 1.25,2.91 4.46,4.26 7.41,4.6 a 69.57,69.57 0 0 0 13.68,0.39 c 2.8,-0.25 8.91,0 9.83,-3.64 0.55,-2.25 -2.08,-4 -4.47,-5 -5.81,-4.25 -14.74,-4.42 -21.29,-2.21 -2.44,0.85 -6.59,2.59 -5.16,5.86 z"
           style="opacity:0.8;mix-blend-mode:multiply;fill:#878893"
           id="path39" />
        <g
           style="opacity:0.5;mix-blend-mode:multiply"
           id="g43"
           transform="translate(0,-188)">
          <path
             d="m 1239.21,831.07 c -5.93,-1.84 -16.22,-0.31 -22.07,1 a 14.11,14.11 0 0 0 -3.2,1.21 c -5.22,1.52 -11.33,5 -10.26,9.76 2,8.89 25.12,2.63 31,0 4.32,-1.87 12.65,-9.48 4.53,-11.97 z"
             style="fill:#9294a0"
             id="path40" />
          <path
             d="m 1261.88,844.87 c -0.3,0 -0.61,-0.1 -0.94,-0.14 a 2.33,2.33 0 0 0 -2.2,-0.65 6.12,6.12 0 0 0 -1.31,0.2 3.51,3.51 0 0 0 -0.57,0 7.94,7.94 0 0 0 -6.33,3.15 c -0.69,0.9 -0.49,2 1,2.21 0.33,0.07 0.61,0.07 0.92,0.11 a 3.52,3.52 0 0 0 3.2,0.27 12,12 0 0 0 1.8,-0.83 18.5,18.5 0 0 0 2,-1 3.66,3.66 0 0 0 1.47,-1.59 c 0.92,-0.1 2.43,-1.52 0.96,-1.73 z"
             style="fill:#9294a0"
             id="path41" />
          <path
             d="m 1292.56,801.9 a 48.44,48.44 0 0 0 -14.84,3.29 16.35,16.35 0 0 0 -7.45,2.87 c -6.18,4.36 -7,9.24 -2.65,14.64 4.53,5.6 17.51,6 25,5.7 12.75,-0.48 30.64,-5.39 31.78,-16.67 1.15,-11.04 -23.07,-10.14 -31.84,-9.83 z"
             style="fill:#9294a0"
             id="path42" />
          <path
             d="m 1116.05,847 a 3,3 0 0 0 -1.75,-1.32 c 0.19,-0.41 0,-0.86 -0.81,-0.59 l -0.82,0.21 a 30.08,30.08 0 0 0 -7,0.14 11.13,11.13 0 0 0 -7.33,3.56 c -1.59,1.87 -0.57,3.81 2.11,4.36 a 5.09,5.09 0 0 0 2.73,-0.27 10.91,10.91 0 0 0 3.41,-0.25 c 1.45,-0.27 2.82,-0.51 4.27,-0.83 2.42,-0.53 6.38,-2.74 5.19,-5.01 z"
             style="fill:#9294a0"
             id="path43" />
        </g>
        <path
           d="m 1761.68,619.26 a 249.93,249.93 0 0 1 -14.4,-24.8 c -2.13,-4.4 -4.41,-8.62 -6.24,-13.11 -0.68,-1.67 -1.23,-4.05 -2.42,-5.57 a 5,5 0 0 0 -1.29,-1.77 c -3.19,-2.94 -8.23,-4.25 -12.35,-5.33 q -9.18,-2.43 -18.52,-4.18 c -23.08,-4.33 -46.36,-1.39 -69.61,-0.63 -17.15,0.59 -33.91,5.75 -50.29,11.25 l -0.42,0.1 c -11.69,2.87 -24.44,6.33 -34.37,13.36 -2,1.38 -2.77,2.73 -2.82,3.91 a 53.38,53.38 0 0 0 -3.06,6.15 c -2,4.33 -4.1,8.48 -6.44,12.63 -4.17,7.41 -7.62,15.74 -13.11,22.21 -0.55,0.66 0.45,0.77 0.87,0.45 6.29,-4.77 10.91,-12.49 14.86,-19.23 a 82.87,82.87 0 0 0 8.61,-19 13.69,13.69 0 0 0 4.7,2.32 59,59 0 0 0 8.88,1.73 9.24,9.24 0 0 0 -1.06,2.11 c -1.19,3.18 -3.28,5.78 -4.86,8.75 -1.66,3.15 -3.16,6.4 -4.75,9.58 -1.47,3 -2.27,6.61 -4.64,9.07 -0.4,0.38 0.3,0.52 0.55,0.31 3.9,-3.43 6.21,-9.58 8.72,-14 1.77,-3.11 3.55,-6.12 5.5,-9.17 1.25,-1.86 1.91,-4.49 3.24,-6.29 1.47,0.14 2.94,0.28 4.37,0.38 -0.74,1.59 -0.84,3.53 -1.47,5.15 -0.25,0.7 -1.21,5.33 -1.76,5.44 -0.29,0 -0.92,0.76 -0.29,0.76 1.54,0 2.31,-2.53 2.78,-3.67 a 73,73 0 0 0 2.87,-7.54 4,4 0 0 0 0.59,0 c 13.34,1 26.85,0.45 40.2,0.83 9,0.24 17.89,0.21 26.8,-0.21 -0.61,3.88 0,7.93 -0.09,11.77 -0.17,5.33 -1.31,10.79 -0.48,16.09 0.08,0.58 1.16,0.06 1.14,-0.39 -0.14,-5.39 1.47,-11 2.11,-16.4 a 70.82,70.82 0 0 0 0.5,-11.2 c 0.78,0 1.56,-0.11 2.34,-0.14 a 16.82,16.82 0 0 1 -0.09,2.94 27.08,27.08 0 0 0 0.07,6.36 c 0,0.66 1.18,0 1.21,-0.45 a 49.15,49.15 0 0 1 1.21,-7.23 c 0.12,-0.52 0.31,-1.17 0.4,-1.83 2.92,-0.17 5.83,-0.41 8.75,-0.69 13.57,-1.35 27.4,-2.87 40.93,-5.61 0,3.57 2.77,7.2 4.09,10.24 1.74,4 3.06,8.9 6.07,12.11 0.41,0.49 1.88,-0.38 1.47,-1 -2.49,-3.5 -3.18,-8.69 -4.59,-12.74 -0.81,-2.35 -2,-4.39 -2.71,-6.74 -0.28,-1 -0.4,-1.87 -0.69,-2.67 a 176.27,176.27 0 0 0 22.73,-6.54 c 0.2,-0.1 0.46,-0.2 0.74,-0.31 1.14,2.11 2.42,4.19 3.67,6.16 2,3.25 3.65,6.78 5.79,10 0.38,0.59 1.78,-0.17 1.44,-0.79 -2.13,-3.63 -3.69,-7.54 -5.71,-11.28 -0.81,-1.45 -1.49,-3.56 -2.56,-5.16 a 31.6,31.6 0 0 0 7.8,-4.77 35.65,35.65 0 0 0 1.19,4 120.6,120.6 0 0 0 6.27,13.08 98.6,98.6 0 0 0 16.53,22 c 0.33,0.28 1.42,-0.35 1.1,-0.8 z m -29.48,-39.64 c -1.35,1.24 -4,2.14 -5.63,2.87 a 98.21,98.21 0 0 1 -11.77,4.15 2.46,2.46 0 0 0 -0.94,-2.15 c -5.21,-3.42 -12.82,-4.36 -18.86,-5.39 -7.9,-1.35 -16.27,-1 -24.28,-1.15 -8.31,-0.17 -16.58,0.18 -24.88,0.73 -16,1 -32.24,2.35 -47.67,7.13 -5.66,1.76 -12.46,3.94 -16.46,8.58 a 6.77,6.77 0 0 0 -1.36,2.39 c -4.34,-0.11 -8.67,-0.28 -13,-0.66 a 50,50 0 0 1 -11.25,-2.11 c -1,-0.35 -2.78,-1 -3,-2.22 -0.33,-2.07 7.94,-5.26 9.33,-5.91 a 117.59,117.59 0 0 1 20.39,-7.27 c 3.82,-0.9 7.67,-1.76 11.51,-2.66 5.6,-1.14 11.2,-2.11 16.72,-3.08 a 396.66,396.66 0 0 1 50.41,-5.29 c 13.58,-0.59 27.84,-0.63 41.5,1.21 5.68,1 11.26,2.38 16.83,3.77 a 63.15,63.15 0 0 1 9,2.9 c 0.88,0.38 5.62,2.11 3.41,4.16 z"
           style="opacity:0.5;mix-blend-mode:multiply;fill:#292d3c"
           id="path44" />
        <path
           d="m 56.23,584 a 98.43,98.43 0 0 0 16.52,-22 120.16,120.16 0 0 0 6.25,-13 30.18,30.18 0 0 0 1.18,-4 32.13,32.13 0 0 0 7.8,4.78 54.36,54.36 0 0 0 -2.54,5.15 c -2,3.74 -3.6,7.65 -5.71,11.28 -0.35,0.62 1,1.39 1.43,0.83 2.13,-3.25 3.74,-6.74 5.8,-10 1.23,-2 2.53,-4.08 3.65,-6.19 a 5.82,5.82 0 0 0 0.76,0.31 166.37,166.37 0 0 0 22.73,6.54 c -0.31,0.8 -0.41,1.7 -0.71,2.7 -0.67,2.35 -1.9,4.39 -2.7,6.71 -1.4,4 -2.09,9.27 -4.6,12.77 -0.4,0.55 1.06,1.45 1.47,1 3,-3.22 4.36,-8.1 6.09,-12.11 1.32,-3.05 4.08,-6.71 4.08,-10.24 13.53,2.73 27.35,4.25 41,5.6 2.91,0.28 5.81,0.49 8.72,0.69 0.12,0.66 0.28,1.32 0.43,1.84 a 47.39,47.39 0 0 1 1.19,7.26 c 0,0.45 1.15,1.07 1.22,0.38 a 26.27,26.27 0 0 0 0,-6.33 17.92,17.92 0 0 1 -0.09,-2.94 l 2.35,0.1 a 72.45,72.45 0 0 0 0.51,11.25 c 0.64,5.36 2.26,11 2.09,16.36 0,0.49 1,1 1.14,0.42 0.83,-5.29 -0.29,-10.8 -0.45,-16.09 -0.12,-3.87 0.48,-7.92 -0.12,-11.73 8.93,0.38 17.85,0.42 26.81,0.18 13.36,-0.39 26.87,0.13 40.21,-0.8 0.17,0 0.38,0 0.58,-0.07 a 75.84,75.84 0 0 0 2.88,7.54 c 0.48,1.14 1.22,3.6 2.8,3.64 0.6,0 0,-0.66 -0.31,-0.73 -0.56,-0.14 -1.53,-4.74 -1.79,-5.43 -0.62,-1.66 -0.72,-3.57 -1.47,-5.19 1.46,-0.11 2.93,-0.21 4.42,-0.35 1.29,1.84 2,4.43 3.2,6.33 2,3 3.75,6 5.5,9.14 2.52,4.46 4.82,10.62 8.71,14 0.28,0.24 1,0.1 0.58,-0.31 -2.39,-2.43 -3.17,-6.06 -4.64,-9 -1.59,-3.19 -3.1,-6.44 -4.76,-9.59 -1.57,-2.94 -3.68,-5.57 -4.84,-8.71 a 9.19,9.19 0 0 0 -1.09,-2.15 62.36,62.36 0 0 0 8.89,-1.73 13.11,13.11 0 0 0 4.71,-2.35 82.17,82.17 0 0 0 8.61,19.06 c 3.95,6.71 8.55,14.46 14.86,19.24 0.43,0.31 1.4,0.2 0.85,-0.45 -5.48,-6.47 -8.94,-14.85 -13.1,-22.21 -2.33,-4.23 -4.33,-8.4 -6.4,-12.7 a 49.77,49.77 0 0 0 -3.06,-6.16 c -0.06,-1.21 -0.87,-2.53 -2.79,-3.88 -10,-7.09 -22.73,-10.51 -34.39,-13.42 a 2.34,2.34 0 0 1 -0.45,-0.07 c -16.36,-5.5 -33.13,-10.62 -50.27,-11.24 -23.25,-0.8 -46.52,-3.74 -69.63,0.62 -6.21,1.18 -12.4,2.53 -18.52,4.15 -4.1,1.11 -9.12,2.42 -12.36,5.36 a 5.39,5.39 0 0 0 -1.26,1.73 c -1.21,1.56 -1.75,4 -2.4,5.61 -1.85,4.5 -4.15,8.72 -6.28,13.08 a 249.57,249.57 0 0 1 -14.36,24.84 c -0.3,0.45 0.74,1.07 1.07,0.68 z M 88,539.52 a 59.05,59.05 0 0 1 9,-2.88 c 5.57,-1.41 11.18,-2.8 16.83,-3.8 13.67,-1.87 27.94,-1.8 41.5,-1.25 a 398.55,398.55 0 0 1 50.41,5.33 c 5.52,0.94 11.13,1.94 16.73,3.08 3.84,0.9 7.68,1.8 11.5,2.67 a 117.37,117.37 0 0 1 20.4,7.26 c 1.38,0.66 9.65,3.88 9.32,5.92 -0.22,1.21 -2,1.83 -3,2.21 a 51.71,51.71 0 0 1 -11.25,2.11 c -4.33,0.38 -8.67,0.56 -13,0.62 a 7.1,7.1 0 0 0 -1.37,-2.35 c -4,-4.63 -10.78,-6.81 -16.47,-8.58 -15.41,-4.77 -31.62,-6.12 -47.66,-7.16 -8.28,-0.52 -16.55,-0.83 -24.89,-0.69 -8,0.14 -16.36,-0.21 -24.27,1.14 -6,1 -13.66,1.94 -18.85,5.36 a 2.54,2.54 0 0 0 -0.94,2.15 92.52,92.52 0 0 1 -11.8,-4.12 c -1.62,-0.69 -4.25,-1.63 -5.62,-2.91 -2.15,-2 2.58,-3.73 3.43,-4.11 z"
           style="opacity:0.5;mix-blend-mode:multiply;fill:#292d3c"
           id="path45" />
        <path
           d="m 838.52,758.62 a 97.75,97.75 0 0 0 13.93,-23.73 121.1,121.1 0 0 0 4.74,-13.7 31.31,31.31 0 0 0 0.72,-4.12 30,30 0 0 0 8.31,3.84 c -0.89,1.73 -1.32,3.88 -2,5.47 -1.57,3.87 -2.7,8 -4.38,11.83 -0.27,0.66 1.2,1.25 1.51,0.62 1.75,-3.42 3,-7.09 4.62,-10.55 1,-2.11 2.06,-4.32 3,-6.54 0.29,0.11 0.53,0.14 0.74,0.21 a 176.18,176.18 0 0 0 23.35,3.94 c -0.2,0.8 -0.22,1.7 -0.39,2.7 -0.4,2.43 -1.39,4.6 -1.91,7 -1,4.15 -1,9.44 -3.13,13.18 -0.34,0.62 1.2,1.31 1.58,0.79 2.63,-3.56 3.39,-8.54 4.65,-12.73 1,-3.18 3.29,-7.13 2.89,-10.65 13.75,1.17 27.68,1.14 41.33,0.93 2.92,0 5.83,-0.14 8.75,-0.28 0.17,0.63 0.43,1.25 0.6,1.73 a 44,44 0 0 1 2,7.09 c 0.11,0.49 1.3,0.94 1.28,0.28 a 26.53,26.53 0 0 0 -0.67,-6.29 15.4,15.4 0 0 1 -0.4,-2.94 c 0.78,0 1.54,-0.07 2.32,-0.14 a 74.13,74.13 0 0 0 1.76,11.1 c 1.26,5.26 3.5,10.66 4,16 0,0.49 1.14,0.87 1.16,0.28 0.24,-5.36 -1.51,-10.66 -2.28,-15.92 -0.56,-3.84 -0.4,-7.92 -1.44,-11.66 8.91,-0.62 17.77,-1.59 26.66,-2.87 13.21,-1.9 26.71,-2.9 39.82,-5.36 a 3.37,3.37 0 0 1 0.61,-0.1 c 1.08,2.45 2.37,4.8 3.7,7.16 0.6,1 1.64,3.42 3.2,3.28 0.58,-0.07 -0.09,-0.69 -0.4,-0.69 -0.55,-0.07 -2,-4.53 -2.37,-5.19 -0.81,-1.59 -1.16,-3.46 -2.06,-5 1.44,-0.28 2.87,-0.55 4.31,-0.87 1.54,1.67 2.49,4.19 3.92,5.92 2.31,2.73 4.4,5.57 6.53,8.48 3,4.15 6,10 10.24,12.9 0.31,0.21 1,0 0.52,-0.34 -2.63,-2.15 -3.83,-5.68 -5.63,-8.44 -1.93,-3 -3.8,-6.06 -5.83,-9 -1.86,-2.7 -4.29,-5.13 -5.79,-8.1 a 8.12,8.12 0 0 0 -1.3,-2 57.45,57.45 0 0 0 8.63,-2.77 13.21,13.21 0 0 0 4.4,-2.84 84.6,84.6 0 0 0 10.71,18 c 4.7,6.23 10.15,13.39 17,17.4 0.47,0.28 1.42,0.07 0.79,-0.52 -6.17,-5.81 -10.57,-13.73 -15.51,-20.58 -2.81,-3.88 -5.33,-7.79 -7.84,-11.84 a 52.45,52.45 0 0 0 -3.74,-5.74 c -0.19,-1.21 -1.14,-2.42 -3.25,-3.56 -10.67,-5.88 -23.71,-7.86 -35.67,-9.38 -0.14,0 -0.28,0 -0.41,-0.07 -16.9,-3.63 -34.13,-6.78 -51.24,-5.43 -23.2,1.83 -46.66,1.56 -69.11,8.48 -6,1.87 -12,3.94 -17.94,6.26 -3.94,1.56 -8.77,3.42 -11.64,6.71 a 4.85,4.85 0 0 0 -1.07,1.9 c -1,1.66 -1.29,4.09 -1.77,5.82 -1.33,4.67 -3.13,9.13 -4.76,13.7 A 245.55,245.55 0 0 1 837.36,758 c -0.21,0.49 0.87,1 1.16,0.62 z M 865,710.78 a 56.74,56.74 0 0 1 8.65,-3.88 c 5.36,-2 10.78,-4 16.3,-5.67 13.35,-3.39 27.54,-5 41.08,-6 a 396.94,396.94 0 0 1 50.69,-0.45 c 5.57,0.31 11.28,0.65 17,1.17 3.91,0.42 7.81,0.87 11.73,1.35 a 116.07,116.07 0 0 1 21.07,4.88 c 1.47,0.48 10,2.73 9.93,4.81 0,1.28 -1.74,2.07 -2.71,2.52 a 46.61,46.61 0 0 1 -11,3.39 c -4.24,0.9 -8.53,1.56 -12.82,2.12 a 6.8,6.8 0 0 0 -1.63,-2.18 c -4.5,-4.16 -11.52,-5.57 -17.33,-6.68 -15.88,-3 -32.13,-2.46 -48.16,-1.7 -8.32,0.42 -16.57,1 -24.82,2.15 -7.94,1.07 -16.3,1.66 -24,3.87 -5.86,1.73 -13.33,3.5 -18.11,7.48 a 2.48,2.48 0 0 0 -0.67,2.25 90,90 0 0 1 -12.2,-2.77 c -1.71,-0.52 -4.43,-1.15 -5.92,-2.22 -2.37,-1.71 2.15,-3.99 2.92,-4.44 z"
           style="opacity:0.5;mix-blend-mode:multiply;fill:#292d3c"
           id="path46" />
        <rect
           style="fill:#5d607f;fill-opacity:1;stroke:none;stroke-width:1.00079;stroke-linecap:round;stroke-linejoin:round"
           id="rect47"
           width="1921.5593"
           height="205.80612"
           x="-0.77966309"
           y="873.69342" />
      </g>
    </g>
  </g>
  <metadata
     id="metadata47">
    <rdf:RDF>
      <cc:Work
         rdf:about="">
        <dc:title>Moon surface-Hero Section_JumperXBerachain</dc:title>
      </cc:Work>
    </rdf:RDF>
  </metadata>
</svg>
