<svg width="27" height="26" viewBox="0 0 27 26" fill="none" xmlns="http://www.w3.org/2000/svg">
<path d="M26.5 9.00188C26.5 8.80384 26.4671 8.50679 26.4011 8.34176C26.0057 6.9555 24.8523 6.09735 23.4024 6.09735C22.315 6.09735 21.2275 6.09735 20.1071 6.09735C20.898 3.75391 20.5684 2.10361 19.0856 0.915393C18.4265 0.387296 17.6356 0.0572354 16.7788 0.0242293C15.4607 -0.0417828 14.3733 0.453308 13.4835 1.34447C11.7041 -0.40485 9.62801 -0.206813 8.34284 0.585332C7.42015 1.14644 6.79404 1.97159 6.49746 3.02778C6.20089 4.08398 6.36565 5.10716 6.8929 6.09735C5.70659 6.09735 4.58619 6.09735 3.46578 6.09735C1.88403 6.13035 0.565906 7.38458 0.5 8.93587V12.7316C0.5 13.4577 1.09316 14.0188 1.78517 14.0188H2.51014C2.51014 14.2168 2.51014 14.3489 2.51014 14.4809C2.51014 17.2204 2.51014 19.9929 2.51014 22.7324C2.51014 24.7128 3.79531 25.967 5.73954 26H21.2605C23.2047 25.967 24.4569 24.7128 24.4569 22.7654C24.4569 20.0259 24.4569 17.2534 24.4569 14.5139C24.4569 14.3489 24.4569 14.2168 24.4569 14.0188H25.1819C25.9068 14.0188 26.4671 13.4247 26.4671 12.7316C26.5 11.4773 26.5 10.2561 26.5 9.00188ZM14.6039 3.58888C14.7687 2.5987 15.7902 1.93858 16.7788 2.0376C17.8333 2.16962 18.5913 3.06079 18.5913 4.08397C18.5583 5.10716 17.8004 5.99833 16.7459 6.06434C16.0209 6.09735 15.3289 6.06434 14.6039 6.06434C14.6039 5.20618 14.5051 4.38103 14.6039 3.58888ZM8.47465 3.91894C8.54056 2.86275 9.43029 2.0376 10.4848 2.0376C11.5722 2.0376 12.462 2.86275 12.4949 3.98496C12.5279 4.67808 12.4949 5.37121 12.4949 6.09735C11.7041 6.09735 10.9791 6.13035 10.2541 6.09735C9.16667 5.96532 8.37579 5.00814 8.47465 3.91894ZM2.57605 11.9394C2.57605 11.8404 2.54309 11.7414 2.54309 11.6424C2.54309 10.8172 2.54309 9.99206 2.54309 9.16691C2.54309 8.53979 2.93853 8.11071 3.56464 8.11071C6.49747 8.11071 9.39734 8.11071 12.3302 8.11071C12.3631 8.11071 12.3961 8.14372 12.462 8.14372C12.462 9.43096 12.462 10.6522 12.462 11.9394C9.16667 11.9394 5.90431 11.9394 2.57605 11.9394ZM4.58619 22.7654C4.58619 19.9929 4.58619 17.2204 4.58619 14.4809C4.58619 14.3489 4.58619 14.2498 4.58619 14.0848C7.22243 14.0848 9.82573 14.0848 12.462 14.0848C12.462 17.3854 12.462 20.686 12.462 24.0196C12.3302 24.0196 12.1984 24.0196 12.0665 24.0196C9.9905 24.0196 7.91445 24.0196 5.80545 24.0196C4.94867 23.9866 4.58619 23.6236 4.58619 22.7654ZM22.4468 14.4809C22.4468 17.2534 22.4468 20.0259 22.4468 22.7654C22.4468 23.5906 22.0843 23.9866 21.2275 23.9866C19.1185 23.9866 17.0425 23.9866 14.9335 23.9866C14.8016 23.9866 14.7028 23.9866 14.538 23.9866C14.538 20.653 14.538 17.3854 14.538 14.0518C17.1743 14.0518 19.7776 14.0518 22.4468 14.0518C22.4468 14.1838 22.4468 14.3489 22.4468 14.4809ZM24.4899 11.9394C21.1616 11.9394 17.8992 11.9394 14.571 11.9394C14.571 10.6852 14.571 9.43096 14.571 8.11071C14.7028 8.11071 14.8346 8.11071 14.9664 8.11071C17.7345 8.11071 20.5025 8.11071 23.2376 8.11071C24.0944 8.11071 24.4569 8.47378 24.4569 9.33194C24.4899 10.2231 24.4899 11.0813 24.4899 11.9394Z" fill="white" fill-opacity="0.84"/>
</svg>
