<svg width="33" height="32" viewBox="0 0 33 32" fill="none" xmlns="http://www.w3.org/2000/svg">
<path d="M21.8106 16.3745C21.0617 16.5787 20.7553 16.4085 20.4489 15.7277C19.4957 13.583 18.3042 11.6085 16.6361 9.97446L16.6021 9.94042C15.7851 9.05531 14.8319 8.51063 13.5383 8.68084C12.7893 8.78297 12.0064 8.71489 11.2574 8.68084C10.7808 8.6468 10.4404 8.81701 10.1 9.08935C8.49997 10.3149 7.34253 11.8808 6.35529 13.583C5.06167 15.7957 4.17657 18.1447 3.83614 20.6979C3.5638 22.6723 3.66593 24.6128 4.68721 26.417C5.60635 28.017 7.0021 28.8 8.80635 28.834C11.4276 28.8681 14.0149 28.834 16.6361 28.834C17.317 28.834 17.5893 29.0383 17.7595 29.6851C17.6574 30.434 17.3851 30.6723 16.6361 30.6723C14.151 30.6723 11.6319 30.6383 9.14678 30.6723C5.33401 30.7064 3.12125 28.4255 2.23614 25.3277C1.52125 22.7064 1.89572 20.1191 2.64465 17.5659C3.63189 14.2298 5.26593 11.2681 7.75104 8.68084C7.30848 8.68084 6.89997 8.68084 6.5255 8.68084C5.94678 8.68084 5.53827 8.30637 5.53827 7.76169C5.53827 7.21701 5.94678 6.84255 6.5255 6.84255C6.96806 6.84255 7.41061 6.84255 7.95529 6.84255C7.20635 6.22978 6.5255 5.6851 5.84465 5.14042C5.1638 4.56169 4.89146 3.81276 5.12976 2.92765C5.36806 2.0085 6.15104 1.36169 7.07018 1.36169C10.951 1.36169 14.7978 1.36169 18.6106 1.36169C19.4617 1.36169 20.2447 1.94042 20.517 2.75744C20.8234 3.57446 20.5851 4.52765 19.9383 5.07233C19.2574 5.65106 18.5425 6.19574 17.7595 6.84255C18.3042 6.84255 18.7127 6.84255 19.1553 6.84255C19.7681 6.84255 20.1766 7.21701 20.1766 7.76169C20.1766 8.30637 19.7681 8.68084 19.1553 8.68084C18.7808 8.68084 18.4404 8.68084 17.9978 8.68084C18.5766 9.29361 19.0872 9.87233 19.5298 10.4851C20.5851 11.8808 21.4702 13.4128 22.151 15.0128C22.3893 15.6596 22.3212 15.9319 21.8106 16.3745ZM12.8574 3.19999C11.0532 3.19999 9.21487 3.19999 7.41061 3.19999C7.20635 3.19999 7.0021 3.13191 6.89997 3.40425C6.79784 3.64255 7.0021 3.77872 7.13827 3.88084C8.29572 4.79999 9.48721 5.75318 10.6447 6.67233C10.8149 6.8085 10.9851 6.87659 11.1893 6.87659C12.2787 6.87659 13.3681 6.87659 14.4915 6.87659C14.7298 6.87659 14.9 6.8085 15.0702 6.67233C16.1936 5.75318 17.351 4.83403 18.4744 3.91489C18.6447 3.77872 18.8829 3.67659 18.8149 3.40425C18.7127 3.13191 18.4744 3.19999 18.2702 3.19999C16.4659 3.19999 14.6617 3.19999 12.8574 3.19999Z" fill="white" fill-opacity="0.84"/>
<path d="M20.1766 28.6298C20.1766 27.2341 20.1766 25.8383 20.1766 24.4766C20.1766 23.0468 20.8915 22.2638 22.3213 22.1277C22.5936 22.0936 22.6617 22.0255 22.6617 21.7532C22.6617 21.0723 22.6617 20.4255 22.6617 19.7447C22.934 18.6213 23.5808 17.8043 24.6702 17.3958C26.5425 16.7149 28.6191 18.0426 28.7213 20.0511C28.7553 20.6298 28.7553 21.1745 28.7213 21.7532C28.7213 21.9915 28.7553 22.0936 29.0276 22.1277C30.4574 22.2638 31.1723 23.0468 31.1723 24.4766C31.1723 25.8043 31.1723 27.0979 31.1723 28.4255C31.1723 29.7532 30.2872 30.6723 28.9596 30.6723C26.8149 30.6723 24.7042 30.6723 22.5596 30.6723C21.1638 30.6723 20.3808 29.9915 20.1766 28.6298ZM25.6915 23.966C24.6361 23.966 23.5468 23.966 22.4915 23.966C22.151 23.966 22.0149 24.1021 22.0149 24.4426C22.0149 25.7362 22.0149 27.0298 22.0149 28.3234C22.0149 28.6979 22.151 28.8341 22.5255 28.8341C24.6361 28.8341 26.7468 28.8341 28.8234 28.8341C29.1979 28.8341 29.334 28.6979 29.334 28.3234C29.334 27.0298 29.334 25.7702 29.334 24.4766C29.334 24.0681 29.1979 23.9319 28.7893 23.9319C27.7681 23.966 26.7468 23.966 25.6915 23.966ZM25.6234 22.0936C25.9979 22.0936 26.3383 22.0936 26.6447 22.0936C26.8489 22.0936 26.917 22.0255 26.883 21.8213C26.883 21.2766 26.883 20.766 26.883 20.2213C26.8489 19.5404 26.3383 19.0298 25.6915 19.0298C25.0447 19.0298 24.534 19.5404 24.5 20.2213C24.5 20.4255 24.5 20.6638 24.5 20.8681C24.5 21.2426 24.3298 21.7532 24.5681 22.0255C24.7723 22.2638 25.283 22.0596 25.6234 22.0936Z" fill="white" fill-opacity="0.84"/>
<path d="M11.9383 22.1277C12.3468 22.1277 12.7553 22.1277 13.1638 22.1277C13.7425 22.0936 14.0489 21.8213 14.0489 21.3447C14.0489 20.8681 13.7425 20.5958 13.1638 20.5958C12.6191 20.5958 12.0744 20.6298 11.5298 20.4596C10.4744 20.0851 9.82764 19.166 9.82764 18.0426C9.82764 16.8851 10.4744 15.9319 11.5638 15.5575C11.9042 15.4553 12.0064 15.3192 11.9723 14.9787C11.9383 14.7745 11.9723 14.5702 11.9723 14.4C12.0064 13.9575 12.4149 13.583 12.8574 13.549C13.3 13.549 13.7085 13.9234 13.7766 14.4C13.8106 14.7064 13.6064 15.1489 13.8787 15.3532C14.117 15.4894 14.5255 15.3872 14.8659 15.3872C15.3085 15.3872 15.683 15.5575 15.8532 16C15.9893 16.3745 15.8872 16.749 15.5468 17.0213C15.3425 17.1915 15.1383 17.1915 14.9 17.1915C14.1851 17.1915 13.4702 17.1915 12.7553 17.1915C12.6191 17.1915 12.483 17.1915 12.3468 17.2255C11.8702 17.2936 11.6319 17.6 11.6659 18.0426C11.7 18.4851 11.9723 18.7234 12.4489 18.7575C12.8915 18.7915 13.334 18.7234 13.7766 18.7915C14.934 19.0298 15.7851 19.949 15.8872 21.0043C15.9893 22.2979 15.3425 23.3532 14.1851 23.7617C13.8787 23.8638 13.7425 24 13.7766 24.3404C13.8106 24.5447 13.7766 24.749 13.7766 24.9192C13.7425 25.3958 13.3 25.7702 12.8574 25.7702C12.4149 25.7702 12.0404 25.3958 11.9723 24.9192C11.9383 24.6128 12.1425 24.1702 11.8702 23.966C11.6319 23.8298 11.2234 23.9319 10.883 23.9319C10.2361 23.8979 9.86168 23.5575 9.86168 23.0128C9.86168 22.5021 10.2021 22.1617 10.7127 22.1277C10.7468 22.1277 10.7808 22.1277 10.8149 22.1277C11.1553 22.1277 11.5638 22.1277 11.9383 22.1277Z" fill="white" fill-opacity="0.84"/>
</svg>
