<svg width="32" height="32" viewBox="0 0 32 32" fill="none" xmlns="http://www.w3.org/2000/svg">
<path d="M14.6153 21.6957L5.13262 23.8909C4.78675 23.9776 4.52734 24.3242 4.52734 24.6708V31.1988C4.52734 31.7476 4.95969 32.0943 5.50732 31.9787L18.737 28.9169C19.2846 28.8014 19.5152 28.2814 19.2846 27.7904L16.8923 22.8511C16.5176 22.0712 16.8923 21.2624 17.7282 21.0891L26.375 19.0094C26.9803 18.865 27.4991 18.2295 27.4991 17.594V11.5571C27.4991 11.0083 27.0667 10.6328 26.5191 10.7772L14.0389 13.7523C13.2606 13.9256 12.9148 14.6766 13.2606 15.3988L15.4512 19.9337C15.8259 20.7136 15.4512 21.4935 14.6153 21.6957Z" fill="black"/>
<path d="M8.36225 5.3748L10.841 10.4585C11.1581 11.1229 10.841 11.8161 10.1204 11.9606L5.53762 13.0293C4.96116 13.1737 4.5 13.7514 4.5 14.3291V19.7884C4.5 20.7127 5.24939 21.2904 6.1429 21.0882L10.4087 20.1061C10.9851 19.9906 11.4463 19.384 11.4463 18.8063L11.4751 13.2026C11.4751 12.4227 12.1092 11.6428 12.8586 11.4695L26.8376 8.11886C27.1835 8.03221 27.4429 7.68559 27.4429 7.33897V0.810981C27.4429 0.262168 27.0106 -0.113336 26.4629 0.0310883L8.90988 4.24829C8.36225 4.36382 8.13167 4.88375 8.36225 5.3748Z" fill="black"/>
</svg>
