<svg width="24" height="24" viewBox="0 0 24 24" fill="none" xmlns="http://www.w3.org/2000/svg">
<path d="M4.81099 2V3.87574C4.81099 5.0715 4.38245 6.22767 3.6031 7.13456L2.3525 8.58981C2.12506 8.85447 2 9.19188 2 9.54084V9.54084C2 10.3467 2.65329 11 3.45916 11H4" stroke="white" stroke-width="1.6"/>
<path d="M19.1895 2V3.87574C19.1895 5.0715 19.618 6.22767 20.3973 7.13456L21.6479 8.58981C21.8754 8.85447 22.0004 9.19188 22.0004 9.54084V9.54084C22.0004 10.3467 21.3472 11 20.5413 11H20.0004" stroke="white" stroke-width="1.6"/>
<path d="M19.1895 24V24C19.1895 22.8844 19.5893 21.8058 20.3164 20.9597L21.6479 19.4102C21.8754 19.1455 22.0004 18.8081 22.0004 18.4592V18.4592C22.0004 17.6533 21.3472 17 20.5413 17H20.0004" stroke="white" stroke-width="1.6"/>
<path d="M4.81099 24V24C4.81099 22.8844 4.41118 21.8058 3.68409 20.9597L2.3525 19.4102C2.12506 19.1455 2 18.8081 2 18.4592V18.4592C2 17.6533 2.65329 17 3.45916 17H4" stroke="white" stroke-width="1.6"/>
<path d="M17 17V13C17 12.4774 16.9198 11.9735 16.7711 11.5C14.9353 12.2302 13.4808 12.5788 12 12.5633C10.5594 12.5482 9.0941 12.1884 7.2289 11.5C7.08018 11.9735 7 12.4774 7 13V17C7 17.3425 7.03443 17.6769 7.10002 18C7.29541 18.9626 7.76735 19.8248 8.42928 20.5C9.33675 21.4257 10.6013 22 12 22C13.3986 22 14.6631 21.4256 15.5705 20.5C16.2325 19.8248 16.7044 18.9626 16.8998 18C16.9654 17.6769 17 17.3425 17 17Z" fill="#13F287" fill-opacity="0.3"/>
<path d="M12 22C14.7614 22 17 19.7614 17 17M12 22C10.6013 22 9.33675 21.4257 8.42928 20.5C7.76735 19.8248 7.29541 18.9626 7.10002 18C7.03443 17.6769 7 17.3425 7 17V13C7 12.4774 7.08018 11.9735 7.2289 11.5M12 22C13.3986 22 14.6631 21.4256 15.5705 20.5C16.2325 19.8248 16.7044 18.9626 16.8998 18C16.9654 17.6769 17 17.3425 17 17M12 22V12.5633M17 17V13C17 12.4774 16.9198 11.9735 16.7711 11.5M7.2289 11.5C7.86603 9.47145 9.76118 8 12 8C14.2388 8 16.134 9.47145 16.7711 11.5M7.2289 11.5C9.0941 12.1884 10.5594 12.5482 12 12.5633M16.7711 11.5C14.9353 12.2302 13.4808 12.5788 12 12.5633" stroke="white" stroke-width="1.6"/>
<circle cx="12" cy="3" r="2" stroke="#13F287"/>
</svg>
