<?xml version="1.0" encoding="utf-8"?>
<svg viewBox="16.688 16.97 75.523 19.906" width="75.523" height="19.906" xmlns="http://www.w3.org/2000/svg">
  <path d="M 49.482 24.905 C 49.802 24.783 50.132 24.646 50.474 24.493 C 50.829 24.33 51.17 24.156 51.502 23.974 C 51.832 23.78 52.147 23.58 52.445 23.378 C 52.755 23.163 53.031 22.94 53.272 22.705 L 54.995 22.705 L 54.995 33.29 L 52.528 33.29 L 52.528 25.669 C 52.196 25.872 51.828 26.061 51.418 26.234 C 51.01 26.396 50.614 26.539 50.226 26.662 L 49.482 24.905 Z" fill="#2C3437" style=""/>
  <path d="M 65.973 22.705 L 68.556 22.705 L 68.556 33.29 L 65.973 33.29 L 65.973 28.799 L 61.64 28.799 L 61.64 33.29 L 59.056 33.29 L 59.056 22.705 L 61.64 22.705 L 61.64 26.752 L 65.973 26.752 L 65.973 22.705 Z" fill="#2C3437" style=""/>
  <path d="M 73.513 33.29 L 71.047 33.29 L 71.047 25.257 L 73.513 25.257 L 73.513 33.29 Z M 73.746 22.935 C 73.746 23.352 73.596 23.682 73.298 23.927 C 73.012 24.161 72.67 24.279 72.27 24.279 C 71.874 24.279 71.527 24.161 71.229 23.927 C 70.941 23.682 70.798 23.352 70.798 22.935 C 70.798 22.517 70.941 22.192 71.229 21.958 C 71.527 21.713 71.874 21.59 72.27 21.59 C 72.67 21.59 73.012 21.713 73.298 21.958 C 73.596 22.192 73.746 22.517 73.746 22.935 Z" fill="#2C3437" style=""/>
  <path d="M 77.94 33.29 C 77.377 32.272 76.803 31.081 76.218 29.716 C 75.644 28.351 75.098 26.865 74.579 25.257 L 77.194 25.257 C 77.306 25.653 77.433 26.087 77.576 26.554 C 77.731 27.014 77.884 27.481 78.041 27.959 C 78.204 28.428 78.365 28.886 78.519 29.334 C 78.686 29.782 78.845 30.19 78.999 30.556 C 79.143 30.19 79.296 29.782 79.464 29.334 C 79.628 28.886 79.789 28.428 79.943 27.959 C 80.108 27.481 80.263 27.014 80.406 26.554 C 80.561 26.087 80.693 25.653 80.805 25.257 L 83.354 25.257 C 82.835 26.865 82.281 28.351 81.698 29.716 C 81.124 31.081 80.556 32.272 79.993 33.29 L 77.94 33.29 Z" fill="#2C3437" style=""/>
  <path d="M 84.034 29.334 C 84.034 28.622 84.15 28 84.382 27.471 C 84.623 26.931 84.938 26.484 85.324 26.127 C 85.712 25.771 86.153 25.5 86.648 25.318 C 87.157 25.134 87.674 25.042 88.205 25.042 C 89.443 25.042 90.419 25.394 91.135 26.097 C 91.852 26.789 92.211 27.813 92.211 29.166 C 92.211 29.299 92.205 29.446 92.194 29.61 C 92.184 29.763 92.171 29.9 92.162 30.023 L 86.566 30.023 C 86.621 30.489 86.859 30.861 87.278 31.138 C 87.698 31.411 88.26 31.548 88.966 31.548 C 89.42 31.548 89.86 31.513 90.29 31.442 C 90.732 31.361 91.091 31.263 91.366 31.151 L 91.697 33 C 91.565 33.062 91.389 33.123 91.168 33.183 C 90.947 33.244 90.698 33.295 90.424 33.336 C 90.158 33.387 89.871 33.428 89.563 33.458 C 89.253 33.488 88.944 33.505 88.636 33.505 C 87.853 33.505 87.169 33.397 86.584 33.183 C 86.008 32.97 85.528 32.68 85.143 32.313 C 84.767 31.936 84.486 31.493 84.298 30.984 C 84.123 30.475 84.034 29.926 84.034 29.334 Z M 89.827 28.464 C 89.816 28.271 89.777 28.082 89.713 27.899 C 89.655 27.716 89.563 27.552 89.431 27.41 C 89.308 27.268 89.15 27.151 88.949 27.059 C 88.763 26.967 88.525 26.921 88.237 26.921 C 87.962 26.921 87.726 26.967 87.526 27.059 C 87.327 27.141 87.162 27.252 87.031 27.396 C 86.897 27.537 86.793 27.705 86.716 27.899 C 86.648 28.082 86.598 28.271 86.566 28.464 L 89.827 28.464 Z" fill="#2C3437" style=""/>
  <path d="M 28.949 25.587 C 28.791 25.535 28.624 25.518 28.457 25.534 C 28.291 25.548 28.128 25.599 27.986 25.677 L 17.267 31.527 C 17.263 31.529 17.26 31.53 17.254 31.534 C 16.712 31.848 16.54 32.43 16.823 32.983 C 17.178 33.673 18.436 34.32 19.952 34.596 C 20.503 34.695 21.065 34.746 21.628 34.746 C 22.834 34.746 24.316 34.522 25.96 33.8 C 27.234 33.24 28.444 32.018 29.199 30.528 C 29.996 28.96 30.154 27.378 29.633 26.189 C 29.572 26.048 29.477 25.921 29.359 25.818 C 29.244 25.714 29.102 25.636 28.949 25.587 Z" fill="#7CE0D6" style=""/>
  <path d="M 45.562 31.534 C 45.559 31.53 45.555 31.529 45.551 31.525 L 34.831 25.676 C 34.689 25.599 34.527 25.548 34.362 25.534 C 34.196 25.518 34.027 25.535 33.869 25.587 C 33.717 25.636 33.577 25.714 33.459 25.818 C 33.341 25.921 33.247 26.048 33.185 26.189 C 32.664 27.378 32.821 28.96 33.619 30.528 C 34.374 32.018 35.586 33.24 36.858 33.8 C 38.5 34.522 39.983 34.746 41.19 34.746 C 41.753 34.746 42.315 34.695 42.864 34.596 C 44.382 34.32 45.639 33.671 45.995 32.983 C 46.279 32.43 46.106 31.848 45.562 31.534 Z" fill="#7CE0D6" style=""/>
  <path fill-rule="evenodd" clip-rule="evenodd" d="M 27.034 17.453 C 27.034 17.186 27.264 16.97 27.547 16.97 C 28.433 16.97 29.284 17.302 29.913 17.892 C 30.537 18.484 30.889 19.284 30.889 20.119 C 30.889 20.387 30.66 20.603 30.376 20.603 C 30.094 20.603 29.865 20.387 29.865 20.119 C 29.865 19.54 29.621 18.985 29.185 18.575 C 28.751 18.166 28.162 17.937 27.547 17.937 C 27.264 17.937 27.034 17.719 27.034 17.453 Z" fill="#2C3437" style=""/>
  <path fill-rule="evenodd" clip-rule="evenodd" d="M 35.336 17.937 C 35.031 17.937 34.73 17.993 34.449 18.103 C 34.167 18.212 33.913 18.373 33.697 18.575 C 33.481 18.779 33.31 19.02 33.193 19.284 C 33.077 19.548 33.017 19.832 33.017 20.119 C 33.017 20.387 32.788 20.603 32.506 20.603 C 32.221 20.603 31.994 20.387 31.994 20.119 C 31.994 19.706 32.078 19.297 32.247 18.913 C 32.416 18.532 32.663 18.185 32.971 17.892 C 33.283 17.6 33.651 17.368 34.056 17.21 C 34.461 17.052 34.895 16.97 35.336 16.97 C 35.62 16.97 35.848 17.186 35.848 17.453 C 35.848 17.719 35.62 17.937 35.336 17.937 Z" fill="#2C3437" style=""/>
  <path d="M 36.464 33.889 L 25.387 33.889 L 30.419 36.625 C 30.72 36.789 31.061 36.876 31.409 36.876 C 31.757 36.876 32.099 36.791 32.4 36.626 L 37.435 33.889 L 36.464 33.889 Z" fill="#2C3437" style=""/>
  <path d="M 38.017 27.845 L 24.288 27.845 L 24.288 30.982 L 38.529 30.982 L 38.529 27.845 L 38.017 27.845 Z" fill="#2C3437" style=""/>
  <path d="M 37.541 25.005 L 37.418 24.938 L 25.404 24.938 L 25.28 25.005 C 24.979 25.17 24.729 25.405 24.555 25.687 C 24.382 25.971 24.29 26.291 24.288 26.618 L 24.288 27.845 L 38.529 27.845 L 38.529 26.618 C 38.529 26.291 38.437 25.971 38.264 25.689 C 38.091 25.405 37.842 25.17 37.541 25.005 Z" fill="#FFDD0F" style=""/>
  <path d="M 38.017 30.982 L 24.288 30.982 L 24.288 32.214 C 24.29 32.541 24.379 32.863 24.555 33.148 C 24.729 33.431 24.979 33.666 25.28 33.83 L 25.387 33.89 L 37.435 33.89 L 37.544 33.83 C 37.844 33.664 38.092 33.429 38.266 33.146 C 38.437 32.861 38.528 32.541 38.529 32.214 L 38.529 30.982 L 38.017 30.982 Z" fill="#FFDD0F" style=""/>
  <path d="M 32.402 22.209 C 32.101 22.045 31.759 21.958 31.412 21.958 C 31.064 21.958 30.722 22.045 30.421 22.209 L 25.404 24.938 L 37.418 24.938 L 32.402 22.209 Z" fill="#2C3437" style=""/>
</svg>