<?xml version="1.0" encoding="UTF-8"?>
<svg width="2964px" height="728px" viewBox="0 0 2964 728" version="1.1" xmlns="http://www.w3.org/2000/svg" xmlns:xlink="http://www.w3.org/1999/xlink">
    <title>Group 7</title>
    <g id="Page-1" stroke="none" stroke-width="1" fill="none" fill-rule="evenodd">
        <g id="Group-7">
            <g id="lifi">
                <path d="M258.181014,414.079003 L243.702014,389.002003 C234.769014,373.528003 234.771014,354.463003 243.708014,338.992003 L369.604014,121.049003 C369.831014,120.656003 370.062014,120.268003 370.297014,119.884003 L384.041014,96.0790026 L50.094214,96.0790026 C11.609314,96.0790026 -12.447686,137.736003 6.78712395,171.069003 L132.583014,389.069003 C141.513014,404.545003 158.022014,414.079003 175.890014,414.079003 L258.181014,414.079003 Z M552.563014,412.057003 C548.090014,413.368003 543.306014,414.080003 538.275014,414.080003 L258.020014,414.080003 L424.814014,702.977003 C444.056014,736.305003 492.161014,736.311003 511.411014,702.987003 L637.306014,485.044003 C646.244014,469.573003 646.246014,450.508003 637.312014,435.034003 L596.346014,364.079003 L581.939014,389.034003 C575.396014,400.366003 564.790014,408.510003 552.563014,412.057003 Z M720.061014,0.0578026438 C758.546014,0.0667026438 782.593014,41.7289026 763.350014,75.0578026 L596.486014,364.076003 L456.180014,121.059003 C446.290014,103.929003 428.776014,95.6010026 411.473014,96.0780026 L384.020014,96.0780026 L425.056014,25.0000013 C433.990014,9.52640264 450.502014,-0.0040973562 468.369014,1.32147238e-06 L720.061014,0.0578026438 Z M720.062014,0.0582026438 C758.547014,0.0671026438 782.594014,41.7293026 763.352014,75.0582026 L596.487014,364.076003 L637.454014,435.032003 C646.387014,450.505003 646.385014,469.570003 637.448014,485.042003 L511.552014,702.984003 C492.302014,736.309003 444.198014,736.303003 424.955014,702.974003 L258.161014,414.078003 L175.870014,414.078003 C158.003014,414.078003 141.493014,404.544003 132.563014,389.068003 L6.76755395,171.068003 C-12.467286,137.735003 11.589714,96.0780026 50.074614,96.0780026 L384.021014,96.0780026 L425.058014,25.0004013 C433.992014,9.52680264 450.503014,0.000401321472 468.371014,0.000401321472 L720.062014,0.0582026438 Z" id="Shape" fill="#1E1451"></path>
                <path d="M258.161014,414.079003 L243.683014,389.002003 C234.749014,373.528003 234.751014,354.463003 243.688014,338.992003 L369.584014,121.049003 C369.811014,120.656003 370.042014,120.268003 370.277014,119.884003 L384.021014,96.0790026 L50.074614,96.0790026 C11.589714,96.0790026 -12.467286,137.736003 6.76755395,171.069003 L132.563014,389.069003 C141.493014,404.545003 158.003014,414.079003 175.870014,414.079003 L258.161014,414.079003 Z" id="Path" fill="#5D97FE"></path>
                <path d="M552.543014,412.057003 C548.070014,413.368003 543.286014,414.080003 538.255014,414.080003 L258.000014,414.080003 L424.794014,702.977003 C444.037014,736.305003 492.141014,736.311003 511.391014,702.987003 L637.287014,485.044003 C646.224014,469.573003 646.226014,450.508003 637.293014,435.034003 L596.327014,364.079003 L581.919014,389.034003 C575.377014,400.366003 564.770014,408.510003 552.543014,412.057003 Z" id="Path" fill="#3FDAFE"></path>
                <path d="M720.041014,0.0578026438 C758.526014,0.0667026438 782.573014,41.7289026 763.331014,75.0578026 L596.466014,364.076003 L456.160014,121.059003 C446.270014,103.929003 428.756014,95.6010026 411.454014,96.0780026 L384.000014,96.0780026 L425.037014,25.0000013 C433.971014,9.52640264 450.482014,-0.0040973562 468.350014,1.32147238e-06 L720.041014,0.0578026438 Z" id="Path" fill="#A368FE"></path>
            </g>
            <text id="Li.Finance" font-family="Inter-Bold, Inter" font-size="400" font-weight="bold" fill="#1E1451">
                <tspan x="962.863636" y="509">Li.Finance</tspan>
            </text>
        </g>
    </g>
</svg>