<svg width="306" height="72" viewBox="0 0 306 72" fill="none" xmlns="http://www.w3.org/2000/svg">
<path d="M89.1655 54H95.5555L101.203 45.9675L106.806 54H113.196L104.263 41.715L112.971 29.7H106.581L101.203 37.4625L95.7355 29.7H89.3455L98.053 41.715L89.1655 54Z" fill="#18191F"/>
<path d="M116.783 54H122.205V42.6825H130.17C130.47 42.6825 130.868 42.6675 131.363 42.6376C131.873 42.6075 132.338 42.5625 132.758 42.5025C135.548 42.0675 137.618 40.905 138.968 39.015C140.333 37.11 141.015 34.8225 141.015 32.1525C141.015 29.4675 140.34 27.18 138.99 25.29C137.655 23.385 135.578 22.215 132.758 21.78C132.338 21.705 131.88 21.66 131.385 21.645C130.89 21.615 130.485 21.6 130.17 21.6H116.783V54ZM122.205 37.62V26.685H129.945C130.245 26.685 130.583 26.7 130.958 26.73C131.333 26.76 131.678 26.8125 131.993 26.8875C132.893 27.1125 133.598 27.5175 134.108 28.1025C134.633 28.6725 135 29.3175 135.21 30.0375C135.435 30.7575 135.548 31.4625 135.548 32.1525C135.548 32.8425 135.435 33.5475 135.21 34.2675C135 34.9875 134.633 35.6325 134.108 36.2025C133.598 36.7725 132.893 37.17 131.993 37.395C131.678 37.485 131.333 37.545 130.958 37.575C130.583 37.605 130.245 37.62 129.945 37.62H122.205Z" fill="#18191F"/>
<path d="M155.86 54.675C158.29 54.675 160.412 54.1351 162.227 53.055C164.042 51.9601 165.452 50.4526 166.457 48.5326C167.477 46.5975 167.987 44.3701 167.987 41.85C167.987 39.345 167.485 37.1325 166.48 35.2125C165.475 33.2775 164.065 31.7625 162.25 30.6675C160.435 29.5725 158.305 29.025 155.86 29.025C153.475 29.025 151.375 29.565 149.56 30.645C147.745 31.725 146.327 33.225 145.307 35.145C144.287 37.065 143.777 39.3 143.777 41.85C143.777 44.355 144.272 46.575 145.262 48.51C146.267 50.43 147.677 51.9375 149.492 53.0326C151.307 54.1275 153.43 54.675 155.86 54.675ZM155.86 49.59C153.775 49.59 152.192 48.8925 151.112 47.4975C150.047 46.0875 149.515 44.205 149.515 41.85C149.515 39.555 150.025 37.695 151.045 36.27C152.08 34.83 153.685 34.11 155.86 34.11C157.99 34.11 159.587 34.815 160.652 36.225C161.717 37.62 162.25 39.495 162.25 41.85C162.25 44.13 161.717 45.99 160.652 47.43C159.602 48.87 158.005 49.59 155.86 49.59Z" fill="#18191F"/>
<path d="M173.395 54H178.817V20.925H173.395V54Z" fill="#18191F"/>
<path d="M186.007 54H191.429V20.925H186.007V54Z" fill="#18191F"/>
<path d="M198.619 26.01H204.042V21.0375H198.619V26.01ZM198.619 54H204.042V29.7H198.619V54Z" fill="#18191F"/>
<path d="M210.737 54H216.227V41.5126C216.227 39.5476 216.504 38.0325 217.059 36.9675C217.629 35.8875 218.349 35.145 219.219 34.74C220.104 34.32 221.004 34.11 221.919 34.11C223.209 34.11 224.237 34.395 225.002 34.965C225.767 35.52 226.329 36.2325 226.689 37.1025C227.064 37.9575 227.304 38.85 227.409 39.78C227.529 40.71 227.589 41.55 227.589 42.3V54H233.079V40.4325C233.079 39.8625 233.027 39.105 232.922 38.16C232.832 37.215 232.622 36.2175 232.292 35.1675C231.962 34.1175 231.452 33.1275 230.762 32.1975C230.072 31.2525 229.134 30.4875 227.949 29.9025C226.779 29.3025 225.302 29.0025 223.517 29.0025C221.762 29.0025 220.217 29.31 218.882 29.925C217.562 30.525 216.459 31.35 215.574 32.4V29.7H210.737V54Z" fill="#18191F"/>
<path d="M245.745 54.675C247.68 54.675 249.323 54.3601 250.673 53.73C252.038 53.085 253.238 52.0875 254.273 50.7375V54H259.02V39.0825C259.02 38.0325 258.975 37.065 258.885 36.18C258.795 35.28 258.533 34.4025 258.098 33.5475C257.303 31.9425 256.08 30.7875 254.43 30.0825C252.795 29.3775 250.898 29.025 248.738 29.025C245.888 29.025 243.615 29.6475 241.92 30.8925C240.225 32.1375 239.078 33.7875 238.478 35.8425L243.428 37.395C243.833 36.15 244.545 35.2725 245.565 34.7625C246.585 34.2525 247.643 33.9975 248.738 33.9975C250.388 33.9975 251.603 34.335 252.383 35.01C253.163 35.67 253.605 36.6975 253.71 38.0925C251.58 38.4075 249.6 38.715 247.77 39.015C245.955 39.3 244.41 39.6525 243.135 40.0725C241.215 40.7325 239.813 41.67 238.928 42.885C238.043 44.085 237.6 45.57 237.6 47.34C237.6 48.675 237.908 49.8975 238.523 51.0075C239.153 52.1175 240.075 53.01 241.29 53.6851C242.505 54.3451 243.99 54.675 245.745 54.675ZM246.825 50.355C245.55 50.355 244.575 50.0625 243.9 49.4776C243.24 48.8925 242.91 48.1575 242.91 47.2725C242.91 46.4775 243.165 45.8326 243.675 45.3375C244.201 44.8426 244.928 44.4225 245.858 44.0775C246.713 43.7925 247.74 43.545 248.94 43.335C250.14 43.11 251.708 42.8475 253.643 42.5476C253.628 43.1175 253.59 43.755 253.53 44.46C253.47 45.15 253.328 45.7725 253.103 46.3275C252.923 46.8825 252.57 47.475 252.046 48.105C251.535 48.735 250.845 49.2675 249.975 49.7025C249.105 50.1375 248.055 50.355 246.825 50.355Z" fill="#18191F"/>
<path d="M279.121 54V49.455C277.606 49.68 276.256 49.74 275.071 49.635C273.886 49.5301 273.023 49.0275 272.483 48.1275C272.198 47.6625 272.041 47.0625 272.011 46.3275C271.996 45.5775 271.988 44.7225 271.988 43.7626V33.9525H279.121V29.7H271.988V22.95H266.588V29.7H262.178V33.9525H266.588V44.0775C266.588 45.4725 266.603 46.7175 266.633 47.8125C266.663 48.8925 266.956 49.9575 267.511 51.0075C268.141 52.1625 269.063 53.01 270.278 53.55C271.493 54.0751 272.866 54.3525 274.396 54.3825C275.941 54.4275 277.516 54.3 279.121 54Z" fill="#18191F"/>
<path d="M294.163 54.675C296.503 54.675 298.641 54.0751 300.576 52.875C302.526 51.66 303.966 49.95 304.896 47.745L299.541 46.125C298.461 48.435 296.563 49.59 293.848 49.59C292.003 49.59 290.548 49.0575 289.483 47.9925C288.418 46.9125 287.781 45.3675 287.571 43.3575H305.166C305.376 40.4325 305.053 37.8975 304.198 35.7525C303.343 33.6075 302.031 31.95 300.261 30.78C298.506 29.61 296.368 29.025 293.848 29.025C291.463 29.025 289.363 29.565 287.548 30.645C285.733 31.71 284.316 33.225 283.296 35.19C282.276 37.155 281.766 39.465 281.766 42.12C281.766 44.58 282.283 46.7551 283.318 48.6451C284.368 50.535 285.823 52.0125 287.683 53.0775C289.543 54.1425 291.703 54.675 294.163 54.675ZM294.073 33.7725C295.753 33.7725 297.043 34.215 297.943 35.1C298.858 35.97 299.436 37.3575 299.676 39.2625H287.706C288.351 35.6025 290.473 33.7725 294.073 33.7725Z" fill="#18191F"/>
<path fill-rule="evenodd" clip-rule="evenodd" d="M57.5154 0C59.943 1.37376 62.2012 2.99218 64.2901 4.81759L45.0386 24.069C38.0946 31.0131 38.0946 42.2478 45.0386 49.1731L63.255 67.3895C61.0909 69.1584 58.7574 70.7015 56.2733 72L39.2425 54.9692C29.0993 44.8259 29.0993 28.3973 39.2425 18.2729L57.5154 0ZM68.1479 8.69422L50.8159 26.0073C44.9445 31.8787 44.9445 41.3821 50.8159 47.2535L67.2258 63.6634C69.1076 61.6498 70.8013 59.448 72.2504 57.0957L56.6309 41.4762C53.9587 38.804 53.9587 34.4757 56.6309 31.8223L72.9655 15.4877C71.5917 13.0413 69.9733 10.7643 68.1479 8.69422Z" fill="url(#paint0_linear)"/>
<path fill-rule="evenodd" clip-rule="evenodd" d="M0.965515 16.7109C2.264 14.2269 3.80712 11.8934 5.57607 9.72925L21.8542 26.0073C27.7256 31.8787 27.7256 41.3821 21.8542 47.2535L6.46055 62.6471C4.63514 60.5583 3.01675 58.3001 1.64299 55.8725L16.058 41.4574C18.7303 38.7852 18.7303 34.4569 16.058 31.8035L0.965515 16.7109Z" fill="url(#paint1_linear)"/>
<path fill-rule="evenodd" clip-rule="evenodd" d="M9.30206 5.73978C11.3157 3.85791 13.5174 2.16424 15.8698 0.71521L33.4275 18.273C33.5781 18.4235 33.7286 18.5741 33.8792 18.7246C32.0161 21.0581 30.5671 23.5986 29.5133 26.2709C28.9487 25.4993 28.3277 24.7654 27.6314 24.0691L9.30206 5.73978ZM17.093 71.3226C14.6654 69.9489 12.4072 68.3305 10.3183 66.5051L27.6314 49.1919C28.2336 48.5709 28.7982 47.9311 29.3063 47.2725C30.3036 49.9635 31.715 52.5417 33.5216 54.894C33.484 54.9316 33.4652 54.9505 33.4275 54.9881L17.093 71.3226Z" fill="url(#paint2_linear)"/>
<defs>
<linearGradient id="paint0_linear" x1="112.475" y1="23.6859" x2="-2.32388" y2="49.1337" gradientUnits="userSpaceOnUse">
<stop stop-color="#EA1657"/>
<stop offset="1" stop-color="#FBF287"/>
</linearGradient>
<linearGradient id="paint1_linear" x1="97.188" y1="15.9813" x2="-14.146" y2="40.661" gradientUnits="userSpaceOnUse">
<stop stop-color="#EA1657"/>
<stop offset="1" stop-color="#FBF287"/>
</linearGradient>
<linearGradient id="paint2_linear" x1="105.929" y1="16.2012" x2="-13.75" y2="42.7309" gradientUnits="userSpaceOnUse">
<stop stop-color="#EA1657"/>
<stop offset="1" stop-color="#FBF287"/>
</linearGradient>
</defs>
</svg>
