<svg width="1578" height="900" viewBox="0 0 1578 900" fill="none" xmlns="http://www.w3.org/2000/svg">
<rect width="1578" height="900" fill="url(#paint0_linear)"/>
<path fill-rule="evenodd" clip-rule="evenodd" d="M-746.848 700.032C-857.236 810.421 -857.236 989.396 -746.848 1099.78L-452.294 1394.34C-341.906 1504.73 -162.931 1504.73 -52.5421 1394.34L242.012 1099.78C242.358 1099.44 242.703 1099.09 243.047 1098.74C223.293 1073.01 207.983 1044.97 197.116 1015.65C191.629 1022.98 185.555 1030 178.893 1036.67L-115.661 1331.22C-191.19 1406.75 -313.646 1406.75 -389.175 1331.22L-683.729 1036.67C-759.258 961.137 -759.258 838.68 -683.729 763.151L-389.175 468.597C-313.646 393.068 -191.19 393.068 -115.661 468.597L178.893 763.151C186.453 770.711 193.257 778.742 199.304 787.148C210.723 758.073 226.564 730.333 246.824 704.961C245.244 703.304 243.64 701.66 242.012 700.032L-52.5421 405.478C-162.93 295.09 -341.906 295.09 -452.294 405.478L-746.848 700.032Z" fill="#FAFAFF"/>
<path fill-rule="evenodd" clip-rule="evenodd" d="M305.442 699.462C195.053 809.851 195.053 988.826 305.442 1099.21L599.996 1393.77C710.384 1504.16 889.359 1504.16 999.747 1393.77L1294.3 1099.21C1294.65 1098.87 1294.99 1098.52 1295.34 1098.17C1275.58 1072.44 1260.27 1044.4 1249.41 1015.08C1243.92 1022.41 1237.84 1029.43 1231.18 1036.1L936.629 1330.65C861.1 1406.18 738.643 1406.18 663.114 1330.65L368.56 1036.1C293.031 960.566 293.031 838.11 368.56 762.581L663.114 468.027C738.643 392.498 861.1 392.498 936.629 468.027L1231.18 762.581C1238.74 770.141 1245.55 778.171 1251.59 786.578C1263.01 757.503 1278.85 729.763 1299.11 704.391C1297.53 702.733 1295.93 701.09 1294.3 699.462L999.747 404.908C889.359 294.52 710.384 294.52 599.996 404.908L305.442 699.462Z" fill="#FAFAFF"/>
<path fill-rule="evenodd" clip-rule="evenodd" d="M1346.85 699.462C1236.46 809.851 1236.46 988.826 1346.85 1099.21L1641.4 1393.77C1751.79 1504.16 1930.76 1504.16 2041.15 1393.77L2335.71 1099.21C2336.05 1098.87 2336.4 1098.52 2336.74 1098.17C2316.99 1072.44 2301.68 1044.4 2290.81 1015.08C2285.32 1022.41 2279.25 1029.43 2272.59 1036.1L1978.03 1330.65C1902.51 1406.18 1780.05 1406.18 1704.52 1330.65L1409.97 1036.1C1334.44 960.566 1334.44 838.11 1409.97 762.581L1704.52 468.027C1780.05 392.498 1902.51 392.498 1978.03 468.027L2272.59 762.581C2280.15 770.141 2286.95 778.171 2293 786.578C2304.42 757.503 2320.26 729.763 2340.52 704.391C2338.94 702.733 2337.34 701.09 2335.71 699.462L2041.15 404.908C1930.76 294.52 1751.79 294.52 1641.4 404.908L1346.85 699.462Z" fill="#FAFAFF"/>
<path fill-rule="evenodd" clip-rule="evenodd" d="M-630.329 1015.63C-694.238 951.717 -694.238 848.1 -630.329 784.191L-372.467 526.329C-308.558 462.42 -204.941 462.42 -141.032 526.329L116.83 784.191C180.739 848.1 180.739 951.717 116.83 1015.63L-141.032 1273.49C-204.941 1337.4 -308.558 1337.4 -372.467 1273.49L-630.329 1015.63ZM-567.21 847.309C-596.26 876.359 -596.26 923.458 -567.21 952.507L-309.348 1210.37C-280.299 1239.42 -233.2 1239.42 -204.15 1210.37L53.7114 952.507C82.7609 923.458 82.7609 876.359 53.7114 847.309L-204.15 589.448C-233.2 560.398 -280.299 560.398 -309.348 589.448L-567.21 847.309Z" fill="#FAFAFF"/>
<path fill-rule="evenodd" clip-rule="evenodd" d="M421.961 1015.06C358.052 951.147 358.052 847.529 421.961 783.62L679.823 525.759C743.732 461.85 847.349 461.85 911.258 525.759L1169.12 783.62C1233.03 847.53 1233.03 951.147 1169.12 1015.06L911.258 1272.92C847.349 1336.83 743.732 1336.83 679.823 1272.92L421.961 1015.06ZM485.08 846.739C456.03 875.789 456.03 922.887 485.079 951.937L742.941 1209.8C771.991 1238.85 819.09 1238.85 848.139 1209.8L1106 951.937C1135.05 922.887 1135.05 875.789 1106 846.739L848.139 588.877C819.09 559.828 771.991 559.828 742.941 588.877L485.08 846.739Z" fill="#FAFAFF"/>
<path fill-rule="evenodd" clip-rule="evenodd" d="M1463.37 1015.06C1399.46 951.147 1399.46 847.529 1463.37 783.62L1721.23 525.759C1785.14 461.85 1888.75 461.85 1952.66 525.759L2210.53 783.62C2274.43 847.53 2274.43 951.147 2210.53 1015.06L1952.66 1272.92C1888.75 1336.83 1785.14 1336.83 1721.23 1272.92L1463.37 1015.06ZM1526.49 846.739C1497.44 875.789 1497.44 922.887 1526.49 951.937L1784.35 1209.8C1813.4 1238.85 1860.5 1238.85 1889.54 1209.8L2147.41 951.937C2176.46 922.887 2176.46 875.789 2147.41 846.739L1889.54 588.877C1860.5 559.828 1813.4 559.828 1784.35 588.877L1526.49 846.739Z" fill="#FAFAFF"/>
<defs>
<linearGradient id="paint0_linear" x1="-149.233" y1="510.756" x2="879.351" y2="1489.79" gradientUnits="userSpaceOnUse">
<stop offset="0.000791807" stop-color="#F2F3FB"/>
<stop offset="1" stop-color="#F2F3FB"/>
</linearGradient>
</defs>
</svg>
