<?xml version="1.0" encoding="UTF-8"?>
<svg width="2965px" height="728px" viewBox="0 0 2965 728" version="1.1" xmlns="http://www.w3.org/2000/svg" xmlns:xlink="http://www.w3.org/1999/xlink">
    <title>lifi_wordmark</title>
    <defs>
        <path d="M1174.36932,509.000001 L1174.36932,458.289774 L1049.65341,458.289774 L1049.65341,218.09091 L988.147727,218.09091 L988.147727,509.000001 L1174.36932,509.000001 Z M1244.53977,262.693183 C1253.53598,262.693183 1261.23011,259.686554 1267.62216,253.673297 C1274.0142,247.660039 1277.21023,240.439395 1277.21023,232.011365 C1277.21023,223.678032 1274.0142,216.504736 1267.62216,210.491479 C1261.23011,204.478221 1253.48864,201.471592 1244.39773,201.471592 C1235.49621,201.471592 1227.82576,204.478221 1221.38636,210.491479 C1214.94697,216.504736 1211.72727,223.678032 1211.72727,232.011365 C1211.72727,240.439395 1214.94697,247.660039 1221.38636,253.673297 C1227.82576,259.686554 1235.54356,262.693183 1244.53977,262.693183 Z M1274.51136,509.000001 L1274.51136,290.818183 L1214,290.818183 L1214,509.000001 L1274.51136,509.000001 Z M1358.17614,512.693183 C1364.33144,512.693183 1369.96591,511.154357 1375.07955,508.076706 C1380.19318,504.999054 1384.33617,500.879736 1387.50852,495.718751 C1390.68087,490.557766 1392.26705,484.852274 1392.26705,478.602274 C1392.26705,469.321971 1388.85795,461.367426 1382.03977,454.738638 C1375.22159,448.10985 1367.26705,444.795456 1358.17614,444.795456 C1348.80114,444.795456 1340.77557,448.10985 1334.09943,454.738638 C1327.4233,461.367426 1324.08523,469.321971 1324.08523,478.602274 C1324.08523,487.977274 1327.4233,496.002842 1334.09943,502.678979 C1340.77557,509.355115 1348.80114,512.693183 1358.17614,512.693183 Z M1504.48295,509.000001 L1504.48295,388.829547 L1622.80682,388.829547 L1622.80682,338.11932 L1504.48295,338.11932 L1504.48295,268.801138 L1635.59091,268.801138 L1635.59091,218.09091 L1442.97727,218.09091 L1442.97727,509.000001 L1504.48295,509.000001 Z M1706.32955,262.693183 C1715.32576,262.693183 1723.01989,259.686554 1729.41193,253.673297 C1735.80398,247.660039 1739,240.439395 1739,232.011365 C1739,223.678032 1735.80398,216.504736 1729.41193,210.491479 C1723.01989,204.478221 1715.27841,201.471592 1706.1875,201.471592 C1697.28598,201.471592 1689.61553,204.478221 1683.17614,210.491479 C1676.73674,216.504736 1673.51705,223.678032 1673.51705,232.011365 C1673.51705,240.439395 1676.73674,247.660039 1683.17614,253.673297 C1689.61553,259.686554 1697.33333,262.693183 1706.32955,262.693183 Z M1736.30114,509.000001 L1736.30114,290.818183 L1675.78977,290.818183 L1675.78977,509.000001 L1736.30114,509.000001 Z M1845.10795,509.000001 L1845.10795,382.863638 C1845.20265,373.488638 1846.97822,365.46307 1850.43466,358.786933 C1853.8911,352.110797 1858.72064,347.020835 1864.9233,343.517047 C1871.12595,340.013259 1878.29924,338.261365 1886.44318,338.261365 C1898.56439,338.261365 1908.08144,342.02557 1914.99432,349.553979 C1921.9072,357.082388 1925.31629,367.522729 1925.22159,380.875001 L1925.22159,380.875001 L1925.22159,509.000001 L1985.73295,509.000001 L1985.73295,370.079547 C1985.73295,353.128789 1982.60795,338.521782 1976.35795,326.258524 C1970.10795,313.995266 1961.34848,304.549244 1950.07955,297.920456 C1938.81061,291.291668 1925.60038,287.977274 1910.44886,287.977274 C1894.25568,287.977274 1880.47727,291.69413 1869.11364,299.127842 C1857.75,306.561554 1849.65341,316.623107 1844.82386,329.312501 L1844.82386,329.312501 L1842.26705,329.312501 L1842.26705,290.818183 L1784.59659,290.818183 L1784.59659,509.000001 L1845.10795,509.000001 Z M2095.53409,513.11932 C2106.32955,513.11932 2115.84659,511.675191 2124.08523,508.786933 C2132.32386,505.898676 2139.37879,501.874054 2145.25,496.71307 C2151.12121,491.552085 2155.80871,485.562501 2159.3125,478.74432 L2159.3125,478.74432 L2161.01705,478.74432 L2161.01705,509.000001 L2218.40341,509.000001 L2218.40341,361.84091 C2218.40341,348.867426 2215.89394,337.716857 2210.875,328.389206 C2205.85606,319.061554 2199.0142,311.414774 2190.34943,305.448865 C2181.68466,299.482956 2171.78883,295.079547 2160.66193,292.238638 C2149.53504,289.397729 2137.91098,287.977274 2125.78977,287.977274 C2108.36553,287.977274 2093.0483,290.605115 2079.83807,295.860797 C2066.62784,301.116479 2055.85606,308.597539 2047.52273,318.303979 C2039.18939,328.010418 2033.60227,339.492426 2030.76136,352.750001 L2030.76136,352.750001 L2086.72727,357.295456 C2088.81061,350.098486 2093.07197,344.108903 2099.51136,339.326706 C2105.95076,334.544509 2114.61553,332.15341 2125.50568,332.15341 C2135.82765,332.15341 2143.80587,334.615532 2149.44034,339.539774 C2155.07481,344.464016 2157.89205,351.424244 2157.89205,360.420456 L2157.89205,360.420456 L2157.89205,361.272729 C2157.89205,365.91288 2156.14015,369.416668 2152.63636,371.784092 C2149.13258,374.151516 2143.49811,375.927085 2135.73295,377.110797 C2127.9678,378.294509 2117.74053,379.549244 2105.05114,380.875001 C2094.25568,381.916668 2083.95739,383.71591 2074.15625,386.272729 C2064.35511,388.829547 2055.61932,392.617426 2047.94886,397.636365 C2040.27841,402.655304 2034.2178,409.284092 2029.76705,417.522729 C2025.31629,425.761365 2023.09091,435.941289 2023.09091,448.062501 C2023.09091,462.456441 2026.23958,474.459282 2032.53693,484.071024 C2038.83428,493.682766 2047.42803,500.927085 2058.31818,505.803979 C2069.20833,510.680873 2081.61364,513.11932 2095.53409,513.11932 Z M2112.86364,471.357956 C2103.58333,471.357956 2095.93655,469.2036 2089.9233,464.894888 C2083.91004,460.586176 2080.90341,454.312501 2080.90341,446.073865 C2080.90341,440.392047 2082.37121,435.633524 2085.30682,431.798297 C2088.24242,427.96307 2092.36174,424.909092 2097.66477,422.636365 C2102.9678,420.363638 2109.17045,418.706441 2116.27273,417.664774 C2119.58712,417.191289 2123.2803,416.646782 2127.35227,416.031251 C2131.42424,415.415721 2135.49621,414.705494 2139.56818,413.90057 C2143.64015,413.095645 2147.30966,412.196024 2150.5767,411.201706 C2153.84375,410.207388 2156.42424,409.094698 2158.31818,407.863638 L2158.31818,407.863638 L2158.31818,431.017047 C2158.31818,438.687501 2156.37689,445.553032 2152.49432,451.613638 C2148.61174,457.674244 2143.26136,462.480115 2136.44318,466.031251 C2129.625,469.582388 2121.76515,471.357956 2112.86364,471.357956 Z M2325.93182,509.000001 L2325.93182,382.863638 C2326.02651,373.488638 2327.80208,365.46307 2331.25852,358.786933 C2334.71496,352.110797 2339.54451,347.020835 2345.74716,343.517047 C2351.94981,340.013259 2359.12311,338.261365 2367.26705,338.261365 C2379.38826,338.261365 2388.9053,342.02557 2395.81818,349.553979 C2402.73106,357.082388 2406.14015,367.522729 2406.04545,380.875001 L2406.04545,380.875001 L2406.04545,509.000001 L2466.55682,509.000001 L2466.55682,370.079547 C2466.55682,353.128789 2463.43182,338.521782 2457.18182,326.258524 C2450.93182,313.995266 2442.17235,304.549244 2430.90341,297.920456 C2419.63447,291.291668 2406.42424,287.977274 2391.27273,287.977274 C2375.07955,287.977274 2361.30114,291.69413 2349.9375,299.127842 C2338.57386,306.561554 2330.47727,316.623107 2325.64773,329.312501 L2325.64773,329.312501 L2323.09091,329.312501 L2323.09091,290.818183 L2265.42045,290.818183 L2265.42045,509.000001 L2325.93182,509.000001 Z M2612.72159,513.261365 C2632.13447,513.261365 2648.94318,509.710229 2663.14773,502.607956 C2677.35227,495.505683 2688.50284,485.633524 2696.59943,472.991479 C2704.69602,460.349433 2709.2178,445.695077 2710.16477,429.02841 L2710.16477,429.02841 L2653.0625,429.02841 C2651.92614,436.698865 2649.53504,443.25663 2645.8892,448.701706 C2642.24337,454.146782 2637.65057,458.289774 2632.1108,461.130683 C2626.57102,463.971592 2620.3447,465.392047 2613.43182,465.392047 C2604.05682,465.392047 2595.86553,462.835229 2588.85795,457.721592 C2581.85038,452.607956 2576.42898,445.174244 2572.59375,435.420456 C2568.75852,425.666668 2566.84091,413.829547 2566.84091,399.909092 C2566.84091,386.178032 2568.7822,374.482956 2572.66477,364.823865 C2576.54735,355.164774 2581.96875,347.802085 2588.92898,342.735797 C2595.8892,337.669509 2604.05682,335.136365 2613.43182,335.136365 C2624.51136,335.136365 2633.4839,338.474433 2640.34943,345.15057 C2647.21496,351.826706 2651.45265,360.60985 2653.0625,371.500001 L2653.0625,371.500001 L2710.16477,371.500001 C2709.3125,354.643941 2704.7197,339.96591 2696.38636,327.46591 C2688.05303,314.96591 2676.73674,305.259471 2662.4375,298.346592 C2648.13826,291.433713 2631.47159,287.977274 2612.4375,287.977274 C2590.37311,287.977274 2571.33901,292.735797 2555.33523,302.252842 C2539.33144,311.769888 2526.99716,324.980115 2518.33239,341.883524 C2509.66761,358.786933 2505.33523,378.41288 2505.33523,400.761365 C2505.33523,422.825759 2509.62026,442.333335 2518.19034,459.284092 C2526.76042,476.23485 2539.07102,489.468751 2555.12216,498.985797 C2571.1733,508.502842 2590.37311,513.261365 2612.72159,513.261365 Z M2848.51705,513.261365 C2866.50947,513.261365 2882.39489,510.491479 2896.1733,504.951706 C2909.9517,499.411933 2921.22064,491.646782 2929.98011,481.656251 C2938.73958,471.665721 2944.53977,459.946971 2947.38068,446.500001 L2947.38068,446.500001 L2891.41477,442.80682 C2889.33144,448.299244 2886.30114,452.939395 2882.32386,456.727274 C2878.34659,460.515153 2873.56439,463.356062 2867.97727,465.250001 C2862.39015,467.143941 2856.23485,468.09091 2849.51136,468.09091 C2839.37879,468.09091 2830.61932,465.960229 2823.23295,461.698865 C2815.84659,457.437501 2810.1411,451.376895 2806.11648,443.517047 C2802.09186,435.657198 2800.07955,426.329547 2800.07955,415.534092 L2800.07955,415.534092 L2800.07864,415.393001 L2948.65909,415.392047 L2948.65909,398.772729 C2948.65909,380.212123 2946.05492,363.995266 2940.84659,350.12216 C2935.63826,336.249054 2928.37026,324.719698 2919.04261,315.534092 C2909.71496,306.348486 2898.82481,299.459282 2886.37216,294.866479 C2873.91951,290.273676 2860.49621,287.977274 2846.10227,287.977274 C2824.70076,287.977274 2806.06913,292.712123 2790.20739,302.18182 C2774.34564,311.651516 2762.05871,324.861744 2753.34659,341.812501 C2744.63447,358.763259 2740.27841,378.460229 2740.27841,400.90341 C2740.27841,423.914774 2744.63447,443.824812 2753.34659,460.633524 C2762.05871,477.442236 2774.48769,490.415721 2790.63352,499.553979 C2806.77936,508.692236 2826.07386,513.261365 2848.51705,513.261365 Z M2800.14668,377.681993 C2800.53753,369.925655 2802.55114,362.822377 2806.1875,356.37216 C2810.16477,349.317236 2815.68087,343.682766 2822.7358,339.468751 C2829.79072,335.254736 2837.91098,333.147729 2847.09659,333.147729 C2855.90341,333.147729 2863.64489,335.065342 2870.32102,338.90057 C2876.99716,342.735797 2882.22917,348.015153 2886.01705,354.738638 C2889.80492,361.462123 2891.69886,369.179926 2891.69886,377.892047 L2891.69886,377.892047 L2800.13764,377.893001 L2800.14668,377.681993 Z" id="path-1"></path>
    </defs>
    <g id="Page-1" stroke="none" stroke-width="1" fill="none" fill-rule="evenodd">
        <g id="lifi_wordmark" transform="translate(0.000000, 0.000000)" fill-rule="nonzero">
            <g id="lifi">
                <path d="M258.181014,414.079004 L243.702014,389.002004 C234.769014,373.528004 234.771014,354.463004 243.708014,338.992004 L369.604014,121.049004 C369.831014,120.656004 370.062014,120.268004 370.297014,119.884004 L384.041014,96.0790039 L50.094214,96.0790039 C11.609314,96.0790039 -12.447686,137.736004 6.78712392,171.069004 L132.583014,389.069004 C141.513014,404.545004 158.022014,414.079004 175.890014,414.079004 L258.181014,414.079004 Z M552.563014,412.057004 C548.090014,413.368004 543.306014,414.080004 538.275014,414.080004 L258.020014,414.080004 L424.814014,702.977004 C444.056014,736.305004 492.161014,736.311004 511.411014,702.987004 L637.306014,485.044004 C646.244014,469.573004 646.246014,450.508004 637.312014,435.034004 L596.346014,364.079004 L581.939014,389.034004 C575.396014,400.366004 564.790014,408.510004 552.563014,412.057004 Z M720.061014,0.0578039644 C758.546014,0.0667039644 782.593014,41.7289039 763.350014,75.0578039 L596.486014,364.076004 L456.180014,121.059004 C446.290014,103.929004 428.776014,95.6010039 411.473014,96.0780039 L384.020014,96.0780039 L425.056014,25.0000013 C433.990014,9.52640396 450.502014,-0.00409603558 468.369014,1.32062058e-06 L720.061014,0.0578039644 Z M720.062014,0.0582039644 C758.547014,0.0671039644 782.594014,41.7293039 763.352014,75.0582039 L596.487014,364.076004 L637.454014,435.032004 C646.387014,450.505004 646.385014,469.570004 637.448014,485.042004 L511.552014,702.984004 C492.302014,736.309004 444.198014,736.303004 424.955014,702.974004 L258.161014,414.078004 L175.870014,414.078004 C158.003014,414.078004 141.493014,404.544004 132.563014,389.068004 L6.76755392,171.068004 C-12.467286,137.735004 11.589714,96.0780039 50.074614,96.0780039 L384.021014,96.0780039 L425.058014,25.0004026 C433.992014,9.52680396 450.503014,0.000402642093 468.371014,0.000402642093 L720.062014,0.0582039644 Z" id="Shape" fill="#39289E"></path>
                <path d="M258.161014,414.079004 L243.683014,389.002004 C234.749014,373.528004 234.751014,354.463004 243.688014,338.992004 L369.584014,121.049004 C369.811014,120.656004 370.042014,120.268004 370.277014,119.884004 L384.021014,96.0790039 L50.074614,96.0790039 C11.589714,96.0790039 -12.467286,137.736004 6.76755392,171.069004 L132.563014,389.069004 C141.493014,404.545004 158.003014,414.079004 175.870014,414.079004 L258.161014,414.079004 Z" id="Path" fill="#5D97FE"></path>
                <path d="M552.543014,412.057004 C548.070014,413.368004 543.286014,414.080004 538.255014,414.080004 L258.000014,414.080004 L424.794014,702.977004 C444.037014,736.305004 492.141014,736.311004 511.391014,702.987004 L637.287014,485.044004 C646.224014,469.573004 646.226014,450.508004 637.293014,435.034004 L596.327014,364.079004 L581.919014,389.034004 C575.377014,400.366004 564.770014,408.510004 552.543014,412.057004 Z" id="Path" fill="#3FDAFE"></path>
                <path d="M720.041014,0.0578039644 C758.526014,0.0667039644 782.573014,41.7289039 763.331014,75.0578039 L596.466014,364.076004 L456.160014,121.059004 C446.270014,103.929004 428.756014,95.6010039 411.454014,96.0780039 L384.000014,96.0780039 L425.037014,25.0000013 C433.971014,9.52640396 450.482014,-0.00409603558 468.350014,1.32062056e-06 L720.041014,0.0578039644 Z" id="Path" fill="#A368FE"></path>
            </g>
            <g id="LI.FI">
                <use fill="#000000" xlink:href="#path-1"></use>
                <use fill="#FFFFFF" xlink:href="#path-1"></use>
            </g>
        </g>
    </g>
</svg>
