<svg width="24" height="24" viewBox="0 0 24 24" fill="none" xmlns="http://www.w3.org/2000/svg">
<path d="M9.12132 9.12132C7.94975 10.2929 6.05025 10.2929 4.87868 9.12132C3.70711 7.94975 3.70711 6.05025 4.87868 4.87868C6.05025 3.70711 7.94975 3.70711 9.12132 4.87868C10.2929 6.05025 10.2929 7.94975 9.12132 9.12132Z" fill="white"/>
<path d="M9.12132 19.1213C7.94975 20.2929 6.05025 20.2929 4.87868 19.1213C3.70711 17.9497 3.70711 16.0503 4.87868 14.8787C6.05025 13.7071 7.94975 13.7071 9.12132 14.8787C10.2929 16.0503 10.2929 17.9497 9.12132 19.1213Z" fill="white"/>
<path d="M19.1213 9.12132C17.9497 10.2929 16.0503 10.2929 14.8787 9.12132C13.7071 7.94975 13.7071 6.05025 14.8787 4.87868C16.0503 3.70711 17.9497 3.70711 19.1213 4.87868C20.2929 6.05025 20.2929 7.94975 19.1213 9.12132Z" fill="white"/>
<path d="M19.1213 19.1213C17.9497 20.2929 16.0503 20.2929 14.8787 19.1213C13.7071 17.9497 13.7071 16.0503 14.8787 14.8787C16.0503 13.7071 17.9497 13.7071 19.1213 14.8787C20.2929 16.0503 20.2929 17.9497 19.1213 19.1213Z" fill="white"/>
</svg>
