<svg width="24" height="24" viewBox="0 0 24 24" fill="none" xmlns="http://www.w3.org/2000/svg">
<circle cx="12" cy="12" r="9" stroke="#2E3037" stroke-width="1.6" stroke-linecap="square"/>
<path d="M10.9109 14.1075H12.5991V13.9539C12.608 13.0726 12.9198 12.6613 13.6236 12.2319C14.4566 11.7303 15 11.0659 15 10.0038C15 8.42198 13.7439 7.5 11.9755 7.5C10.3586 7.5 9.04009 8.35871 9 10.1665H10.8174C10.8441 9.42983 11.3831 9.03663 11.9666 9.03663C12.5679 9.03663 13.0535 9.44339 13.0535 10.0716C13.0535 10.6637 12.6303 11.0569 12.0824 11.4094C11.3341 11.8884 10.9154 12.372 10.9109 13.9539V14.1075ZM11.7884 17C12.3586 17 12.853 16.5164 12.8575 15.9153C12.853 15.3233 12.3586 14.8397 11.7884 14.8397C11.2004 14.8397 10.7149 15.3233 10.7194 15.9153C10.7149 16.5164 11.2004 17 11.7884 17Z" fill="#2E3037"/>
</svg>
