<svg width="24" height="24" viewBox="0 0 24 24" fill="none" xmlns="http://www.w3.org/2000/svg">
<path d="M7.97487 7.97487C6.60804 9.34171 4.39196 9.34171 3.02513 7.97487C1.65829 6.60804 1.65829 4.39196 3.02513 3.02513C4.39196 1.65829 6.60804 1.65829 7.97487 3.02513C9.34171 4.39196 9.34171 6.60804 7.97487 7.97487Z" fill="white"/>
<path d="M7.97487 20.9749C6.60804 22.3417 4.39196 22.3417 3.02513 20.9749C1.65829 19.608 1.65829 17.392 3.02513 16.0251C4.39196 14.6583 6.60804 14.6583 7.97487 16.0251C9.34171 17.392 9.34171 19.608 7.97487 20.9749Z" fill="white"/>
<path d="M20.9749 7.97487C19.608 9.34171 17.392 9.34171 16.0251 7.97487C14.6583 6.60804 14.6583 4.39196 16.0251 3.02513C17.392 1.65829 19.608 1.65829 20.9749 3.02513C22.3417 4.39196 22.3417 6.60804 20.9749 7.97487Z" fill="white"/>
<path d="M20.9749 20.9749C19.608 22.3417 17.392 22.3417 16.0251 20.9749C14.6583 19.608 14.6583 17.392 16.0251 16.0251C17.392 14.6583 19.608 14.6583 20.9749 16.0251C22.3417 17.392 22.3417 19.608 20.9749 20.9749Z" fill="white"/>
</svg>
