<svg width="24" height="24" viewBox="0 0 24 24" fill="none" xmlns="http://www.w3.org/2000/svg">
<path d="M7.72221 12C7.72221 13.933 6.1552 15.5 4.22221 15.5C2.28921 15.5 0.722208 13.933 0.722208 12C0.722208 10.067 2.28921 8.5 4.22221 8.5C6.1552 8.5 7.72221 10.067 7.72221 12Z" fill="white"/>
<path d="M15.5005 19.7783C15.5005 21.7113 13.9335 23.2783 12.0005 23.2783C10.0675 23.2783 8.50053 21.7113 8.50053 19.7783C8.50053 17.8453 10.0675 16.2783 12.0005 16.2783C13.9335 16.2783 15.5005 17.8453 15.5005 19.7783Z" fill="white"/>
<path d="M15.5005 4.22168C15.5005 6.15468 13.9335 7.72168 12.0005 7.72168C10.0675 7.72168 8.50053 6.15468 8.50053 4.22168C8.50053 2.28868 10.0675 0.72168 12.0005 0.72168C13.9335 0.72168 15.5005 2.28868 15.5005 4.22168Z" fill="white"/>
<path d="M23.2788 12C23.2788 13.933 21.7118 15.5 19.7788 15.5C17.8459 15.5 16.2788 13.933 16.2788 12C16.2788 10.067 17.8459 8.5 19.7788 8.5C21.7118 8.5 23.2788 10.067 23.2788 12Z" fill="white"/>
</svg>
