<svg width="24" height="24" viewBox="0 0 24 24" fill="none" xmlns="http://www.w3.org/2000/svg">
<path d="M7.69194 13.4656L11.4888 12.8873L12.8864 16.4646C13.2402 17.3701 13.1631 18.3873 12.6771 19.2291L11.0383 22.0675L3.76372 17.8675L5.40247 15.0291C5.88852 14.1873 6.73091 13.612 7.69194 13.4656ZM16.3101 10.5346L12.5133 11.1129L11.1157 7.53556C10.7619 6.6301 10.8389 5.61293 11.325 4.77106L12.9637 1.93266L20.2383 6.13266L18.5996 8.97106C18.1135 9.81293 17.2711 10.3882 16.3101 10.5346Z" stroke="white" stroke-width="1.6"/>
<path d="M18.4653 8.80371L11.5371 4.80371L10.7871 6.10275L12.7512 10.7008L17.7153 10.1027L18.4653 8.80371Z" fill="white"/>
<path d="M8.751 17.6294L5.58594 18.1114L9.91606 20.6114L8.751 17.6294Z" fill="white"/>
</svg>
